<svg width="175" height="159" viewBox="0 0 175 159" fill="none" xmlns="http://www.w3.org/2000/svg">
<rect width="175" height="159" rx="10" fill="#F7CC7E"/>
<path d="M68.3749 97L67.6149 93.78H63.6149L62.8549 97H60.2349L64.0749 83.18H67.2349L71.0549 97H68.3749ZM64.0549 91.82H67.1749L65.6149 85.16L64.0549 91.82ZM77.958 96.5C77.6114 96.7667 77.2247 96.9667 76.798 97.1C76.3847 97.2333 75.958 97.3 75.518 97.3C74.5447 97.3 73.798 97.02 73.278 96.46C72.7714 95.9 72.518 95.12 72.518 94.12V88.22H71.098V86.42H72.518V84.08L75.018 83.78V86.42H77.238L76.978 88.22H75.018V94.1C75.018 94.5 75.0914 94.8 75.238 95C75.398 95.1867 75.6447 95.28 75.978 95.28C76.338 95.28 76.7047 95.1667 77.078 94.94L77.958 96.5ZM84.794 96.5C84.4473 96.7667 84.0607 96.9667 83.634 97.1C83.2207 97.2333 82.794 97.3 82.354 97.3C81.3807 97.3 80.634 97.02 80.114 96.46C79.6073 95.9 79.354 95.12 79.354 94.12V88.22H77.934V86.42H79.354V84.08L81.854 83.78V86.42H84.074L83.814 88.22H81.854V94.1C81.854 94.5 81.9273 94.8 82.074 95C82.234 95.1867 82.4807 95.28 82.814 95.28C83.174 95.28 83.5407 95.1667 83.914 94.94L84.794 96.5ZM93.6979 91.46C93.6979 91.58 93.6779 91.92 93.6379 92.48H87.6579C87.7379 93.5467 87.9646 94.3 88.3379 94.74C88.7112 95.18 89.2312 95.4 89.8979 95.4C90.3246 95.4 90.7246 95.3267 91.0979 95.18C91.4712 95.0333 91.8712 94.8067 92.2979 94.5L93.3379 95.92C92.2846 96.84 91.0779 97.3 89.7179 97.3C88.2379 97.3 87.0979 96.8133 86.2979 95.84C85.4979 94.8667 85.0979 93.5133 85.0979 91.78C85.0979 90.0733 85.4779 88.7067 86.2379 87.68C87.0112 86.64 88.0846 86.12 89.4579 86.12C90.7912 86.12 91.8312 86.58 92.5779 87.5C93.3246 88.42 93.6979 89.74 93.6979 91.46ZM91.2379 90.74C91.2379 89.78 91.0979 89.0667 90.8179 88.6C90.5379 88.12 90.0912 87.88 89.4779 87.88C88.9179 87.88 88.4846 88.1133 88.1779 88.58C87.8846 89.0333 87.7112 89.7933 87.6579 90.86H91.2379V90.74ZM100.937 86.12C101.777 86.12 102.437 86.4 102.917 86.96C103.397 87.52 103.637 88.28 103.637 89.24V97H101.137V89.58C101.137 89.02 101.044 88.6267 100.857 88.4C100.684 88.16 100.424 88.04 100.077 88.04C99.7174 88.04 99.3841 88.1733 99.0774 88.44C98.7708 88.7067 98.4708 89.1 98.1774 89.62V97H95.6774V86.42H97.8574L98.0374 87.8C98.4241 87.2533 98.8508 86.84 99.3174 86.56C99.7974 86.2667 100.337 86.12 100.937 86.12ZM114.385 82.18V97H112.165L112.025 95.72C111.332 96.7733 110.432 97.3 109.325 97.3C108.152 97.3 107.252 96.8067 106.625 95.82C105.999 94.8333 105.685 93.4667 105.685 91.72C105.685 90.6133 105.845 89.64 106.165 88.8C106.485 87.9467 106.932 87.2867 107.505 86.82C108.092 86.3533 108.765 86.12 109.525 86.12C110.459 86.12 111.245 86.4933 111.885 87.24V81.92L114.385 82.18ZM110.025 95.42C110.412 95.42 110.752 95.3133 111.045 95.1C111.339 94.8733 111.619 94.54 111.885 94.1V89.12C111.632 88.7467 111.365 88.4667 111.085 88.28C110.819 88.0933 110.512 88 110.165 88C109.579 88 109.119 88.3 108.785 88.9C108.452 89.4867 108.285 90.42 108.285 91.7C108.285 93.02 108.432 93.9733 108.725 94.56C109.032 95.1333 109.465 95.42 110.025 95.42ZM67.636 117.2C67.636 117.52 67.681 117.76 67.771 117.92C67.861 118.07 68.001 118.185 68.191 118.265L67.906 119.18C67.516 119.12 67.211 119 66.991 118.82C66.771 118.64 66.616 118.365 66.526 117.995C66.016 118.795 65.301 119.195 64.381 119.195C63.681 119.195 63.126 118.98 62.716 118.55C62.306 118.11 62.101 117.525 62.101 116.795C62.101 115.955 62.376 115.315 62.926 114.875C63.476 114.435 64.261 114.215 65.281 114.215H66.301V113.54C66.301 112.99 66.186 112.595 65.956 112.355C65.736 112.105 65.371 111.98 64.861 111.98C64.311 111.98 63.671 112.12 62.941 112.4L62.611 111.455C63.491 111.095 64.311 110.915 65.071 110.915C66.781 110.915 67.636 111.77 67.636 113.48V117.2ZM64.696 118.175C65.396 118.175 65.931 117.765 66.301 116.945V115.085H65.431C64.131 115.085 63.481 115.63 63.481 116.72C63.481 117.19 63.586 117.55 63.796 117.8C64.006 118.05 64.306 118.175 64.696 118.175ZM73.5945 110.915C74.2245 110.915 74.7145 111.125 75.0645 111.545C75.4245 111.955 75.6045 112.525 75.6045 113.255V119H74.2545V113.42C74.2545 112.91 74.1695 112.545 73.9995 112.325C73.8295 112.095 73.5695 111.98 73.2195 111.98C72.5595 111.98 71.9595 112.45 71.4195 113.39V119H70.0695V111.11H71.2395L71.3445 112.28C71.9545 111.37 72.7045 110.915 73.5945 110.915ZM87.0449 114.815C87.0449 115.025 87.0349 115.26 87.0149 115.52H82.4249C82.4649 116.44 82.6499 117.105 82.9799 117.515C83.3099 117.915 83.7599 118.115 84.3299 118.115C84.6899 118.115 85.0099 118.06 85.2899 117.95C85.5799 117.84 85.8799 117.66 86.1899 117.41L86.7899 118.205C86.0499 118.865 85.2099 119.195 84.2699 119.195C83.2399 119.195 82.4399 118.84 81.8699 118.13C81.3099 117.41 81.0299 116.405 81.0299 115.115C81.0299 113.825 81.2999 112.805 81.8399 112.055C82.3799 111.295 83.1299 110.915 84.0899 110.915C85.0399 110.915 85.7699 111.255 86.2799 111.935C86.7899 112.605 87.0449 113.565 87.0449 114.815ZM85.7399 114.41C85.7399 112.76 85.1949 111.935 84.1049 111.935C83.6049 111.935 83.2099 112.145 82.9199 112.565C82.6299 112.975 82.4649 113.645 82.4249 114.575H85.7399V114.41ZM94.1884 111.11L91.8334 119H90.2134L87.7834 111.11H89.1934L91.0234 117.86L92.8384 111.11H94.1884ZM101.02 114.815C101.02 115.025 101.01 115.26 100.99 115.52H96.3995C96.4395 116.44 96.6245 117.105 96.9545 117.515C97.2845 117.915 97.7345 118.115 98.3045 118.115C98.6645 118.115 98.9845 118.06 99.2645 117.95C99.5545 117.84 99.8545 117.66 100.165 117.41L100.765 118.205C100.025 118.865 99.1845 119.195 98.2445 119.195C97.2145 119.195 96.4145 118.84 95.8445 118.13C95.2845 117.41 95.0045 116.405 95.0045 115.115C95.0045 113.825 95.2745 112.805 95.8145 112.055C96.3545 111.295 97.1045 110.915 98.0645 110.915C99.0145 110.915 99.7445 111.255 100.255 111.935C100.765 112.605 101.02 113.565 101.02 114.815ZM99.7145 114.41C99.7145 112.76 99.1695 111.935 98.0795 111.935C97.5795 111.935 97.1845 112.145 96.8945 112.565C96.6045 112.975 96.4395 113.645 96.3995 114.575H99.7145V114.41ZM106.422 110.915C107.052 110.915 107.542 111.125 107.892 111.545C108.252 111.955 108.432 112.525 108.432 113.255V119H107.082V113.42C107.082 112.91 106.997 112.545 106.827 112.325C106.657 112.095 106.397 111.98 106.047 111.98C105.387 111.98 104.787 112.45 104.247 113.39V119H102.897V111.11H104.067L104.172 112.28C104.782 111.37 105.532 110.915 106.422 110.915ZM114.542 118.655C114.042 119.015 113.487 119.195 112.877 119.195C112.237 119.195 111.742 119.01 111.392 118.64C111.052 118.27 110.882 117.75 110.882 117.08V112.13H109.757V111.11H110.882V109.295L112.232 109.13V111.11H113.972L113.822 112.13H112.232V117.065C112.232 117.745 112.517 118.085 113.087 118.085C113.257 118.085 113.412 118.06 113.552 118.01C113.702 117.96 113.867 117.885 114.047 117.785L114.542 118.655Z" fill="black"/>
<rect x="70.625" y="45.25" width="33.75" height="28.125" rx="2" stroke="#33363F" stroke-width="2"/>
<path d="M72.5 54.625H102.5" stroke="#33363F" stroke-width="2" stroke-linecap="round"/>
<path d="M83.75 64H91.25" stroke="#33363F" stroke-width="2" stroke-linecap="round"/>
<path d="M87.5 60.25L87.5 67.75" stroke="#33363F" stroke-width="2" stroke-linecap="round"/>
<path d="M80 39.625L80 47.125" stroke="#33363F" stroke-width="2" stroke-linecap="round"/>
<path d="M95 39.625L95 47.125" stroke="#33363F" stroke-width="2" stroke-linecap="round"/>
</svg>
