<svg width="176" height="167" viewBox="0 0 176 167" fill="none" xmlns="http://www.w3.org/2000/svg">
    <svg width="100%" height="100%" viewBox="0 0 176 167" fill="none" xmlns="http://www.w3.org/2000/svg">
        <rect x="4" width="168" height="159" rx="10" fill="#F26457"/>
    </svg>
    <svg x="74" y="50" width="28" height="28" viewBox="0 0 28 28" fill="none" xmlns="http://www.w3.org/2000/svg">
        <path d="M24.5 11.6666H3.5M24.5 14.5833V10.2666C24.5 8.3064 24.5 7.32631 24.1185 6.57762C23.783 5.91905 23.2475 5.38362 22.589 5.04806C21.8403 4.66659 20.8602 4.66659 18.9 4.66659H9.1C7.13982 4.66659 6.15972 4.66659 5.41103 5.04806C4.75247 5.38362 4.21703 5.91905 3.88148 6.57762C3.5 7.32631 3.5 8.3064 3.5 10.2666V20.0666C3.5 22.0268 3.5 23.0069 3.88148 23.7556C4.21703 24.4141 4.75247 24.9495 5.41103 25.2851C6.15972 25.6666 7.13982 25.6666 9.1 25.6666H14M18.6667 2.33325V6.99992M9.33333 2.33325V6.99992M16.9167 22.1666L19.25 24.4999L24.5 19.2499" stroke="white" stroke-width="2" stroke-linecap="round" stroke-linejoin="round"/>
    </svg>
    <svg x="48.5" y="78" width="79" height="38" viewBox="0 0 79 38" fill="none" xmlns="http://www.w3.org/2000/svg">
        <path d="M8.69438 15L7.77438 11.5H3.15438L2.23438 15H0.374375L4.35438 1.24H6.63438L10.6144 15H8.69438ZM3.53438 10.04H7.39438L5.47438 2.72L3.53438 10.04ZM17.3617 14.54C16.6951 15.02 15.9551 15.26 15.1417 15.26C14.2884 15.26 13.6284 15.0133 13.1617 14.52C12.7084 14.0267 12.4817 13.3333 12.4817 12.44V5.84H10.9817V4.48H12.4817V2.06L14.2817 1.84V4.48H16.6017L16.4017 5.84H14.2817V12.42C14.2817 13.3267 14.6617 13.78 15.4217 13.78C15.6484 13.78 15.8551 13.7467 16.0417 13.68C16.2417 13.6133 16.4617 13.5133 16.7017 13.38L17.3617 14.54ZM23.9047 14.54C23.238 15.02 22.498 15.26 21.6847 15.26C20.8314 15.26 20.1714 15.0133 19.7047 14.52C19.2514 14.0267 19.0247 13.3333 19.0247 12.44V5.84H17.5247V4.48H19.0247V2.06L20.8247 1.84V4.48H23.1447L22.9447 5.84H20.8247V12.42C20.8247 13.3267 21.2047 13.78 21.9647 13.78C22.1914 13.78 22.398 13.7467 22.5847 13.68C22.7847 13.6133 23.0047 13.5133 23.2447 13.38L23.9047 14.54ZM32.5547 9.42C32.5547 9.7 32.5414 10.0133 32.5147 10.36H26.3947C26.448 11.5867 26.6947 12.4733 27.1347 13.02C27.5747 13.5533 28.1747 13.82 28.9347 13.82C29.4147 13.82 29.8414 13.7467 30.2147 13.6C30.6014 13.4533 31.0014 13.2133 31.4147 12.88L32.2147 13.94C31.228 14.82 30.108 15.26 28.8547 15.26C27.4814 15.26 26.4147 14.7867 25.6547 13.84C24.908 12.88 24.5347 11.54 24.5347 9.82C24.5347 8.1 24.8947 6.74 25.6147 5.74C26.3347 4.72667 27.3347 4.22 28.6147 4.22C29.8814 4.22 30.8547 4.67333 31.5347 5.58C32.2147 6.47333 32.5547 7.75333 32.5547 9.42ZM30.8147 8.88C30.8147 6.68 30.088 5.58 28.6347 5.58C27.968 5.58 27.4414 5.86 27.0547 6.42C26.668 6.96667 26.448 7.86 26.3947 9.1H30.8147V8.88ZM39.7575 4.22C40.5975 4.22 41.2508 4.5 41.7175 5.06C42.1975 5.60667 42.4375 6.36667 42.4375 7.34V15H40.6375V7.56C40.6375 6.88 40.5242 6.39333 40.2975 6.1C40.0708 5.79333 39.7242 5.64 39.2575 5.64C38.3775 5.64 37.5775 6.26667 36.8575 7.52V15H35.0575V4.48H36.6175L36.7575 6.04C37.5708 4.82667 38.5708 4.22 39.7575 4.22ZM53.0844 0.22V15H51.4844L51.3644 13.62C50.6844 14.7133 49.771 15.26 48.6244 15.26C47.4777 15.26 46.5844 14.7733 45.9444 13.8C45.3177 12.8267 45.0044 11.4867 45.0044 9.78C45.0044 8.67333 45.1577 7.7 45.4644 6.86C45.7844 6.02 46.231 5.37333 46.8044 4.92C47.3777 4.45333 48.0377 4.22 48.7844 4.22C49.7844 4.22 50.6177 4.64 51.2844 5.48V0.0199997L53.0844 0.22ZM49.0444 13.84C49.5244 13.84 49.9377 13.7067 50.2844 13.44C50.6444 13.1733 50.9777 12.78 51.2844 12.26V6.98C50.6844 6.08667 49.9844 5.64 49.1844 5.64C48.4777 5.64 47.9177 5.98 47.5044 6.66C47.091 7.34 46.891 8.36667 46.9044 9.74C46.9044 11.14 47.091 12.1733 47.4644 12.84C47.8377 13.5067 48.3644 13.84 49.0444 13.84ZM67.5941 12.6C67.5941 13.0267 67.6541 13.3467 67.7741 13.56C67.8941 13.76 68.0807 13.9133 68.3341 14.02L67.9541 15.24C67.4341 15.16 67.0274 15 66.7341 14.76C66.4407 14.52 66.2341 14.1533 66.1141 13.66C65.4341 14.7267 64.4807 15.26 63.2541 15.26C62.3207 15.26 61.5807 14.9733 61.0341 14.4C60.4874 13.8133 60.2141 13.0333 60.2141 12.06C60.2141 10.94 60.5807 10.0867 61.3141 9.5C62.0474 8.91333 63.0941 8.62 64.4541 8.62H65.8141V7.72C65.8141 6.98667 65.6607 6.46 65.3541 6.14C65.0607 5.80667 64.5741 5.64 63.8941 5.64C63.1607 5.64 62.3074 5.82667 61.3341 6.2L60.8941 4.94C62.0674 4.46 63.1607 4.22 64.1741 4.22C66.4541 4.22 67.5941 5.36 67.5941 7.64V12.6ZM63.6741 13.9C64.6074 13.9 65.3207 13.3533 65.8141 12.26V9.78H64.6541C62.9207 9.78 62.0541 10.5067 62.0541 11.96C62.0541 12.5867 62.1941 13.0667 62.4741 13.4C62.7541 13.7333 63.1541 13.9 63.6741 13.9ZM75.5388 4.22C76.3788 4.22 77.0321 4.5 77.4988 5.06C77.9788 5.60667 78.2188 6.36667 78.2188 7.34V15H76.4188V7.56C76.4188 6.88 76.3054 6.39333 76.0788 6.1C75.8521 5.79333 75.5054 5.64 75.0388 5.64C74.1588 5.64 73.3588 6.26667 72.6388 7.52V15H70.8388V4.48H72.3988L72.5388 6.04C73.3521 4.82667 74.3521 4.22 75.5388 4.22ZM26.1474 23.24L25.9274 24.68H21.1674V29.22H25.3074V30.66H21.1674V35.54H26.2074V37H19.3074V23.24H26.1474ZM35.3118 26.48L32.1718 37H30.0118L26.7718 26.48H28.6518L31.0918 35.48L33.5118 26.48H35.3118ZM44.4199 31.42C44.4199 31.7 44.4066 32.0133 44.3799 32.36H38.2599C38.3133 33.5867 38.5599 34.4733 38.9999 35.02C39.4399 35.5533 40.0399 35.82 40.7999 35.82C41.2799 35.82 41.7066 35.7467 42.0799 35.6C42.4666 35.4533 42.8666 35.2133 43.2799 34.88L44.0799 35.94C43.0933 36.82 41.9733 37.26 40.7199 37.26C39.3466 37.26 38.2799 36.7867 37.5199 35.84C36.7733 34.88 36.3999 33.54 36.3999 31.82C36.3999 30.1 36.7599 28.74 37.4799 27.74C38.1999 26.7267 39.1999 26.22 40.4799 26.22C41.7466 26.22 42.7199 26.6733 43.3999 27.58C44.0799 28.4733 44.4199 29.7533 44.4199 31.42ZM42.6799 30.88C42.6799 28.68 41.9533 27.58 40.4999 27.58C39.8333 27.58 39.3066 27.86 38.9199 28.42C38.5333 28.9667 38.3133 29.86 38.2599 31.1H42.6799V30.88ZM51.6227 26.22C52.4627 26.22 53.1161 26.5 53.5827 27.06C54.0627 27.6067 54.3027 28.3667 54.3027 29.34V37H52.5027V29.56C52.5027 28.88 52.3894 28.3933 52.1627 28.1C51.9361 27.7933 51.5894 27.64 51.1227 27.64C50.2427 27.64 49.4427 28.2667 48.7227 29.52V37H46.9227V26.48H48.4827L48.6227 28.04C49.4361 26.8267 50.4361 26.22 51.6227 26.22ZM62.4496 36.54C61.7829 37.02 61.0429 37.26 60.2296 37.26C59.3763 37.26 58.7163 37.0133 58.2496 36.52C57.7963 36.0267 57.5696 35.3333 57.5696 34.44V27.84H56.0696V26.48H57.5696V24.06L59.3696 23.84V26.48H61.6896L61.4896 27.84H59.3696V34.42C59.3696 35.3267 59.7496 35.78 60.5096 35.78C60.7363 35.78 60.9429 35.7467 61.1296 35.68C61.3296 35.6133 61.5496 35.5133 61.7896 35.38L62.4496 36.54Z" fill="white"/>
    </svg>
</svg>
