<svg width="50" height="50" viewBox="0 0 50 50" fill="none" xmlns="http://www.w3.org/2000/svg">
<g id="Back" filter="url(#filter0_d_9_6380)">
<path id="Vector 10" d="M8.33325 20.8333L7.62614 21.5404L6.91904 20.8333L7.62614 20.1262L8.33325 20.8333ZM42.6666 37.5C42.6666 38.0523 42.2189 38.5 41.6666 38.5C41.1143 38.5 40.6666 38.0523 40.6666 37.5L42.6666 37.5ZM18.0428 31.9571L7.62614 21.5404L9.04036 20.1262L19.457 30.5429L18.0428 31.9571ZM7.62614 20.1262L18.0428 9.70956L19.457 11.1238L9.04036 21.5404L7.62614 20.1262ZM8.33325 19.8333L35.6666 19.8333L35.6666 21.8333L8.33325 21.8333L8.33325 19.8333ZM42.6666 26.8333L42.6666 37.5L40.6666 37.5L40.6666 26.8333L42.6666 26.8333ZM35.6666 19.8333C39.5326 19.8333 42.6666 22.9673 42.6666 26.8333L40.6666 26.8333C40.6666 24.0719 38.428 21.8333 35.6666 21.8333L35.6666 19.8333Z" fill="#90CAED"/>
</g>
<defs>
<filter id="filter0_d_9_6380" x="-4" y="0" width="58" height="58" filterUnits="userSpaceOnUse" color-interpolation-filters="sRGB">
<feFlood flood-opacity="0" result="BackgroundImageFix"/>
<feColorMatrix in="SourceAlpha" type="matrix" values="0 0 0 0 0 0 0 0 0 0 0 0 0 0 0 0 0 0 127 0" result="hardAlpha"/>
<feOffset dy="4"/>
<feGaussianBlur stdDeviation="2"/>
<feComposite in2="hardAlpha" operator="out"/>
<feColorMatrix type="matrix" values="0 0 0 0 0 0 0 0 0 0 0 0 0 0 0 0 0 0 0.25 0"/>
<feBlend mode="normal" in2="BackgroundImageFix" result="effect1_dropShadow_9_6380"/>
<feBlend mode="normal" in="SourceGraphic" in2="effect1_dropShadow_9_6380" result="shape"/>
</filter>
</defs>
</svg>
