<svg width="197" height="49" viewBox="0 0 197 49" fill="none" xmlns="http://www.w3.org/2000/svg">
  <svg x="0" y="0" width="100%" height="100%" viewBox="0 0 197 49" fill="none" xmlns="http://www.w3.org/2000/svg">
    <path d="M0 10C0 4.47715 4.47715 0 10 0H197V39C197 44.5228 192.523 49 187 49H0V10Z" fill="white" />
    <path d="M0.5 10C0.5 4.7533 4.7533 0.5 10 0.5H196.5V39C196.5 44.2467 192.247 48.5 187 48.5H0.5V10Z" stroke="black" stroke-opacity="0.8"/>
  </svg>
  <svg x="6" y="12" width="184" height="29" viewBox="0 0 184 29" fill="none" xmlns="http://www.w3.org/2000/svg">
    <path d="M5.73 22.39L0.66 22V21.7L0.96 21.64C1.74 21.46 2.13 20.96 2.13 20.14V4.09C2.13 3.67 2.06 3.35 1.92 3.13C1.8 2.91 1.54 2.76 1.14 2.68L0.72 2.56V2.26L6.06 0.969999L6.42 1.24L6.3 5.47V8.5C6.96 8.04 7.68 7.7 8.46 7.48C9.24 7.24 10.03 7.12 10.83 7.12C11.97 7.12 12.98 7.39 13.86 7.93C14.74 8.45 15.43 9.27 15.93 10.39C16.45 11.49 16.71 12.91 16.71 14.65C16.71 16.39 16.42 17.84 15.84 19C15.28 20.14 14.52 21 13.56 21.58C12.62 22.16 11.58 22.45 10.44 22.45C9.7 22.45 8.95 22.35 8.19 22.15C7.45 21.95 6.79 21.67 6.21 21.31L5.73 22.39ZM8.94 21.43C9.58 21.43 10.14 21.23 10.62 20.83C11.1 20.43 11.48 19.75 11.76 18.79C12.04 17.81 12.18 16.47 12.18 14.77C12.18 13.07 12.05 11.76 11.79 10.84C11.53 9.92 11.16 9.28 10.68 8.92C10.22 8.56 9.66 8.38 9 8.38C8.06 8.38 7.19 8.64 6.39 9.16V20.68C6.77 20.92 7.16 21.11 7.56 21.25C7.96 21.37 8.42 21.43 8.94 21.43ZM21.6316 5.56C20.9516 5.56 20.3716 5.35 19.8916 4.93C19.4316 4.49 19.2016 3.94 19.2016 3.28C19.2016 2.6 19.4316 2.05 19.8916 1.63C20.3716 1.21 20.9516 0.999999 21.6316 0.999999C22.3116 0.999999 22.8816 1.21 23.3416 1.63C23.8016 2.05 24.0316 2.6 24.0316 3.28C24.0316 3.94 23.8016 4.49 23.3416 4.93C22.8816 5.35 22.3116 5.56 21.6316 5.56ZM18.0916 22V21.7L18.5116 21.58C18.9116 21.46 19.1816 21.28 19.3216 21.04C19.4816 20.8 19.5616 20.48 19.5616 20.08V10.69C19.5616 10.27 19.4816 9.96 19.3216 9.76C19.1816 9.54 18.9116 9.39 18.5116 9.31L18.0916 9.22V8.92L23.5816 7.15L23.8816 7.45L23.7916 11.71V20.11C23.7916 20.51 23.8616 20.83 24.0016 21.07C24.1616 21.31 24.4316 21.49 24.8116 21.61L25.1116 21.7V22H18.0916ZM26.5298 22V21.52L34.7198 8.17H30.1898C29.6698 8.17 29.2598 8.31 28.9598 8.59C28.6598 8.87 28.3798 9.24 28.1198 9.7L27.0398 11.71H26.7398L26.9498 7.57H38.9498V7.99L30.9398 21.4H35.6498C36.2898 21.4 36.7598 21.25 37.0598 20.95C37.3598 20.65 37.6398 20.24 37.8998 19.72L38.9498 17.5H39.2498L38.9798 22H26.5298ZM45.5152 22.39L40.4452 22V21.7L40.7452 21.64C41.5252 21.46 41.9152 20.96 41.9152 20.14V4.09C41.9152 3.67 41.8452 3.35 41.7052 3.13C41.5852 2.91 41.3252 2.76 40.9252 2.68L40.5052 2.56V2.26L45.8452 0.969999L46.2052 1.24L46.0852 5.47V8.5C46.7452 8.04 47.4652 7.7 48.2452 7.48C49.0252 7.24 49.8152 7.12 50.6152 7.12C51.7552 7.12 52.7652 7.39 53.6452 7.93C54.5252 8.45 55.2152 9.27 55.7152 10.39C56.2352 11.49 56.4952 12.91 56.4952 14.65C56.4952 16.39 56.2052 17.84 55.6252 19C55.0652 20.14 54.3052 21 53.3452 21.58C52.4052 22.16 51.3652 22.45 50.2252 22.45C49.4852 22.45 48.7352 22.35 47.9752 22.15C47.2352 21.95 46.5752 21.67 45.9952 21.31L45.5152 22.39ZM48.7252 21.43C49.3652 21.43 49.9252 21.23 50.4052 20.83C50.8852 20.43 51.2652 19.75 51.5452 18.79C51.8252 17.81 51.9652 16.47 51.9652 14.77C51.9652 13.07 51.8352 11.76 51.5752 10.84C51.3152 9.92 50.9452 9.28 50.4652 8.92C50.0052 8.56 49.4452 8.38 48.7852 8.38C47.8452 8.38 46.9752 8.64 46.1752 9.16V20.68C46.5552 20.92 46.9452 21.11 47.3452 21.25C47.7452 21.37 48.2052 21.43 48.7252 21.43ZM63.1296 22.45C62.3496 22.45 61.6296 22.3 60.9696 22C60.3296 21.7 59.8196 21.22 59.4396 20.56C59.0796 19.88 58.9096 18.99 58.9296 17.89L59.0196 10.18C59.0196 9.72 58.9396 9.39 58.7796 9.19C58.6196 8.99 58.3696 8.85 58.0296 8.77L57.6696 8.65V8.35L63.0396 7.3L63.3396 7.6L63.1896 11.86V19.09C63.1896 19.73 63.3696 20.2 63.7296 20.5C64.1096 20.8 64.5796 20.95 65.1396 20.95C65.6996 20.95 66.1996 20.87 66.6396 20.71C67.0796 20.55 67.5196 20.31 67.9596 19.99L68.0796 10.21C68.0796 9.75 68.0096 9.43 67.8696 9.25C67.7296 9.05 67.4696 8.91 67.0896 8.83L66.7896 8.74V8.44L72.0396 7.3L72.3396 7.6L72.2496 11.86V19.99C72.2496 20.43 72.3096 20.77 72.4296 21.01C72.5496 21.25 72.8096 21.45 73.2096 21.61L73.5096 21.7V22L68.2596 22.3L67.9896 20.53C67.3296 21.07 66.6096 21.53 65.8296 21.91C65.0696 22.27 64.1696 22.45 63.1296 22.45ZM74.8111 22V21.52L83.0011 8.17H78.4711C77.9511 8.17 77.5411 8.31 77.2411 8.59C76.9411 8.87 76.6611 9.24 76.4011 9.7L75.3211 11.71H75.0211L75.2311 7.57H87.2311V7.99L79.2211 21.4H83.9311C84.5711 21.4 85.0411 21.25 85.3411 20.95C85.6411 20.65 85.9211 20.24 86.1811 19.72L87.2311 17.5H87.5311L87.2611 22H74.8111ZM92.5664 22.45C91.8464 22.45 91.2364 22.2 90.7364 21.7C90.2364 21.2 89.9864 20.6 89.9864 19.9C89.9864 19.2 90.2364 18.59 90.7364 18.07C91.2364 17.55 91.8464 17.29 92.5664 17.29C93.2864 17.29 93.8964 17.55 94.3964 18.07C94.8964 18.59 95.1464 19.2 95.1464 19.9C95.1464 20.6 94.8964 21.2 94.3964 21.7C93.8964 22.2 93.2864 22.45 92.5664 22.45Z" fill="black"/>
    <path d="M104.021 22.45C102.841 22.45 101.781 22.19 100.841 21.67C99.9005 21.13 99.1505 20.31 98.5905 19.21C98.0505 18.09 97.7805 16.66 97.7805 14.92C97.7805 13.16 98.0905 11.71 98.7105 10.57C99.3305 9.41 100.151 8.55 101.171 7.99C102.191 7.41 103.301 7.12 104.501 7.12C105.201 7.12 105.871 7.19 106.511 7.33C107.151 7.47 107.721 7.68 108.221 7.96V4.06C108.221 3.64 108.151 3.33 108.011 3.13C107.891 2.93 107.621 2.79 107.201 2.71L106.631 2.59V2.29L112.091 0.969999L112.421 1.24L112.301 5.44V20.11C112.301 20.51 112.371 20.84 112.511 21.1C112.651 21.34 112.911 21.51 113.291 21.61L113.561 21.7V22L108.431 22.33L108.161 21.25C107.621 21.61 107.001 21.9 106.301 22.12C105.621 22.34 104.861 22.45 104.021 22.45ZM105.761 21.34C106.601 21.34 107.371 21.09 108.071 20.59V8.68C107.331 8.2 106.571 7.96 105.791 7.96C104.831 7.96 104.011 8.52 103.331 9.64C102.651 10.74 102.311 12.48 102.311 14.86C102.311 17.24 102.631 18.92 103.271 19.9C103.911 20.86 104.741 21.34 105.761 21.34ZM122.417 7.12C123.717 7.12 124.827 7.39 125.747 7.93C126.667 8.45 127.367 9.17 127.847 10.09C128.347 10.99 128.597 12.02 128.597 13.18C128.597 13.4 128.587 13.63 128.567 13.87C128.547 14.09 128.507 14.29 128.447 14.47H119.507C119.527 16.63 119.907 18.19 120.647 19.15C121.407 20.09 122.527 20.56 124.007 20.56C125.007 20.56 125.817 20.4 126.437 20.08C127.057 19.76 127.637 19.29 128.177 18.67L128.477 18.94C127.857 20.04 127.027 20.9 125.987 21.52C124.967 22.14 123.737 22.45 122.297 22.45C120.877 22.45 119.617 22.15 118.517 21.55C117.417 20.93 116.557 20.05 115.937 18.91C115.317 17.77 115.007 16.41 115.007 14.83C115.007 13.19 115.367 11.8 116.087 10.66C116.807 9.5 117.727 8.62 118.847 8.02C119.987 7.42 121.177 7.12 122.417 7.12ZM122.327 7.72C121.747 7.72 121.247 7.9 120.827 8.26C120.427 8.6 120.107 9.22 119.867 10.12C119.647 11 119.527 12.25 119.507 13.87H124.637C124.837 11.69 124.757 10.12 124.397 9.16C124.037 8.2 123.347 7.72 122.327 7.72ZM135.282 22.45C134.302 22.45 133.422 22.33 132.642 22.09C131.862 21.87 131.142 21.59 130.482 21.25L130.512 17.68H130.812L131.832 19.48C132.272 20.28 132.752 20.88 133.272 21.28C133.812 21.66 134.492 21.85 135.312 21.85C136.272 21.85 137.042 21.64 137.622 21.22C138.222 20.78 138.522 20.2 138.522 19.48C138.522 18.82 138.312 18.28 137.892 17.86C137.472 17.44 136.692 17.06 135.552 16.72L134.292 16.33C133.072 15.97 132.112 15.41 131.412 14.65C130.712 13.89 130.362 12.96 130.362 11.86C130.362 10.54 130.882 9.42 131.922 8.5C132.962 7.58 134.452 7.12 136.392 7.12C137.172 7.12 137.902 7.21 138.582 7.39C139.282 7.55 139.952 7.8 140.592 8.14L140.412 11.38H140.112L139.062 9.52C138.682 8.86 138.302 8.4 137.922 8.14C137.562 7.86 137.012 7.72 136.272 7.72C135.592 7.72 134.952 7.91 134.352 8.29C133.752 8.67 133.452 9.21 133.452 9.91C133.452 10.59 133.702 11.13 134.202 11.53C134.722 11.93 135.482 12.3 136.482 12.64L137.832 13.03C139.272 13.47 140.302 14.08 140.922 14.86C141.542 15.62 141.852 16.54 141.852 17.62C141.852 19.08 141.272 20.25 140.112 21.13C138.972 22.01 137.362 22.45 135.282 22.45ZM146.671 5.56C145.991 5.56 145.411 5.35 144.931 4.93C144.471 4.49 144.241 3.94 144.241 3.28C144.241 2.6 144.471 2.05 144.931 1.63C145.411 1.21 145.991 0.999999 146.671 0.999999C147.351 0.999999 147.921 1.21 148.381 1.63C148.841 2.05 149.071 2.6 149.071 3.28C149.071 3.94 148.841 4.49 148.381 4.93C147.921 5.35 147.351 5.56 146.671 5.56ZM143.131 22V21.7L143.551 21.58C143.951 21.46 144.221 21.28 144.361 21.04C144.521 20.8 144.601 20.48 144.601 20.08V10.69C144.601 10.27 144.521 9.96 144.361 9.76C144.221 9.54 143.951 9.39 143.551 9.31L143.131 9.22V8.92L148.621 7.15L148.921 7.45L148.831 11.71V20.11C148.831 20.51 148.901 20.83 149.041 21.07C149.201 21.31 149.471 21.49 149.851 21.61L150.151 21.7V22H143.131ZM158.019 16.81C156.639 16.81 155.469 16.58 154.509 16.12V17.14C154.509 17.76 154.819 18.13 155.439 18.25L161.079 19.3C162.019 19.48 162.869 19.72 163.629 20.02C164.389 20.3 164.999 20.71 165.459 21.25C165.919 21.77 166.149 22.49 166.149 23.41C166.149 24.39 165.829 25.29 165.189 26.11C164.549 26.95 163.599 27.62 162.339 28.12C161.099 28.64 159.549 28.9 157.689 28.9C156.089 28.9 154.819 28.73 153.879 28.39C152.939 28.07 152.269 27.65 151.869 27.13C151.489 26.61 151.299 26.06 151.299 25.48C151.299 24.76 151.539 24.03 152.019 23.29C152.519 22.57 153.129 21.99 153.849 21.55C153.229 21.31 152.779 21 152.499 20.62C152.219 20.24 152.079 19.83 152.079 19.39C152.079 18.99 152.179 18.62 152.379 18.28C152.599 17.92 152.859 17.56 153.159 17.2L154.149 15.94C152.689 15.1 151.959 13.78 151.959 11.98C151.959 10.54 152.469 9.37 153.489 8.47C154.529 7.57 156.049 7.12 158.049 7.12C159.069 7.12 159.959 7.24 160.719 7.48C161.499 7.72 162.139 8.06 162.639 8.5C163.279 8.4 163.879 8.24 164.439 8.02C165.019 7.78 165.539 7.46 165.999 7.06L166.419 7.36V8.89H163.029C163.749 9.69 164.109 10.72 164.109 11.98C164.109 13.38 163.589 14.54 162.549 15.46C161.529 16.36 160.019 16.81 158.019 16.81ZM157.989 16.21C158.789 16.21 159.369 15.88 159.729 15.22C160.109 14.56 160.299 13.46 160.299 11.92C160.299 10.38 160.109 9.3 159.729 8.68C159.369 8.04 158.809 7.72 158.049 7.72C157.309 7.72 156.749 8.05 156.369 8.71C155.989 9.35 155.799 10.44 155.799 11.98C155.799 13.52 155.969 14.61 156.309 15.25C156.669 15.89 157.229 16.21 157.989 16.21ZM153.519 24.52C153.519 25.7 153.879 26.59 154.599 27.19C155.339 27.79 156.499 28.09 158.079 28.09C159.739 28.09 160.989 27.82 161.829 27.28C162.669 26.74 163.089 25.98 163.089 25C163.089 24.44 162.879 23.99 162.459 23.65C162.059 23.31 161.369 23.05 160.389 22.87L154.959 21.85C154.799 21.81 154.639 21.77 154.479 21.73C154.199 22.13 153.969 22.58 153.789 23.08C153.609 23.6 153.519 24.08 153.519 24.52ZM167.416 22V21.7L167.836 21.58C168.536 21.38 168.886 20.89 168.886 20.11V10.72C168.886 10.28 168.816 9.96 168.676 9.76C168.536 9.54 168.266 9.39 167.866 9.31L167.416 9.19V8.89L172.546 7.15L172.846 7.45L173.086 9.25C173.786 8.63 174.576 8.12 175.456 7.72C176.336 7.32 177.206 7.12 178.066 7.12C179.386 7.12 180.396 7.48 181.096 8.2C181.816 8.92 182.176 10.02 182.176 11.5V20.14C182.176 20.92 182.556 21.41 183.316 21.61L183.586 21.7V22H176.506V21.7L176.896 21.58C177.596 21.36 177.946 20.87 177.946 20.11V10.54C177.946 9.26 177.306 8.62 176.026 8.62C175.146 8.62 174.186 9.06 173.146 9.94V20.14C173.146 20.92 173.496 21.41 174.196 21.61L174.466 21.7V22H167.416Z" fill="#F26457"/>
    <path d="M5.73 22.39L5.6533 23.3871L6.35712 23.4412L6.64381 22.7961L5.73 22.39ZM0.66 22H-0.34V22.926L0.583304 22.9971L0.66 22ZM0.66 21.7L0.463884 20.7194L-0.34 20.8802V21.7H0.66ZM0.96 21.64L1.15612 22.6206L1.17053 22.6177L1.18486 22.6144L0.96 21.64ZM1.92 3.13L1.0421 3.60885L1.05824 3.63844L1.07634 3.66688L1.92 3.13ZM1.14 2.68L0.865282 3.64152L0.904197 3.65264L0.943884 3.66058L1.14 2.68ZM0.72 2.56H-0.28V3.3143L0.445282 3.52152L0.72 2.56ZM0.72 2.26L0.485182 1.28796L-0.28 1.47281V2.26H0.72ZM6.06 0.969999L6.66 0.169999L6.28312 -0.112664L5.82518 -0.00203991L6.06 0.969999ZM6.42 1.24L7.4196 1.26836L7.43428 0.750711L7.02 0.439999L6.42 1.24ZM6.3 5.47L5.3004 5.44164L5.3 5.45582V5.47H6.3ZM6.3 8.5H5.3V10.4159L6.87179 9.3204L6.3 8.5ZM8.46 7.48L8.73146 8.44245L8.74281 8.43925L8.75409 8.43578L8.46 7.48ZM13.86 7.93L13.337 8.78232L13.3441 8.78668L13.3513 8.79093L13.86 7.93ZM15.93 10.39L15.0169 10.7976L15.0213 10.8076L15.0259 10.8174L15.93 10.39ZM15.84 19L14.9456 18.5528L14.9424 18.5591L15.84 19ZM13.56 21.58L13.0429 20.724L13.0349 20.729L13.56 21.58ZM8.19 22.15L7.92909 23.1154L7.93551 23.1171L8.19 22.15ZM6.21 21.31L6.73736 20.4604L5.76229 19.8551L5.29619 20.9039L6.21 21.31ZM10.62 20.83L9.97982 20.0618L10.62 20.83ZM11.76 18.79L12.72 19.07L12.7215 19.0647L11.76 18.79ZM11.79 10.84L10.8277 11.112V11.112L11.79 10.84ZM10.68 8.92L10.0637 9.7075L10.0718 9.71383L10.08 9.72L10.68 8.92ZM6.39 9.16L5.84501 8.32156L5.39 8.61731V9.16H6.39ZM6.39 20.68H5.39V21.2312L5.85601 21.5255L6.39 20.68ZM7.56 21.25L7.22965 22.1939L7.25099 22.2013L7.27265 22.2078L7.56 21.25ZM5.8067 21.3929L0.736697 21.0029L0.583304 22.9971L5.6533 23.3871L5.8067 21.3929ZM1.66 22V21.7H-0.34V22H1.66ZM0.856116 22.6806L1.15612 22.6206L0.763884 20.6594L0.463884 20.7194L0.856116 22.6806ZM1.18486 22.6144C1.73847 22.4866 2.25622 22.2191 2.626 21.745C2.99371 21.2736 3.13 20.707 3.13 20.14H1.13C1.13 20.393 1.07129 20.4864 1.049 20.515C1.02878 20.5409 0.961531 20.6134 0.735141 20.6656L1.18486 22.6144ZM3.13 20.14V4.09H1.13V20.14H3.13ZM3.13 4.09C3.13 3.58521 3.05051 3.04389 2.76366 2.59312L1.07634 3.66688C1.06948 3.65609 1.08453 3.67524 1.1006 3.7487C1.11665 3.82207 1.13 3.93282 1.13 4.09H3.13ZM2.7979 2.65115C2.46726 2.04499 1.84733 1.80166 1.33612 1.69942L0.943884 3.66058C1.00604 3.67301 1.05208 3.68607 1.08467 3.69743C1.11736 3.70882 1.13257 3.71712 1.13528 3.71868C1.13763 3.72004 1.12534 3.7133 1.10613 3.69459C1.08618 3.67517 1.0627 3.6466 1.0421 3.60885L2.7979 2.65115ZM1.41472 1.71847L0.994718 1.59848L0.445282 3.52152L0.865282 3.64152L1.41472 1.71847ZM1.72 2.56V2.26H-0.28V2.56H1.72ZM0.954818 3.23204L6.29482 1.94204L5.82518 -0.00203991L0.485182 1.28796L0.954818 3.23204ZM5.46 1.77L5.82 2.04L7.02 0.439999L6.66 0.169999L5.46 1.77ZM5.4204 1.21164L5.3004 5.44164L7.2996 5.49836L7.4196 1.26836L5.4204 1.21164ZM5.3 5.47V8.5H7.3V5.47H5.3ZM6.87179 9.3204C7.43962 8.92464 8.05798 8.6324 8.73146 8.44245L8.18854 6.51755C7.30202 6.7676 6.48038 7.15536 5.72821 7.6796L6.87179 9.3204ZM8.75409 8.43578C9.44075 8.2245 10.1317 8.12 10.83 8.12V6.12C9.92831 6.12 9.03925 6.2555 8.16591 6.52422L8.75409 8.43578ZM10.83 8.12C11.8052 8.12 12.6304 8.34876 13.337 8.78232L14.383 7.07768C13.3296 6.43124 12.1348 6.12 10.83 6.12V8.12ZM13.3513 8.79093C14.0194 9.18574 14.5841 9.82833 15.0169 10.7976L16.8431 9.98235C16.2759 8.71167 15.4606 7.71426 14.3687 7.06907L13.3513 8.79093ZM15.0259 10.8174C15.4616 11.7391 15.71 12.9988 15.71 14.65H17.71C17.71 12.8212 17.4384 11.2409 16.8341 9.96262L15.0259 10.8174ZM15.71 14.65C15.71 16.2854 15.4366 17.5707 14.9456 18.5528L16.7344 19.4472C17.4034 18.1093 17.71 16.4946 17.71 14.65H15.71ZM14.9424 18.5591C14.4554 19.5506 13.818 20.2558 13.0429 20.7241L14.0771 22.4359C15.222 21.7442 16.1046 20.7294 16.7376 19.4409L14.9424 18.5591ZM13.0349 20.729C12.258 21.2083 11.4008 21.45 10.44 21.45V23.45C11.7592 23.45 12.982 23.1117 14.0851 22.431L13.0349 20.729ZM10.44 21.45C9.79104 21.45 9.12656 21.3624 8.44449 21.1829L7.93551 23.1171C8.77344 23.3376 9.60896 23.45 10.44 23.45V21.45ZM8.45091 21.1846C7.79351 21.007 7.2252 20.7632 6.73736 20.4604L5.68264 22.1596C6.3548 22.5768 7.10649 22.893 7.92909 23.1154L8.45091 21.1846ZM5.29619 20.9039L4.81619 21.9839L6.64381 22.7961L7.12381 21.7161L5.29619 20.9039ZM8.94 22.43C9.80774 22.43 10.5958 22.1519 11.2602 21.5982L9.97982 20.0618C9.68424 20.3081 9.35226 20.43 8.94 20.43V22.43ZM11.2602 21.5982C11.9595 21.0154 12.4149 20.116 12.72 19.07L10.8 18.51C10.5451 19.384 10.2405 19.8446 9.97982 20.0618L11.2602 21.5982ZM12.7215 19.0647C13.0384 17.9557 13.18 16.5098 13.18 14.77H11.18C11.18 16.4302 11.0416 17.6643 10.7985 18.5153L12.7215 19.0647ZM13.18 14.77C13.18 13.0376 13.0495 11.6197 12.7523 10.568L10.8277 11.112C11.0505 11.9003 11.18 13.1024 11.18 14.77H13.18ZM12.7523 10.568C12.4656 9.55343 12.0123 8.66921 11.28 8.12L10.08 9.72C10.3077 9.89079 10.5944 10.2866 10.8277 11.112L12.7523 10.568ZM11.2963 8.13249C10.6377 7.61709 9.85285 7.38 9 7.38V9.38C9.46715 9.38 9.80226 9.50291 10.0637 9.7075L11.2963 8.13249ZM9 7.38C7.86347 7.38 6.80463 7.6978 5.84501 8.32156L6.93499 9.99844C7.57537 9.5822 8.25653 9.38 9 9.38V7.38ZM5.39 9.16V20.68H7.39V9.16H5.39ZM5.85601 21.5255C6.2961 21.8034 6.7541 22.0274 7.22965 22.1939L7.89035 20.3061C7.56591 20.1926 7.2439 20.0366 6.92399 19.8345L5.85601 21.5255ZM7.27265 22.2078C7.78543 22.3617 8.34545 22.43 8.94 22.43V20.43C8.49455 20.43 8.13457 20.3783 7.84735 20.2922L7.27265 22.2078ZM19.8916 4.93L19.2004 5.65264L19.2164 5.66797L19.2331 5.68258L19.8916 4.93ZM19.8916 1.63L19.2331 0.877423L19.2252 0.884385L19.2174 0.891514L19.8916 1.63ZM23.3416 1.63L22.6674 2.36848V2.36849L23.3416 1.63ZM23.3416 4.93L24.0159 5.66849L24.0245 5.66066L24.0329 5.65264L23.3416 4.93ZM18.0916 22H17.0916V23H18.0916V22ZM18.0916 21.7L17.8169 20.7385L17.0916 20.9457V21.7H18.0916ZM18.5116 21.58L18.7864 22.5416L18.799 22.5378L18.5116 21.58ZM19.3216 21.04L18.4896 20.4853L18.473 20.5102L18.4579 20.5361L19.3216 21.04ZM19.3216 9.76L18.478 10.2969L18.507 10.3425L18.5408 10.3847L19.3216 9.76ZM18.5116 9.31L18.3021 10.2879L18.3155 10.2906L18.5116 9.31ZM18.0916 9.22H17.0916V10.0284L17.8821 10.1978L18.0916 9.22ZM18.0916 8.92L17.7848 7.96824L17.0916 8.19172V8.92H18.0916ZM23.5816 7.15L24.2887 6.44289L23.8565 6.01068L23.2748 6.19824L23.5816 7.15ZM23.8816 7.45L24.8814 7.47112L24.8904 7.04457L24.5887 6.74289L23.8816 7.45ZM23.7916 11.71L22.7919 11.6889L22.7916 11.6994V11.71H23.7916ZM24.0016 21.07L23.1379 21.5739L23.153 21.5998L23.1696 21.6247L24.0016 21.07ZM24.8116 21.61L24.5105 22.5636L24.5174 22.5658L24.5243 22.5678L24.8116 21.61ZM25.1116 21.7H26.1116V20.956L25.399 20.7422L25.1116 21.7ZM25.1116 22V23H26.1116V22H25.1116ZM21.6316 4.56C21.1765 4.56 20.8352 4.42682 20.5501 4.17742L19.2331 5.68258C19.9081 6.27318 20.7268 6.56 21.6316 6.56V4.56ZM20.5829 4.20736C20.3281 3.96368 20.2016 3.67838 20.2016 3.28H18.2016C18.2016 4.20162 18.5352 5.01632 19.2004 5.65264L20.5829 4.20736ZM20.2016 3.28C20.2016 2.85221 20.3338 2.58044 20.5659 2.36849L19.2174 0.891514C18.5295 1.51955 18.2016 2.34779 18.2016 3.28H20.2016ZM20.5501 2.38258C20.8352 2.13318 21.1765 2 21.6316 2V-1.90735e-06C20.7268 -1.90735e-06 19.9081 0.286816 19.2331 0.877423L20.5501 2.38258ZM21.6316 2C22.087 2 22.4092 2.13275 22.6674 2.36848L24.0159 0.891515C23.3541 0.287246 22.5363 -1.90735e-06 21.6316 -1.90735e-06V2ZM22.6674 2.36849C22.8995 2.58044 23.0316 2.85221 23.0316 3.28H25.0316C25.0316 2.34779 24.7038 1.51955 24.0159 0.891514L22.6674 2.36849ZM23.0316 3.28C23.0316 3.67838 22.9052 3.96368 22.6504 4.20736L24.0329 5.65264C24.6981 5.01632 25.0316 4.20162 25.0316 3.28H23.0316ZM22.6674 4.19151C22.4092 4.42725 22.087 4.56 21.6316 4.56V6.56C22.5363 6.56 23.3541 6.27275 24.0159 5.66849L22.6674 4.19151ZM19.0916 22V21.7H17.0916V22H19.0916ZM18.3664 22.6615L18.7864 22.5415L18.2369 20.6185L17.8169 20.7385L18.3664 22.6615ZM18.799 22.5378C19.3224 22.3808 19.8664 22.0908 20.1854 21.5439L18.4579 20.5361C18.4764 20.5043 18.489 20.5033 18.4594 20.5229C18.4265 20.5449 18.3552 20.5829 18.2243 20.6222L18.799 22.5378ZM20.1537 21.5947C20.458 21.1382 20.5616 20.6036 20.5616 20.08H18.5616C18.5616 20.3564 18.5053 20.4618 18.4896 20.4853L20.1537 21.5947ZM20.5616 20.08V10.69H18.5616V20.08H20.5616ZM20.5616 10.69C20.5616 10.1771 20.4701 9.59478 20.1025 9.1353L18.5408 10.3847C18.5134 10.3505 18.5201 10.341 18.5334 10.3924C18.5469 10.445 18.5616 10.5397 18.5616 10.69H20.5616ZM20.1653 9.22312C19.8142 8.67135 19.2276 8.43338 18.7078 8.32942L18.3155 10.2906C18.4446 10.3164 18.5076 10.3451 18.5285 10.3567C18.5448 10.3657 18.5125 10.3512 18.478 10.2969L20.1653 9.22312ZM18.7212 8.3322L18.3012 8.2422L17.8821 10.1978L18.3021 10.2878L18.7212 8.3322ZM19.0916 9.22V8.92H17.0916V9.22H19.0916ZM18.3985 9.87176L23.8885 8.10176L23.2748 6.19824L17.7848 7.96824L18.3985 9.87176ZM22.8745 7.85711L23.1745 8.1571L24.5887 6.74289L24.2887 6.44289L22.8745 7.85711ZM22.8819 7.42888L22.7919 11.6889L24.7914 11.7311L24.8814 7.47112L22.8819 7.42888ZM22.7916 11.71V20.11H24.7916V11.71H22.7916ZM22.7916 20.11C22.7916 20.6138 22.8778 21.1281 23.1379 21.5739L24.8654 20.5661C24.8454 20.5319 24.7916 20.4062 24.7916 20.11H22.7916ZM23.1696 21.6247C23.4966 22.1152 23.9952 22.4009 24.5105 22.5636L25.1128 20.6564C24.868 20.5791 24.8267 20.5048 24.8337 20.5153L23.1696 21.6247ZM24.5243 22.5678L24.8243 22.6578L25.399 20.7422L25.099 20.6522L24.5243 22.5678ZM24.1116 21.7V22H26.1116V21.7H24.1116ZM25.1116 21H18.0916V23H25.1116V21ZM26.5298 22H25.5298V23H26.5298V22ZM26.5298 21.52L25.6775 20.9971L25.5298 21.2377V21.52H26.5298ZM34.7198 8.17L35.5722 8.69292L36.5065 7.17H34.7198V8.17ZM28.1198 9.7L27.2493 9.20794L27.244 9.21726L27.239 9.22668L28.1198 9.7ZM27.0398 11.71V12.71H27.6377L27.9207 12.1833L27.0398 11.71ZM26.7398 11.71L25.7411 11.6593L25.6878 12.71H26.7398V11.71ZM26.9498 7.57V6.57H25.9993L25.9511 7.51934L26.9498 7.57ZM38.9498 7.57H39.9498V6.57H38.9498V7.57ZM38.9498 7.99L39.8084 8.5028L39.9498 8.26592V7.99H38.9498ZM30.9398 21.4L30.0813 20.8872L29.1777 22.4H30.9398V21.4ZM37.0598 20.95L36.3527 20.2429L37.0598 20.95ZM37.8998 19.72L38.7943 20.1672L38.7992 20.1574L38.8038 20.1476L37.8998 19.72ZM38.9498 17.5V16.5H38.3166L38.0459 17.0724L38.9498 17.5ZM39.2498 17.5L40.2481 17.5599L40.3116 16.5H39.2498V17.5ZM38.9798 22V23H39.9216L39.9781 22.0599L38.9798 22ZM27.5298 22V21.52H25.5298V22H27.5298ZM27.3822 22.0429L35.5722 8.69292L33.8675 7.64708L25.6775 20.9971L27.3822 22.0429ZM34.7198 7.17H30.1898V9.17H34.7198V7.17ZM30.1898 7.17C29.487 7.17 28.8084 7.36342 28.2775 7.85894L29.6422 9.32105C29.7112 9.25658 29.8527 9.17 30.1898 9.17V7.17ZM28.2775 7.85894C27.8851 8.22523 27.5458 8.68329 27.2493 9.20794L28.9904 10.1921C29.2139 9.79671 29.4346 9.51477 29.6422 9.32105L28.2775 7.85894ZM27.239 9.22668L26.159 11.2367L27.9207 12.1833L29.0007 10.1733L27.239 9.22668ZM27.0398 10.71H26.7398V12.71H27.0398V10.71ZM27.7386 11.7607L27.9486 7.62066L25.9511 7.51934L25.7411 11.6593L27.7386 11.7607ZM26.9498 8.57H38.9498V6.57H26.9498V8.57ZM37.9498 7.57V7.99H39.9498V7.57H37.9498ZM38.0913 7.4772L30.0813 20.8872L31.7984 21.9128L39.8084 8.5028L38.0913 7.4772ZM30.9398 22.4H35.6498V20.4H30.9398V22.4ZM35.6498 22.4C36.4221 22.4 37.2027 22.2214 37.767 21.6571L36.3527 20.2429C36.317 20.2786 36.1576 20.4 35.6498 20.4V22.4ZM37.7669 21.6571C38.1653 21.2588 38.5027 20.7503 38.7943 20.1672L37.0054 19.2728C36.777 19.7297 36.5544 20.0412 36.3527 20.2429L37.7669 21.6571ZM38.8038 20.1476L39.8538 17.9276L38.0459 17.0724L36.9959 19.2924L38.8038 20.1476ZM38.9498 18.5H39.2498V16.5H38.9498V18.5ZM38.2516 17.4401L37.9816 21.9401L39.9781 22.0599L40.2481 17.5599L38.2516 17.4401ZM38.9798 21H26.5298V23H38.9798V21ZM45.5152 22.39L45.4385 23.3871L46.1423 23.4412L46.429 22.7961L45.5152 22.39ZM40.4452 22H39.4452V22.926L40.3685 22.9971L40.4452 22ZM40.4452 21.7L40.249 20.7194L39.4452 20.8802V21.7H40.4452ZM40.7452 21.64L40.9413 22.6206L40.9557 22.6177L40.97 22.6144L40.7452 21.64ZM41.7052 3.13L40.8273 3.60885L40.8434 3.63844L40.8615 3.66688L41.7052 3.13ZM40.9252 2.68L40.6504 3.64152L40.6894 3.65264L40.729 3.66058L40.9252 2.68ZM40.5052 2.56H39.5052V3.3143L40.2304 3.52152L40.5052 2.56ZM40.5052 2.26L40.2703 1.28796L39.5052 1.47281V2.26H40.5052ZM45.8452 0.969999L46.4452 0.169999L46.0683 -0.112664L45.6103 -0.00203991L45.8452 0.969999ZM46.2052 1.24L47.2048 1.26836L47.2194 0.750711L46.8052 0.439999L46.2052 1.24ZM46.0852 5.47L45.0856 5.44164L45.0852 5.45582V5.47H46.0852ZM46.0852 8.5H45.0852V10.4159L46.6569 9.3204L46.0852 8.5ZM48.2452 7.48L48.5166 8.44245L48.528 8.43925L48.5392 8.43578L48.2452 7.48ZM53.6452 7.93L53.1221 8.78232L53.1292 8.78668L53.1364 8.79093L53.6452 7.93ZM55.7152 10.39L54.802 10.7976L54.8064 10.8076L54.8111 10.8174L55.7152 10.39ZM55.6252 19L54.7307 18.5528L54.7276 18.5591L55.6252 19ZM53.3452 21.58L52.828 20.724L52.82 20.729L53.3452 21.58ZM47.9752 22.15L47.7142 23.1154L47.7207 23.1171L47.9752 22.15ZM45.9952 21.31L46.5225 20.4604L45.5474 19.8551L45.0813 20.9039L45.9952 21.31ZM50.4052 20.83L49.765 20.0618L50.4052 20.83ZM51.5452 18.79L52.5052 19.07L52.5067 19.0647L51.5452 18.79ZM51.5752 10.84L50.6128 11.112V11.112L51.5752 10.84ZM50.4652 8.92L49.8488 9.7075L49.8569 9.71383L49.8652 9.72L50.4652 8.92ZM46.1752 9.16L45.6302 8.32156L45.1752 8.61731V9.16H46.1752ZM46.1752 20.68H45.1752V21.2312L45.6412 21.5255L46.1752 20.68ZM47.3452 21.25L47.0148 22.1939L47.0361 22.2013L47.0578 22.2078L47.3452 21.25ZM45.5919 21.3929L40.5219 21.0029L40.3685 22.9971L45.4385 23.3871L45.5919 21.3929ZM41.4452 22V21.7H39.4452V22H41.4452ZM40.6413 22.6806L40.9413 22.6206L40.549 20.6594L40.249 20.7194L40.6413 22.6806ZM40.97 22.6144C41.5236 22.4866 42.0414 22.2191 42.4112 21.745C42.7789 21.2736 42.9152 20.707 42.9152 20.14H40.9152C40.9152 20.393 40.8564 20.4864 40.8342 20.515C40.8139 20.5409 40.7467 20.6134 40.5203 20.6656L40.97 22.6144ZM42.9152 20.14V4.09H40.9152V20.14H42.9152ZM42.9152 4.09C42.9152 3.58521 42.8357 3.04389 42.5488 2.59312L40.8615 3.66688C40.8546 3.65609 40.8697 3.67524 40.8858 3.7487C40.9018 3.82207 40.9152 3.93282 40.9152 4.09H42.9152ZM42.5831 2.65115C42.2524 2.04499 41.6325 1.80166 41.1213 1.69942L40.729 3.66058C40.7912 3.67301 40.8372 3.68607 40.8698 3.69743C40.9025 3.70882 40.9177 3.71712 40.9204 3.71868C40.9228 3.72004 40.9105 3.7133 40.8913 3.69459C40.8713 3.67517 40.8479 3.6466 40.8273 3.60885L42.5831 2.65115ZM41.1999 1.71847L40.7799 1.59848L40.2304 3.52152L40.6504 3.64152L41.1999 1.71847ZM41.5052 2.56V2.26H39.5052V2.56H41.5052ZM40.74 3.23204L46.08 1.94204L45.6103 -0.00203991L40.2703 1.28796L40.74 3.23204ZM45.2452 1.77L45.6052 2.04L46.8052 0.439999L46.4452 0.169999L45.2452 1.77ZM45.2056 1.21164L45.0856 5.44164L47.0848 5.49836L47.2048 1.26836L45.2056 1.21164ZM45.0852 5.47V8.5H47.0852V5.47H45.0852ZM46.6569 9.3204C47.2248 8.92464 47.8431 8.6324 48.5166 8.44245L47.9737 6.51755C47.0872 6.7676 46.2655 7.15536 45.5134 7.6796L46.6569 9.3204ZM48.5392 8.43578C49.2259 8.2245 49.9169 8.12 50.6152 8.12V6.12C49.7135 6.12 48.8244 6.2555 47.9511 6.52422L48.5392 8.43578ZM50.6152 8.12C51.5904 8.12 52.4156 8.34876 53.1221 8.78232L54.1682 7.07768C53.1147 6.43124 51.9199 6.12 50.6152 6.12V8.12ZM53.1364 8.79093C53.8046 9.18574 54.3693 9.82833 54.802 10.7976L56.6283 9.98235C56.061 8.71167 55.2457 7.71426 54.1539 7.06907L53.1364 8.79093ZM54.8111 10.8174C55.2468 11.7391 55.4952 12.9988 55.4952 14.65H57.4952C57.4952 12.8212 57.2235 11.2409 56.6192 9.96262L54.8111 10.8174ZM55.4952 14.65C55.4952 16.2854 55.2218 17.5707 54.7307 18.5528L56.5196 19.4472C57.1886 18.1093 57.4952 16.4946 57.4952 14.65H55.4952ZM54.7276 18.5591C54.2405 19.5506 53.6031 20.2558 52.828 20.7241L53.8623 22.4359C55.0072 21.7442 55.8898 20.7294 56.5227 19.4409L54.7276 18.5591ZM52.82 20.729C52.0431 21.2083 51.186 21.45 50.2252 21.45V23.45C51.5444 23.45 52.7672 23.1117 53.8703 22.431L52.82 20.729ZM50.2252 21.45C49.5762 21.45 48.9117 21.3624 48.2296 21.1829L47.7207 23.1171C48.5586 23.3376 49.3941 23.45 50.2252 23.45V21.45ZM48.2361 21.1846C47.5787 21.007 47.0104 20.7632 46.5225 20.4604L45.4678 22.1596C46.14 22.5768 46.8916 22.893 47.7142 23.1154L48.2361 21.1846ZM45.0813 20.9039L44.6013 21.9839L46.429 22.7961L46.909 21.7161L45.0813 20.9039ZM48.7252 22.43C49.5929 22.43 50.3809 22.1519 51.0453 21.5982L49.765 20.0618C49.4694 20.3081 49.1374 20.43 48.7252 20.43V22.43ZM51.0453 21.5982C51.7447 21.0154 52.2001 20.116 52.5052 19.07L50.5852 18.51C50.3302 19.384 50.0256 19.8446 49.765 20.0618L51.0453 21.5982ZM52.5067 19.0647C52.8235 17.9557 52.9652 16.5098 52.9652 14.77H50.9652C50.9652 16.4302 50.8268 17.6643 50.5836 18.5153L52.5067 19.0647ZM52.9652 14.77C52.9652 13.0376 52.8347 11.6197 52.5375 10.568L50.6128 11.112C50.8356 11.9003 50.9652 13.1024 50.9652 14.77H52.9652ZM52.5375 10.568C52.2507 9.55343 51.7974 8.66921 51.0652 8.12L49.8652 9.72C50.0929 9.89079 50.3796 10.2866 50.6128 11.112L52.5375 10.568ZM51.0815 8.13249C50.4229 7.61709 49.638 7.38 48.7852 7.38V9.38C49.2523 9.38 49.5874 9.50291 49.8488 9.7075L51.0815 8.13249ZM48.7852 7.38C47.6486 7.38 46.5898 7.6978 45.6302 8.32156L46.7201 9.99844C47.3605 9.5822 48.0417 9.38 48.7852 9.38V7.38ZM45.1752 9.16V20.68H47.1752V9.16H45.1752ZM45.6412 21.5255C46.0813 21.8034 46.5393 22.0274 47.0148 22.1939L47.6755 20.3061C47.3511 20.1926 47.0291 20.0366 46.7091 19.8345L45.6412 21.5255ZM47.0578 22.2078C47.5706 22.3617 48.1306 22.43 48.7252 22.43V20.43C48.2797 20.43 47.9197 20.3783 47.6325 20.2922L47.0578 22.2078ZM60.9696 22L60.5451 22.9055L60.5558 22.9104L60.9696 22ZM59.4396 20.56L58.5558 21.0279L58.5641 21.0436L58.573 21.059L59.4396 20.56ZM58.9296 17.89L59.9295 17.9082L59.9295 17.9017L58.9296 17.89ZM59.0196 10.18L60.0196 10.1917V10.18H59.0196ZM58.0296 8.77L57.7134 9.71868L57.7564 9.73303L57.8006 9.74342L58.0296 8.77ZM57.6696 8.65H56.6696V9.37076L57.3534 9.59868L57.6696 8.65ZM57.6696 8.35L57.4777 7.36858L56.6696 7.52659V8.35H57.6696ZM63.0396 7.3L63.7467 6.59289L63.3702 6.21642L62.8477 6.31858L63.0396 7.3ZM63.3396 7.6L64.339 7.63519L64.3543 7.20047L64.0467 6.89289L63.3396 7.6ZM63.1896 11.86L62.1902 11.8248L62.1896 11.8424V11.86H63.1896ZM63.7296 20.5L63.0894 21.2682L63.0996 21.2767L63.11 21.2849L63.7296 20.5ZM66.6396 20.71L66.9814 21.6498L66.6396 20.71ZM67.9596 19.99L68.5478 20.7987L68.9534 20.5038L68.9595 20.0023L67.9596 19.99ZM68.0796 10.21L69.0796 10.2223V10.21H68.0796ZM67.8696 9.25L67.0504 9.82346L67.0648 9.84408L67.0803 9.86394L67.8696 9.25ZM67.0896 8.83L66.8023 9.78782L66.8425 9.7999L66.8836 9.80855L67.0896 8.83ZM66.7896 8.74H65.7896V9.48403L66.5023 9.69782L66.7896 8.74ZM66.7896 8.44L66.5774 7.46277L65.7896 7.63384V8.44H66.7896ZM72.0396 7.3L72.7467 6.59289L72.3608 6.20696L71.8274 6.32277L72.0396 7.3ZM72.3396 7.6L73.3394 7.62112L73.3484 7.19457L73.0467 6.89289L72.3396 7.6ZM72.2496 11.86L71.2498 11.8389L71.2496 11.8494V11.86H72.2496ZM72.4296 21.01L73.324 20.5628V20.5628L72.4296 21.01ZM73.2096 21.61L72.8382 22.5385L72.8796 22.555L72.9223 22.5678L73.2096 21.61ZM73.5096 21.7H74.5096V20.956L73.797 20.7422L73.5096 21.7ZM73.5096 22L73.5667 22.9984L74.5096 22.9445V22H73.5096ZM68.2596 22.3L67.271 22.4508L67.4083 23.3503L68.3167 23.2984L68.2596 22.3ZM67.9896 20.53L68.9782 20.3792L68.7137 18.6455L67.3564 19.756L67.9896 20.53ZM65.8296 21.91L66.2577 22.8138L66.2676 22.809L65.8296 21.91ZM63.1296 21.45C62.4814 21.45 61.9038 21.3262 61.3834 21.0896L60.5558 22.9104C61.3554 23.2738 62.2179 23.45 63.1296 23.45V21.45ZM61.394 21.0945C60.9542 20.8884 60.5923 20.5579 60.3062 20.061L58.573 21.059C59.0469 21.8821 59.705 22.5116 60.5452 22.9055L61.394 21.0945ZM60.3234 20.0921C60.0694 19.6123 59.9113 18.9073 59.9294 17.9082L57.9298 17.8718C57.9079 19.0727 58.0898 20.1477 58.5558 21.0279L60.3234 20.0921ZM59.9295 17.9017L60.0195 10.1917L58.0197 10.1683L57.9297 17.8783L59.9295 17.9017ZM60.0196 10.18C60.0196 9.65327 59.9376 9.03669 59.5605 8.5653L57.9987 9.8147C57.9627 9.76969 57.9715 9.75606 57.9878 9.8231C58.0038 9.88925 58.0196 10.0034 58.0196 10.18H60.0196ZM59.5605 8.5653C59.2176 8.13666 58.738 7.90936 58.2586 7.79658L57.8006 9.74342C58.0013 9.79064 58.0217 9.84334 57.9987 9.8147L59.5605 8.5653ZM58.3458 7.82132L57.9858 7.70132L57.3534 9.59868L57.7134 9.71868L58.3458 7.82132ZM58.6696 8.65V8.35H56.6696V8.65H58.6696ZM57.8615 9.33142L63.2315 8.28141L62.8477 6.31858L57.4777 7.36858L57.8615 9.33142ZM62.3325 8.00711L62.6325 8.30711L64.0467 6.89289L63.7467 6.59289L62.3325 8.00711ZM62.3402 7.56481L62.1902 11.8248L64.189 11.8952L64.339 7.63519L62.3402 7.56481ZM62.1896 11.86V19.09H64.1896V11.86H62.1896ZM62.1896 19.09C62.1896 19.9122 62.4261 20.7154 63.0894 21.2682L64.3698 19.7318C64.3132 19.6846 64.1896 19.5478 64.1896 19.09H62.1896ZM63.11 21.2849C63.6934 21.7455 64.3916 21.95 65.1396 21.95V19.95C64.7676 19.95 64.5258 19.8545 64.3493 19.7151L63.11 21.2849ZM65.1396 21.95C65.7939 21.95 66.4127 21.8566 66.9814 21.6498L66.2979 19.7702C65.9865 19.8834 65.6053 19.95 65.1396 19.95V21.95ZM66.9814 21.6498C67.5221 21.4532 68.0441 21.165 68.5478 20.7987L67.3714 19.1813C66.9951 19.455 66.6371 19.6468 66.2979 19.7702L66.9814 21.6498ZM68.9595 20.0023L69.0795 10.2223L67.0797 10.1977L66.9597 19.9777L68.9595 20.0023ZM69.0796 10.21C69.0796 9.71682 69.0182 9.09797 68.659 8.63606L67.0803 9.86394C67.0277 9.79633 67.0342 9.76541 67.0502 9.8387C67.0651 9.90669 67.0796 10.0254 67.0796 10.21H69.0796ZM68.6888 8.67654C68.3379 8.17518 67.7838 7.95423 67.2956 7.85145L66.8836 9.80855C67.0076 9.83466 67.0714 9.8625 67.0955 9.87547C67.1165 9.88679 67.0867 9.8754 67.0504 9.82346L68.6888 8.67654ZM67.377 7.87217L67.077 7.78217L66.5023 9.69782L66.8023 9.78782L67.377 7.87217ZM67.7896 8.74V8.44H65.7896V8.74H67.7896ZM67.0018 9.41723L72.2518 8.27723L71.8274 6.32277L66.5774 7.46277L67.0018 9.41723ZM71.3325 8.00711L71.6325 8.30711L73.0467 6.89289L72.7467 6.59289L71.3325 8.00711ZM71.3398 7.57888L71.2498 11.8389L73.2494 11.8811L73.3394 7.62112L71.3398 7.57888ZM71.2496 11.86V19.99H73.2496V11.86H71.2496ZM71.2496 19.99C71.2496 20.4975 71.315 21.0168 71.5352 21.4572L73.324 20.5628C73.3042 20.5232 73.2496 20.3625 73.2496 19.99H71.2496ZM71.5352 21.4572C71.8143 22.0155 72.3409 22.3396 72.8382 22.5385L73.581 20.6815C73.4413 20.6256 73.3628 20.577 73.3243 20.5474C73.2879 20.5194 73.3031 20.5209 73.324 20.5628L71.5352 21.4572ZM72.9223 22.5678L73.2223 22.6578L73.797 20.7422L73.497 20.6522L72.9223 22.5678ZM72.5096 21.7V22H74.5096V21.7H72.5096ZM73.4526 21.0016L68.2026 21.3016L68.3167 23.2984L73.5667 22.9984L73.4526 21.0016ZM69.2482 22.1492L68.9782 20.3792L67.001 20.6808L67.271 22.4508L69.2482 22.1492ZM67.3564 19.756C66.7574 20.2461 66.1031 20.6644 65.3916 21.011L66.2676 22.809C67.1161 22.3956 67.9018 21.8939 68.6228 21.304L67.3564 19.756ZM65.4015 21.0063C64.8032 21.2897 64.0558 21.45 63.1296 21.45V23.45C64.2834 23.45 65.3361 23.2503 66.2577 22.8137L65.4015 21.0063ZM74.8111 22H73.8111V23H74.8111V22ZM74.8111 21.52L73.9587 20.9971L73.8111 21.2377V21.52H74.8111ZM83.0011 8.17L83.8535 8.69292L84.7878 7.17H83.0011V8.17ZM76.4011 9.7L75.5305 9.20794L75.5253 9.21726L75.5202 9.22668L76.4011 9.7ZM75.3211 11.71V12.71H75.919L76.202 12.1833L75.3211 11.71ZM75.0211 11.71L74.0224 11.6593L73.9691 12.71H75.0211V11.71ZM75.2311 7.57V6.57H74.2805L74.2324 7.51934L75.2311 7.57ZM87.2311 7.57H88.2311V6.57H87.2311V7.57ZM87.2311 7.99L88.0896 8.5028L88.2311 8.26592V7.99H87.2311ZM79.2211 21.4L78.3626 20.8872L77.459 22.4H79.2211V21.4ZM85.3411 20.95L84.634 20.2429L85.3411 20.95ZM86.1811 19.72L87.0755 20.1672L87.0804 20.1574L87.0851 20.1476L86.1811 19.72ZM87.2311 17.5V16.5H86.5979L86.3271 17.0724L87.2311 17.5ZM87.5311 17.5L88.5293 17.5599L88.5929 16.5H87.5311V17.5ZM87.2611 22V23H88.2029L88.2593 22.0599L87.2611 22ZM75.8111 22V21.52H73.8111V22H75.8111ZM75.6635 22.0429L83.8535 8.69292L82.1487 7.64708L73.9587 20.9971L75.6635 22.0429ZM83.0011 7.17H78.4711V9.17H83.0011V7.17ZM78.4711 7.17C77.7682 7.17 77.0897 7.36342 76.5588 7.85894L77.9234 9.32105C77.9925 9.25658 78.134 9.17 78.4711 9.17V7.17ZM76.5588 7.85894C76.1663 8.22523 75.8271 8.68329 75.5305 9.20794L77.2717 10.1921C77.4951 9.79671 77.7159 9.51477 77.9234 9.32105L76.5588 7.85894ZM75.5202 9.22668L74.4402 11.2367L76.202 12.1833L77.282 10.1733L75.5202 9.22668ZM75.3211 10.71H75.0211V12.71H75.3211V10.71ZM76.0198 11.7607L76.2298 7.62066L74.2324 7.51934L74.0224 11.6593L76.0198 11.7607ZM75.2311 8.57H87.2311V6.57H75.2311V8.57ZM86.2311 7.57V7.99H88.2311V7.57H86.2311ZM86.3726 7.4772L78.3626 20.8872L80.0796 21.9128L88.0896 8.5028L86.3726 7.4772ZM79.2211 22.4H83.9311V20.4H79.2211V22.4ZM83.9311 22.4C84.7033 22.4 85.4839 22.2214 86.0482 21.6571L84.634 20.2429C84.5983 20.2786 84.4389 20.4 83.9311 20.4V22.4ZM86.0482 21.6571C86.4465 21.2588 86.784 20.7503 87.0755 20.1672L85.2867 19.2728C85.0582 19.7297 84.8357 20.0412 84.634 20.2429L86.0482 21.6571ZM87.0851 20.1476L88.1351 17.9276L86.3271 17.0724L85.2771 19.2924L87.0851 20.1476ZM87.2311 18.5H87.5311V16.5H87.2311V18.5ZM86.5329 17.4401L86.2629 21.9401L88.2593 22.0599L88.5293 17.5599L86.5329 17.4401ZM87.2611 21H74.8111V23H87.2611V21ZM90.7364 21.7L90.0293 22.4071L90.7364 21.7ZM90.7364 18.07L90.0156 17.3769L90.7364 18.07ZM94.3964 18.07L95.1172 17.3769L94.3964 18.07ZM94.3964 21.7L93.6893 20.9929L94.3964 21.7ZM92.5664 21.45C92.1062 21.45 91.7522 21.3016 91.4435 20.9929L90.0293 22.4071C90.7206 23.0984 91.5866 23.45 92.5664 23.45V21.45ZM91.4435 20.9929C91.1289 20.6783 90.9864 20.3318 90.9864 19.9H88.9864C88.9864 20.8682 89.3439 21.7217 90.0293 22.4071L91.4435 20.9929ZM90.9864 19.9C90.9864 19.4671 91.1303 19.1032 91.4572 18.7631L90.0156 17.3769C89.3425 18.0768 88.9864 18.9329 88.9864 19.9H90.9864ZM91.4572 18.7631C91.7691 18.4388 92.119 18.29 92.5664 18.29V16.29C91.5738 16.29 90.7037 16.6612 90.0156 17.3769L91.4572 18.7631ZM92.5664 18.29C93.0138 18.29 93.3637 18.4388 93.6756 18.7631L95.1172 17.3769C94.4291 16.6612 93.559 16.29 92.5664 16.29V18.29ZM93.6756 18.7631C94.0025 19.1032 94.1464 19.4671 94.1464 19.9H96.1464C96.1464 18.9329 95.7903 18.0768 95.1172 17.3769L93.6756 18.7631ZM94.1464 19.9C94.1464 20.3318 94.0039 20.6783 93.6893 20.9929L95.1035 22.4071C95.7889 21.7217 96.1464 20.8682 96.1464 19.9H94.1464ZM93.6893 20.9929C93.3806 21.3016 93.0266 21.45 92.5664 21.45V23.45C93.5462 23.45 94.4122 23.0984 95.1035 22.4071L93.6893 20.9929ZM100.841 21.67L100.342 22.5371L100.349 22.5411L100.356 22.545L100.841 21.67ZM98.5905 19.21L97.6898 19.6443L97.6945 19.654L97.6994 19.6637L98.5905 19.21ZM98.7105 10.57L99.5891 11.0478L99.5925 11.0414L98.7105 10.57ZM101.171 7.99L101.652 8.86658L101.658 8.86298L101.665 8.85929L101.171 7.99ZM106.511 7.33L106.724 6.3531L106.511 7.33ZM108.221 7.96L107.732 8.83251L109.221 9.66612V7.96H108.221ZM108.011 3.13L107.153 3.64449L107.171 3.67465L107.191 3.70346L108.011 3.13ZM107.201 2.71L106.995 3.68855L107.004 3.69054L107.013 3.69234L107.201 2.71ZM106.631 2.59H105.631V3.40139L106.425 3.56855L106.631 2.59ZM106.631 2.29L106.396 1.318L105.631 1.50295V2.29H106.631ZM112.091 0.969999L112.724 0.196042L112.339 -0.118855L111.856 -0.0019989L112.091 0.969999ZM112.421 1.24L113.42 1.26856L113.434 0.777271L113.054 0.466043L112.421 1.24ZM112.301 5.44L111.301 5.41144L111.301 5.42572V5.44H112.301ZM112.511 21.1L111.63 21.5741L111.638 21.5891L111.647 21.6039L112.511 21.1ZM113.291 21.61L113.607 20.6613L113.576 20.6511L113.545 20.6429L113.291 21.61ZM113.561 21.7H114.561V20.9792L113.877 20.7513L113.561 21.7ZM113.561 22L113.625 22.9979L114.561 22.9377V22H113.561ZM108.431 22.33L107.46 22.5725L107.663 23.3815L108.495 23.3279L108.431 22.33ZM108.161 21.25L109.131 21.0075L108.787 19.6308L107.606 20.4179L108.161 21.25ZM106.301 22.12L106.001 21.166L105.993 21.1686L106.301 22.12ZM108.071 20.59L108.652 21.4037L109.071 21.1046V20.59H108.071ZM108.071 8.68H109.071V8.1367L108.615 7.84104L108.071 8.68ZM103.331 9.64L104.181 10.1658L104.185 10.159L103.331 9.64ZM103.271 19.9L102.433 20.4468L102.438 20.4547L103.271 19.9ZM104.021 21.45C102.993 21.45 102.102 21.2251 101.325 20.795L100.356 22.545C101.459 23.1549 102.688 23.45 104.021 23.45V21.45ZM101.339 20.8029C100.59 20.3725 99.9662 19.708 99.4817 18.7563L97.6994 19.6637C98.3349 20.912 99.2115 21.8875 100.342 22.5371L101.339 20.8029ZM99.4913 18.7757C99.0373 17.8341 98.7805 16.5659 98.7805 14.92H96.7805C96.7805 16.7541 97.0638 18.3459 97.6898 19.6443L99.4913 18.7757ZM98.7805 14.92C98.7805 13.27 99.0721 11.9982 99.589 11.0478L97.8321 10.0922C97.109 11.4218 96.7805 13.05 96.7805 14.92H98.7805ZM99.5925 11.0414C100.133 10.0295 100.823 9.32143 101.652 8.86658L100.689 7.11342C99.4778 7.77857 98.5278 8.79054 97.8286 10.0986L99.5925 11.0414ZM101.665 8.85929C102.531 8.36697 103.47 8.12 104.501 8.12V6.12C103.131 6.12 101.85 6.45303 100.676 7.12071L101.665 8.85929ZM104.501 8.12C105.134 8.12 105.732 8.18326 106.297 8.3069L106.724 6.3531C106.009 6.19674 105.268 6.12 104.501 6.12V8.12ZM106.297 8.3069C106.854 8.42879 107.329 8.60698 107.732 8.83251L108.709 7.08749C108.112 6.75302 107.447 6.5112 106.724 6.3531L106.297 8.3069ZM109.221 7.96V4.06H107.221V7.96H109.221ZM109.221 4.06C109.221 3.56649 109.145 3.0073 108.83 2.55654L107.191 3.70346C107.168 3.67016 107.178 3.66809 107.193 3.73276C107.207 3.79667 107.221 3.90195 107.221 4.06H109.221ZM108.868 2.61551C108.518 2.03154 107.873 1.82006 107.388 1.72766L107.013 3.69234C107.086 3.70613 107.142 3.72064 107.184 3.73399C107.226 3.74744 107.249 3.75817 107.258 3.76275C107.277 3.7729 107.213 3.74474 107.153 3.64449L108.868 2.61551ZM107.407 1.73145L106.837 1.61145L106.425 3.56855L106.995 3.68855L107.407 1.73145ZM107.631 2.59V2.29H105.631V2.59H107.631ZM106.866 3.262L112.326 1.942L111.856 -0.0019989L106.396 1.318L106.866 3.262ZM111.457 1.74396L111.787 2.01396L113.054 0.466043L112.724 0.196042L111.457 1.74396ZM111.421 1.21144L111.301 5.41144L113.3 5.46856L113.42 1.26856L111.421 1.21144ZM111.301 5.44V20.11H113.301V5.44H111.301ZM111.301 20.11C111.301 20.6194 111.389 21.1259 111.63 21.5741L113.391 20.6259C113.352 20.5541 113.301 20.4006 113.301 20.11H111.301ZM111.647 21.6039C111.968 22.1538 112.507 22.4378 113.036 22.5771L113.545 20.6429C113.433 20.6134 113.378 20.5835 113.358 20.5705C113.342 20.5604 113.357 20.5669 113.374 20.5961L111.647 21.6039ZM112.974 22.5587L113.244 22.6487L113.877 20.7513L113.607 20.6613L112.974 22.5587ZM112.561 21.7V22H114.561V21.7H112.561ZM113.496 21.0021L108.366 21.3321L108.495 23.3279L113.625 22.9979L113.496 21.0021ZM109.401 22.0875L109.131 21.0075L107.19 21.4925L107.46 22.5725L109.401 22.0875ZM107.606 20.4179C107.154 20.7191 106.622 20.9707 106.001 21.166L106.6 23.074C107.379 22.8293 108.087 22.5009 108.715 22.0821L107.606 20.4179ZM105.993 21.1686C105.428 21.3513 104.774 21.45 104.021 21.45V23.45C104.947 23.45 105.813 23.3287 106.608 23.0714L105.993 21.1686ZM105.761 22.34C106.814 22.34 107.787 22.0218 108.652 21.4037L107.489 19.7763C106.955 20.1582 106.387 20.34 105.761 20.34V22.34ZM109.071 20.59V8.68H107.071V20.59H109.071ZM108.615 7.84104C107.735 7.2701 106.788 6.96 105.791 6.96V8.96C106.353 8.96 106.927 9.1299 107.526 9.51896L108.615 7.84104ZM105.791 6.96C104.359 6.96 103.263 7.82419 102.476 9.12102L104.185 10.159C104.758 9.21581 105.302 8.96 105.791 8.96V6.96ZM102.48 9.11418C101.65 10.4564 101.311 12.4275 101.311 14.86H103.311C103.311 12.5325 103.651 11.0236 104.181 10.1658L102.48 9.11418ZM101.311 14.86C101.311 17.27 101.623 19.2067 102.433 20.4468L104.108 19.3532C103.638 18.6333 103.311 17.21 103.311 14.86H101.311ZM102.438 20.4547C103.235 21.6502 104.358 22.34 105.761 22.34V20.34C105.123 20.34 104.586 20.0698 104.103 19.3453L102.438 20.4547ZM125.747 7.93L125.241 8.79242L125.248 8.79655L125.255 8.80056L125.747 7.93ZM127.847 10.09L126.961 10.5526L126.967 10.5642L126.973 10.5756L127.847 10.09ZM128.567 13.87L129.563 13.9605L129.564 13.953L128.567 13.87ZM128.447 14.47V15.47H129.168L129.396 14.7862L128.447 14.47ZM119.507 14.47V13.47H118.498L118.507 14.4793L119.507 14.47ZM120.647 19.15L119.855 19.7605L119.862 19.7697L119.869 19.7787L120.647 19.15ZM126.437 20.08L126.896 20.9686L126.437 20.08ZM128.177 18.67L128.846 17.9267L128.091 17.2468L127.423 18.0132L128.177 18.67ZM128.477 18.94L129.348 19.431L129.742 18.7328L129.146 18.1967L128.477 18.94ZM125.987 21.52L125.475 20.661L125.468 20.6655L125.987 21.52ZM118.517 21.55L118.026 22.4212L118.038 22.4279L118.517 21.55ZM115.937 18.91L116.816 18.4322L115.937 18.91ZM116.087 10.66L116.933 11.194L116.937 11.1874L116.087 10.66ZM118.847 8.02L118.381 7.13506L118.375 7.13852L118.847 8.02ZM120.827 8.26L121.475 9.02194L121.478 9.01926L120.827 8.26ZM119.867 10.12L118.901 9.86234L118.899 9.86988L118.897 9.87746L119.867 10.12ZM119.507 13.87L118.507 13.8577L118.495 14.87H119.507V13.87ZM124.637 13.87V14.87H125.55L125.633 13.9614L124.637 13.87ZM124.397 9.16L125.333 8.80888H125.333L124.397 9.16ZM122.417 8.12C123.578 8.12 124.505 8.36031 125.241 8.79242L126.253 7.06758C125.149 6.41969 123.856 6.12 122.417 6.12V8.12ZM125.255 8.80056C126.01 9.22738 126.572 9.80712 126.961 10.5526L128.734 9.62743C128.163 8.53288 127.324 7.67262 126.239 7.05944L125.255 8.80056ZM126.973 10.5756C127.38 11.3091 127.597 12.1681 127.597 13.18H129.597C129.597 11.8719 129.314 10.6709 128.721 9.60436L126.973 10.5756ZM127.597 13.18C127.597 13.3698 127.588 13.572 127.571 13.787L129.564 13.953C129.586 13.688 129.597 13.4302 129.597 13.18H127.597ZM127.571 13.7795C127.557 13.9349 127.53 14.0577 127.498 14.1538L129.396 14.7862C129.484 14.5223 129.537 14.2451 129.563 13.9605L127.571 13.7795ZM128.447 13.47H119.507V15.47H128.447V13.47ZM118.507 14.4793C118.528 16.7064 118.913 18.5381 119.855 19.7605L121.439 18.5395C120.901 17.8419 120.526 16.5536 120.507 14.4607L118.507 14.4793ZM119.869 19.7787C120.862 21.006 122.3 21.56 124.007 21.56V19.56C122.754 19.56 121.952 19.174 121.425 18.5213L119.869 19.7787ZM124.007 21.56C125.102 21.56 126.086 21.3866 126.896 20.9686L125.978 19.1914C125.548 19.4134 124.912 19.56 124.007 19.56V21.56ZM126.896 20.9686C127.646 20.5813 128.323 20.0253 128.931 19.3268L127.423 18.0132C126.951 18.5547 126.468 18.9387 125.978 19.1914L126.896 20.9686ZM127.508 19.4133L127.808 19.6833L129.146 18.1967L128.846 17.9267L127.508 19.4133ZM127.606 18.449C127.068 19.4039 126.359 20.1342 125.475 20.6611L126.499 22.3789C127.695 21.6658 128.646 20.6761 129.348 19.431L127.606 18.449ZM125.468 20.6655C124.634 21.1724 123.592 21.45 122.297 21.45V23.45C123.882 23.45 125.3 23.1076 126.507 22.3745L125.468 20.6655ZM122.297 21.45C121.022 21.45 119.93 21.1818 118.996 20.6721L118.038 22.4279C119.304 23.1182 120.732 23.45 122.297 23.45V21.45ZM119.008 20.6788C118.076 20.1537 117.349 19.4122 116.816 18.4322L115.059 19.3878C115.766 20.6878 116.758 21.7063 118.026 22.4212L119.008 20.6788ZM116.816 18.4322C116.291 17.4675 116.007 16.2791 116.007 14.83H114.007C114.007 16.5409 114.343 18.0725 115.059 19.3878L116.816 18.4322ZM116.007 14.83C116.007 13.3379 116.333 12.1427 116.933 11.194L115.242 10.126C114.401 11.4573 114.007 13.0421 114.007 14.83H116.007ZM116.937 11.1874C117.571 10.165 118.366 9.41244 119.319 8.90148L118.375 7.13852C117.089 7.82755 116.043 8.83501 115.237 10.1326L116.937 11.1874ZM119.313 8.90492C120.315 8.37746 121.346 8.12 122.417 8.12V6.12C121.008 6.12 119.659 6.46254 118.381 7.13508L119.313 8.90492ZM122.327 6.72C121.521 6.72 120.787 6.97738 120.176 7.50074L121.478 9.01926C121.707 8.82261 121.973 8.72 122.327 8.72V6.72ZM120.179 7.49806C119.545 8.03748 119.158 8.89934 118.901 9.86234L120.833 10.3777C121.057 9.54066 121.309 9.16252 121.475 9.02194L120.179 7.49806ZM118.897 9.87746C118.649 10.8696 118.528 12.2105 118.507 13.8577L120.507 13.8823C120.527 12.2895 120.645 11.1304 120.837 10.3625L118.897 9.87746ZM119.507 14.87H124.637V12.87H119.507V14.87ZM125.633 13.9614C125.835 11.7642 125.779 9.99671 125.333 8.80888L123.461 9.51112C123.735 10.2433 123.84 11.6158 123.641 13.7786L125.633 13.9614ZM125.333 8.80888C125.098 8.18117 124.726 7.63837 124.181 7.25909C123.635 6.87953 122.997 6.72 122.327 6.72V8.72C122.677 8.72 122.894 8.80047 123.039 8.90091C123.183 9.00162 123.336 9.17883 123.461 9.51112L125.333 8.80888ZM132.642 22.09L132.936 21.1342L132.925 21.1308L132.914 21.1276L132.642 22.09ZM130.482 21.25L129.482 21.2416L129.477 21.8571L130.024 22.139L130.482 21.25ZM130.512 17.68V16.68H129.521L129.512 17.6716L130.512 17.68ZM130.812 17.68L131.682 17.187L131.395 16.68H130.812V17.68ZM131.832 19.48L132.708 18.998L132.702 18.987L131.832 19.48ZM133.272 21.28L132.662 22.0726L132.679 22.0856L132.697 22.0978L133.272 21.28ZM137.622 21.22L138.209 22.03L138.214 22.0264L137.622 21.22ZM137.892 17.86L137.185 18.5671L137.892 17.86ZM135.552 16.72L135.256 17.6753L135.266 17.6783L135.552 16.72ZM134.292 16.33L134.588 15.3746L134.575 15.3709L134.292 16.33ZM131.412 14.65L130.677 15.3275V15.3275L131.412 14.65ZM131.922 8.5L131.26 7.751L131.922 8.5ZM138.582 7.39L138.326 8.3567L138.343 8.36106L138.359 8.36486L138.582 7.39ZM140.592 8.14L141.591 8.19547L141.626 7.55692L141.061 7.25688L140.592 8.14ZM140.412 11.38V12.38H141.358L141.411 11.4355L140.412 11.38ZM140.112 11.38L139.241 11.8716L139.528 12.38H140.112V11.38ZM139.062 9.52L139.933 9.02839L139.929 9.02104L139.062 9.52ZM137.922 8.14L137.308 8.92935L137.332 8.94808L137.357 8.96531L137.922 8.14ZM134.202 11.53L133.577 12.3109L133.585 12.3168L133.592 12.3226L134.202 11.53ZM136.482 12.64L136.16 13.5868L136.182 13.5943L136.205 13.6007L136.482 12.64ZM137.832 13.03L138.124 12.0736L138.117 12.0714L138.11 12.0693L137.832 13.03ZM140.922 14.86L140.139 15.4823L140.147 15.4921L140.922 14.86ZM140.112 21.13L139.508 20.3333L139.501 20.3384L140.112 21.13ZM135.282 21.45C134.383 21.45 133.604 21.3397 132.936 21.1342L132.348 23.0458C133.24 23.3203 134.222 23.45 135.282 23.45V21.45ZM132.914 21.1276C132.192 20.9241 131.535 20.6677 130.94 20.361L130.024 22.139C130.749 22.5123 131.532 22.8159 132.371 23.0524L132.914 21.1276ZM131.482 21.2584L131.512 17.6884L129.512 17.6716L129.482 21.2416L131.482 21.2584ZM130.512 18.68H130.812V16.68H130.512V18.68ZM129.942 18.173L130.962 19.973L132.702 18.987L131.682 17.187L129.942 18.173ZM130.956 19.9619C131.438 20.8386 131.999 21.5624 132.662 22.0726L133.882 20.4874C133.505 20.1976 133.106 19.7214 132.708 18.9981L130.956 19.9619ZM132.697 22.0978C133.442 22.6224 134.336 22.85 135.312 22.85V20.85C134.648 20.85 134.182 20.6976 133.848 20.4622L132.697 22.0978ZM135.312 22.85C136.412 22.85 137.409 22.6094 138.209 22.0299L137.036 20.4101C136.676 20.6706 136.132 20.85 135.312 20.85V22.85ZM138.214 22.0264C139.06 21.4054 139.522 20.5309 139.522 19.48H137.522C137.522 19.8691 137.384 20.1546 137.031 20.4136L138.214 22.0264ZM139.522 19.48C139.522 18.5871 139.229 17.7821 138.599 17.1529L137.185 18.5671C137.396 18.7779 137.522 19.0529 137.522 19.48H139.522ZM138.599 17.1529C137.994 16.5473 137.008 16.1106 135.838 15.7617L135.266 17.6783C136.377 18.0094 136.951 18.3327 137.185 18.5671L138.599 17.1529ZM135.848 15.7647L134.588 15.3747L133.997 17.2853L135.257 17.6753L135.848 15.7647ZM134.575 15.3709C133.489 15.0503 132.7 14.5718 132.148 13.9725L130.677 15.3275C131.525 16.2482 132.656 16.8897 134.009 17.2891L134.575 15.3709ZM132.148 13.9725C131.629 13.4098 131.362 12.7267 131.362 11.86H129.362C129.362 13.1933 129.795 14.3702 130.677 15.3275L132.148 13.9725ZM131.362 11.86C131.362 10.8429 131.747 9.99037 132.585 9.249L131.26 7.751C130.018 8.84963 129.362 10.2371 129.362 11.86H131.362ZM132.585 9.249C133.381 8.545 134.6 8.12 136.392 8.12V6.12C134.305 6.12 132.544 6.61499 131.26 7.751L132.585 9.249ZM136.392 8.12C137.095 8.12 137.738 8.20106 138.326 8.3567L138.838 6.42329C138.066 6.21894 137.249 6.12 136.392 6.12V8.12ZM138.359 8.36486C138.973 8.50507 139.56 8.72401 140.123 9.02312L141.061 7.25688C140.344 6.87598 139.592 6.59493 138.805 6.41514L138.359 8.36486ZM139.594 8.08453L139.414 11.3245L141.411 11.4355L141.591 8.19547L139.594 8.08453ZM140.412 10.38H140.112V12.38H140.412V10.38ZM140.983 10.8884L139.933 9.02841L138.191 10.0116L139.241 11.8716L140.983 10.8884ZM139.929 9.02104C139.517 8.30565 139.046 7.69743 138.487 7.31469L137.357 8.96531C137.558 9.10257 137.847 9.41435 138.196 10.019L139.929 9.02104ZM138.536 7.35065C137.921 6.87219 137.107 6.72 136.272 6.72V8.72C136.918 8.72 137.203 8.84781 137.308 8.92935L138.536 7.35065ZM136.272 6.72C135.394 6.72 134.57 6.96855 133.817 7.44518L134.887 9.13482C135.335 8.85145 135.79 8.72 136.272 8.72V6.72ZM133.817 7.44518C132.933 8.00527 132.452 8.86129 132.452 9.91H134.452C134.452 9.55871 134.572 9.33473 134.887 9.13482L133.817 7.44518ZM132.452 9.91C132.452 10.8721 132.824 11.7079 133.577 12.3109L134.827 10.7491C134.581 10.5521 134.452 10.3079 134.452 9.91H132.452ZM133.592 12.3226C134.236 12.8175 135.112 13.2303 136.16 13.5868L136.804 11.6932C135.853 11.3697 135.208 11.0425 134.812 10.7374L133.592 12.3226ZM136.205 13.6007L137.555 13.9907L138.11 12.0693L136.76 11.6793L136.205 13.6007ZM137.54 13.9864C138.879 14.3956 139.695 14.9227 140.139 15.4822L141.705 14.2378C140.91 13.2373 139.665 12.5444 138.124 12.0736L137.54 13.9864ZM140.147 15.4921C140.607 16.0553 140.852 16.7455 140.852 17.62H142.852C142.852 16.3345 142.478 15.1847 141.697 14.2279L140.147 15.4921ZM140.852 17.62C140.852 18.7682 140.418 19.643 139.508 20.3333L140.717 21.9267C142.127 20.857 142.852 19.3918 142.852 17.62H140.852ZM139.501 20.3384C138.599 21.0349 137.236 21.45 135.282 21.45V23.45C137.488 23.45 139.345 22.9851 140.723 21.9216L139.501 20.3384ZM144.931 4.93L144.239 5.65264L144.256 5.66797L144.272 5.68258L144.931 4.93ZM144.931 1.63L144.272 0.877423L144.264 0.884385L144.256 0.891514L144.931 1.63ZM148.381 1.63L147.706 2.36848V2.36849L148.381 1.63ZM148.381 4.93L149.055 5.66849L149.064 5.66066L149.072 5.65264L148.381 4.93ZM143.131 22H142.131V23H143.131V22ZM143.131 21.7L142.856 20.7385L142.131 20.9457V21.7H143.131ZM143.551 21.58L143.825 22.5416L143.838 22.5378L143.551 21.58ZM144.361 21.04L143.529 20.4853L143.512 20.5102L143.497 20.5361L144.361 21.04ZM144.361 9.76L143.517 10.2969L143.546 10.3425L143.58 10.3847L144.361 9.76ZM143.551 9.31L143.341 10.2879L143.355 10.2906L143.551 9.31ZM143.131 9.22H142.131V10.0284L142.921 10.1978L143.131 9.22ZM143.131 8.92L142.824 7.96824L142.131 8.19172V8.92H143.131ZM148.621 7.15L149.328 6.44289L148.896 6.01068L148.314 6.19824L148.621 7.15ZM148.921 7.45L149.92 7.47112L149.929 7.04457L149.628 6.74289L148.921 7.45ZM148.831 11.71L147.831 11.6889L147.831 11.6994V11.71H148.831ZM149.041 21.07L148.177 21.5739L148.192 21.5998L148.209 21.6247L149.041 21.07ZM149.851 21.61L149.55 22.5636L149.556 22.5658L149.563 22.5678L149.851 21.61ZM150.151 21.7H151.151V20.956L150.438 20.7422L150.151 21.7ZM150.151 22V23H151.151V22H150.151ZM146.671 4.56C146.216 4.56 145.874 4.42682 145.589 4.17742L144.272 5.68258C144.947 6.27318 145.766 6.56 146.671 6.56V4.56ZM145.622 4.20736C145.367 3.96368 145.241 3.67838 145.241 3.28H143.241C143.241 4.20162 143.574 5.01632 144.239 5.65264L145.622 4.20736ZM145.241 3.28C145.241 2.85221 145.373 2.58044 145.605 2.36849L144.256 0.891514C143.569 1.51955 143.241 2.34779 143.241 3.28H145.241ZM145.589 2.38258C145.874 2.13318 146.216 2 146.671 2V-1.90735e-06C145.766 -1.90735e-06 144.947 0.286816 144.272 0.877423L145.589 2.38258ZM146.671 2C147.126 2 147.448 2.13275 147.706 2.36848L149.055 0.891515C148.393 0.287246 147.575 -1.90735e-06 146.671 -1.90735e-06V2ZM147.706 2.36849C147.939 2.58044 148.071 2.85221 148.071 3.28H150.071C150.071 2.34779 149.743 1.51955 149.055 0.891514L147.706 2.36849ZM148.071 3.28C148.071 3.67838 147.944 3.96368 147.689 4.20736L149.072 5.65264C149.737 5.01632 150.071 4.20162 150.071 3.28H148.071ZM147.706 4.19151C147.448 4.42725 147.126 4.56 146.671 4.56V6.56C147.575 6.56 148.393 6.27275 149.055 5.66849L147.706 4.19151ZM144.131 22V21.7H142.131V22H144.131ZM143.405 22.6615L143.825 22.5415L143.276 20.6185L142.856 20.7385L143.405 22.6615ZM143.838 22.5378C144.361 22.3808 144.905 22.0908 145.224 21.5439L143.497 20.5361C143.516 20.5043 143.528 20.5033 143.499 20.5229C143.466 20.5449 143.394 20.5829 143.263 20.6222L143.838 22.5378ZM145.193 21.5947C145.497 21.1382 145.601 20.6036 145.601 20.08H143.601C143.601 20.3564 143.544 20.4618 143.529 20.4853L145.193 21.5947ZM145.601 20.08V10.69H143.601V20.08H145.601ZM145.601 10.69C145.601 10.1771 145.509 9.59478 145.142 9.1353L143.58 10.3847C143.552 10.3505 143.559 10.341 143.572 10.3924C143.586 10.445 143.601 10.5397 143.601 10.69H145.601ZM145.204 9.22312C144.853 8.67135 144.267 8.43338 143.747 8.32942L143.355 10.2906C143.484 10.3164 143.547 10.3451 143.568 10.3567C143.584 10.3657 143.552 10.3512 143.517 10.2969L145.204 9.22312ZM143.76 8.3322L143.34 8.2422L142.921 10.1978L143.341 10.2878L143.76 8.3322ZM144.131 9.22V8.92H142.131V9.22H144.131ZM143.438 9.87176L148.928 8.10176L148.314 6.19824L142.824 7.96824L143.438 9.87176ZM147.914 7.85711L148.214 8.1571L149.628 6.74289L149.328 6.44289L147.914 7.85711ZM147.921 7.42888L147.831 11.6889L149.83 11.7311L149.92 7.47112L147.921 7.42888ZM147.831 11.71V20.11H149.831V11.71H147.831ZM147.831 20.11C147.831 20.6138 147.917 21.1281 148.177 21.5739L149.904 20.5661C149.885 20.5319 149.831 20.4062 149.831 20.11H147.831ZM148.209 21.6247C148.536 22.1152 149.034 22.4009 149.55 22.5636L150.152 20.6564C149.907 20.5791 149.866 20.5048 149.873 20.5153L148.209 21.6247ZM149.563 22.5678L149.863 22.6578L150.438 20.7422L150.138 20.6522L149.563 22.5678ZM149.151 21.7V22H151.151V21.7H149.151ZM150.151 21H143.131V23H150.151V21ZM154.509 16.12L154.941 15.2182L153.509 14.532V16.12H154.509ZM155.439 18.25L155.249 19.2318L155.256 19.2331L155.439 18.25ZM161.079 19.3L161.267 18.3178L161.262 18.3169L161.079 19.3ZM163.629 20.02L163.262 20.9502L163.272 20.9544L163.283 20.9583L163.629 20.02ZM165.459 21.25L164.698 21.8985L164.704 21.9056L164.71 21.9126L165.459 21.25ZM165.189 26.11L164.401 25.4947L164.393 25.504L165.189 26.11ZM162.339 28.12L161.97 27.1905L161.961 27.1941L161.952 27.1978L162.339 28.12ZM153.879 28.39L154.219 27.4496L154.21 27.4464L154.201 27.4434L153.879 28.39ZM151.869 27.13L151.062 27.72L151.069 27.73L151.076 27.7397L151.869 27.13ZM152.019 23.29L151.198 22.7196L151.189 22.7326L151.18 22.7458L152.019 23.29ZM153.849 21.55L154.37 22.4033L156.097 21.348L154.21 20.6174L153.849 21.55ZM152.499 20.62L151.694 21.2132L152.499 20.62ZM152.379 18.28L151.526 17.7585L151.521 17.7657L151.517 17.773L152.379 18.28ZM153.159 17.2L153.927 17.8402L153.936 17.8291L153.945 17.8178L153.159 17.2ZM154.149 15.94L154.935 16.5578L155.649 15.6494L154.648 15.0732L154.149 15.94ZM153.489 8.47L152.835 7.71379L152.827 7.72016L153.489 8.47ZM160.719 7.48L160.418 8.43361L160.425 8.43578L160.719 7.48ZM162.639 8.5L161.978 9.25071L162.33 9.56037L162.793 9.48801L162.639 8.5ZM164.439 8.02L164.805 8.95075L164.813 8.94746L164.821 8.94402L164.439 8.02ZM165.999 7.06L166.58 6.24627L165.938 5.78767L165.343 6.3054L165.999 7.06ZM166.419 7.36H167.419V6.84538L167 6.54626L166.419 7.36ZM166.419 8.89V9.89H167.419V8.89H166.419ZM163.029 8.89V7.89H160.784L162.286 9.55896L163.029 8.89ZM162.549 15.46L163.211 16.2098L163.211 16.209L162.549 15.46ZM159.729 15.22L158.862 14.721L158.857 14.731L158.851 14.7411L159.729 15.22ZM159.729 8.68L158.857 9.17026L158.867 9.18659L158.876 9.20256L159.729 8.68ZM156.369 8.71L157.229 9.22058L157.236 9.20896L156.369 8.71ZM156.309 15.25L155.426 15.7192L155.431 15.7298L155.437 15.7403L156.309 15.25ZM154.599 27.19L153.959 27.9583L153.969 27.9668L154.599 27.19ZM161.829 27.28L162.37 28.1212L161.829 27.28ZM162.459 23.65L161.811 24.4119L161.82 24.4197L161.83 24.4272L162.459 23.65ZM160.389 22.87L160.204 23.8528L160.208 23.8535L160.389 22.87ZM154.959 21.85L154.716 22.8201L154.745 22.8273L154.774 22.8328L154.959 21.85ZM154.479 21.73L154.721 20.7599L154.054 20.593L153.66 21.1565L154.479 21.73ZM153.789 23.08L152.848 22.7413L152.844 22.7529L153.789 23.08ZM158.019 15.81C156.746 15.81 155.732 15.5974 154.941 15.2182L154.077 17.0218C155.205 17.5626 156.532 17.81 158.019 17.81V15.81ZM153.509 16.12V17.14H155.509V16.12H153.509ZM153.509 17.14C153.509 17.6167 153.63 18.1136 153.975 18.5247C154.318 18.9337 154.784 19.1417 155.249 19.2318L155.629 17.2682C155.551 17.2532 155.512 17.2358 155.498 17.2284C155.487 17.2223 155.495 17.2247 155.508 17.2403C155.521 17.2561 155.524 17.2668 155.521 17.2593C155.518 17.249 155.509 17.2128 155.509 17.14H153.509ZM155.256 19.2331L160.896 20.2831L161.262 18.3169L155.622 17.2669L155.256 19.2331ZM160.891 20.2822C161.78 20.4524 162.569 20.6765 163.262 20.9502L163.996 19.0898C163.169 18.7635 162.258 18.5076 161.267 18.3178L160.891 20.2822ZM163.283 20.9583C163.905 21.1875 164.364 21.5067 164.698 21.8985L166.22 20.6015C165.634 19.9133 164.873 19.4125 163.975 19.0817L163.283 20.9583ZM164.71 21.9126C164.962 22.1972 165.149 22.6534 165.149 23.41H167.149C167.149 22.3266 166.876 21.3428 166.208 20.5874L164.71 21.9126ZM165.149 23.41C165.149 24.1528 164.912 24.8389 164.401 25.4947L165.977 26.7253C166.745 25.7411 167.149 24.6272 167.149 23.41H165.149ZM164.393 25.504C163.891 26.1638 163.108 26.7389 161.97 27.1905L162.708 29.0495C164.09 28.5011 165.207 27.7362 165.984 26.716L164.393 25.504ZM161.952 27.1978C160.872 27.6508 159.464 27.9 157.689 27.9V29.9C159.634 29.9 161.326 29.6292 162.726 29.0422L161.952 27.1978ZM157.689 27.9C156.144 27.9 155.004 27.7337 154.219 27.4496L153.539 29.3304C154.633 29.7263 156.034 29.9 157.689 29.9V27.9ZM154.201 27.4434C153.358 27.1564 152.894 26.823 152.662 26.5203L151.076 27.7397C151.643 28.477 152.52 28.9836 153.557 29.3367L154.201 27.4434ZM152.676 26.54C152.407 26.1714 152.299 25.8246 152.299 25.48H150.299C150.299 26.2955 150.571 27.0486 151.062 27.72L152.676 26.54ZM152.299 25.48C152.299 24.9926 152.459 24.4488 152.858 23.8342L151.18 22.7458C150.619 23.6112 150.299 24.5274 150.299 25.48H152.299ZM152.84 23.8604C153.264 23.25 153.774 22.768 154.37 22.4033L153.327 20.6967C152.484 21.212 151.774 21.89 151.198 22.7196L152.84 23.8604ZM154.21 20.6174C153.698 20.4192 153.434 20.2033 153.304 20.0268L151.694 21.2132C152.124 21.7967 152.76 22.2008 153.488 22.4826L154.21 20.6174ZM153.304 20.0268C153.141 19.8054 153.079 19.6006 153.079 19.39H151.079C151.079 20.0594 151.297 20.6746 151.694 21.2132L153.304 20.0268ZM153.079 19.39C153.079 19.1657 153.133 18.9711 153.241 18.787L151.517 17.773C151.225 18.2689 151.079 18.8143 151.079 19.39H153.079ZM153.232 18.8015C153.424 18.4873 153.655 18.1668 153.927 17.8402L152.391 16.5598C152.063 16.9532 151.774 17.3527 151.526 17.7585L153.232 18.8015ZM153.945 17.8178L154.935 16.5578L153.363 15.3222L152.373 16.5822L153.945 17.8178ZM154.648 15.0732C153.523 14.4261 152.959 13.4522 152.959 11.98H150.959C150.959 14.1078 151.855 15.7739 153.65 16.8068L154.648 15.0732ZM152.959 11.98C152.959 10.8079 153.36 9.91776 154.151 9.21984L152.827 7.72016C151.578 8.82224 150.959 10.2721 150.959 11.98H152.959ZM154.143 9.22617C154.934 8.54157 156.182 8.12 158.049 8.12V6.12C155.915 6.12 154.123 6.59842 152.835 7.71383L154.143 9.22617ZM158.049 8.12C158.994 8.12 159.778 8.23156 160.418 8.43358L161.02 6.52642C160.14 6.24844 159.144 6.12 158.049 6.12V8.12ZM160.425 8.43578C161.099 8.6433 161.606 8.92284 161.978 9.25071L163.3 7.74929C162.672 7.19716 161.899 6.7967 161.013 6.52422L160.425 8.43578ZM162.793 9.48801C163.5 9.37757 164.171 9.19947 164.805 8.95075L164.073 7.08925C163.586 7.28053 163.058 7.42243 162.485 7.51199L162.793 9.48801ZM164.821 8.94402C165.498 8.66395 166.111 8.2876 166.655 7.8146L165.343 6.3054C164.967 6.6324 164.54 6.89605 164.057 7.09598L164.821 8.94402ZM165.418 7.87373L165.838 8.17373L167 6.54626L166.58 6.24627L165.418 7.87373ZM165.419 7.36V8.89H167.419V7.36H165.419ZM166.419 7.89H163.029V9.89H166.419V7.89ZM162.286 9.55896C162.813 10.1446 163.109 10.9223 163.109 11.98H165.109C165.109 10.5177 164.685 9.23542 163.772 8.22104L162.286 9.55896ZM163.109 11.98C163.109 13.0962 162.71 13.9826 161.886 14.711L163.211 16.209C164.468 15.0974 165.109 13.6638 165.109 11.98H163.109ZM161.887 14.7102C161.119 15.3877 159.887 15.81 158.019 15.81V17.81C160.15 17.81 161.938 17.3323 163.211 16.2098L161.887 14.7102ZM157.989 17.21C158.528 17.21 159.05 17.098 159.518 16.8317C159.99 16.5635 160.349 16.1708 160.607 15.6989L158.851 14.7411C158.748 14.9292 158.638 15.0315 158.529 15.0933C158.417 15.157 158.25 15.21 157.989 15.21V17.21ZM160.596 15.719C161.114 14.8177 161.299 13.4899 161.299 11.92H159.299C159.299 13.4301 159.103 14.3023 158.862 14.721L160.596 15.719ZM161.299 11.92C161.299 10.3599 161.118 9.03229 160.582 8.15744L158.876 9.20256C159.1 9.56771 159.299 10.4001 159.299 11.92H161.299ZM160.6 8.18974C160.056 7.22144 159.155 6.72 158.049 6.72V8.72C158.463 8.72 158.682 8.85856 158.857 9.17026L160.6 8.18974ZM158.049 6.72C156.939 6.72 156.054 7.25222 155.502 8.21103L157.236 9.20896C157.443 8.84778 157.679 8.72 158.049 8.72V6.72ZM155.509 8.19946C154.982 9.08746 154.799 10.4148 154.799 11.98H156.799C156.799 10.4652 156.996 9.61254 157.229 9.22054L155.509 8.19946ZM154.799 11.98C154.799 13.5388 154.962 14.8458 155.426 15.7192L157.192 14.7808C156.976 14.3742 156.799 13.5012 156.799 11.98H154.799ZM155.437 15.7403C155.982 16.7086 156.883 17.21 157.989 17.21V15.21C157.575 15.21 157.356 15.0714 157.18 14.7597L155.437 15.7403ZM152.519 24.52C152.519 25.9133 152.954 27.1206 153.959 27.9582L155.239 26.4218C154.804 26.0594 154.519 25.4867 154.519 24.52H152.519ZM153.969 27.9668C154.971 28.7795 156.409 29.09 158.079 29.09V27.09C156.589 27.09 155.706 26.8005 155.229 26.4132L153.969 27.9668ZM158.079 29.09C159.817 29.09 161.294 28.8128 162.37 28.1212L161.288 26.4388C160.684 26.8272 159.661 27.09 158.079 27.09V29.09ZM162.37 28.1212C163.489 27.4014 164.089 26.328 164.089 25H162.089C162.089 25.632 161.849 26.0786 161.288 26.4388L162.37 28.1212ZM164.089 25C164.089 24.1509 163.752 23.4105 163.088 22.8728L161.83 24.4272C162.005 24.5695 162.089 24.7291 162.089 25H164.089ZM163.107 22.8881C162.5 22.3721 161.592 22.0743 160.57 21.8865L160.208 23.8535C161.145 24.0257 161.618 24.2479 161.811 24.4119L163.107 22.8881ZM160.574 21.8872L155.144 20.8672L154.774 22.8328L160.204 23.8528L160.574 21.8872ZM155.201 20.8799C155.041 20.8399 154.881 20.7999 154.721 20.7599L154.236 22.7001C154.396 22.7401 154.556 22.7801 154.716 22.8201L155.201 20.8799ZM153.66 21.1565C153.325 21.6351 153.055 22.1653 152.848 22.7413L154.73 23.4187C154.882 22.9947 155.073 22.6249 155.298 22.3035L153.66 21.1565ZM152.844 22.7529C152.636 23.3528 152.519 23.9448 152.519 24.52H154.519C154.519 24.2152 154.582 23.8472 154.734 23.4071L152.844 22.7529ZM167.416 22H166.416V23H167.416V22ZM167.416 21.7L167.142 20.7385L166.416 20.9457V21.7H167.416ZM167.836 21.58L167.562 20.6185L167.836 21.58ZM168.676 9.76L167.833 10.2969L167.845 10.3154L167.857 10.3335L168.676 9.76ZM167.866 9.31L167.609 10.2762L167.639 10.2844L167.67 10.2906L167.866 9.31ZM167.416 9.19H166.416V9.95828L167.159 10.1562L167.416 9.19ZM167.416 8.89L167.095 7.94299L166.416 8.17323V8.89H167.416ZM172.546 7.15L173.254 6.44289L172.814 6.00331L172.225 6.20299L172.546 7.15ZM172.846 7.45L173.838 7.31784L173.793 6.98227L173.554 6.74289L172.846 7.45ZM173.086 9.25L172.095 9.38216L172.343 11.2439L173.749 9.99859L173.086 9.25ZM175.456 7.72L175.87 8.63037L175.456 7.72ZM181.096 8.2L180.379 8.89715L180.389 8.90711L181.096 8.2ZM183.316 21.61L183.633 20.6613L183.602 20.6511L183.571 20.6429L183.316 21.61ZM183.586 21.7H184.586V20.9792L183.903 20.7513L183.586 21.7ZM183.586 22V23H184.586V22H183.586ZM176.506 22H175.506V23H176.506V22ZM176.506 21.7L176.212 20.7442L175.506 20.9614V21.7H176.506ZM176.896 21.58L177.19 22.5358L177.196 22.534L176.896 21.58ZM173.146 9.94L172.5 9.17661L172.146 9.4762V9.94H173.146ZM174.196 21.61L174.513 20.6613L174.492 20.6544L174.471 20.6485L174.196 21.61ZM174.466 21.7H175.466V20.9792L174.783 20.7513L174.466 21.7ZM174.466 22V23H175.466V22H174.466ZM168.416 22V21.7H166.416V22H168.416ZM167.691 22.6615L168.111 22.5415L167.562 20.6185L167.142 20.7385L167.691 22.6615ZM168.111 22.5415C168.632 22.3928 169.105 22.109 169.438 21.6437C169.765 21.1852 169.886 20.647 169.886 20.11H167.886C167.886 20.353 167.833 20.4498 167.81 20.4813C167.792 20.506 167.741 20.5672 167.562 20.6185L168.111 22.5415ZM169.886 20.11V10.72H167.886V20.11H169.886ZM169.886 10.72C169.886 10.2184 169.815 9.64286 169.496 9.18654L167.857 10.3335C167.83 10.295 167.841 10.2912 167.857 10.3637C167.872 10.4343 167.886 10.5491 167.886 10.72H169.886ZM169.52 9.22312C169.169 8.67135 168.582 8.43338 168.063 8.32942L167.67 10.2906C167.799 10.3164 167.862 10.3451 167.883 10.3567C167.9 10.3657 167.867 10.3512 167.833 10.2969L169.52 9.22312ZM168.124 8.34377L167.674 8.22376L167.159 10.1562L167.609 10.2762L168.124 8.34377ZM168.416 9.19V8.89H166.416V9.19H168.416ZM167.738 9.83701L172.868 8.09701L172.225 6.20299L167.095 7.94299L167.738 9.83701ZM171.839 7.85711L172.139 8.1571L173.554 6.74289L173.254 6.44289L171.839 7.85711ZM171.855 7.58216L172.095 9.38216L174.078 9.11784L173.838 7.31784L171.855 7.58216ZM173.749 9.99859C174.372 9.44683 175.078 8.99055 175.87 8.63037L175.043 6.80963C174.075 7.24944 173.2 7.81317 172.423 8.50141L173.749 9.99859ZM175.87 8.63037C176.636 8.28209 177.366 8.12 178.066 8.12V6.12C177.047 6.12 176.036 6.35791 175.043 6.80963L175.87 8.63037ZM178.066 8.12C179.205 8.12 179.922 8.42618 180.379 8.89708L181.813 7.50292C180.871 6.53382 179.568 6.12 178.066 6.12V8.12ZM180.389 8.90711C180.851 9.36886 181.176 10.1649 181.176 11.5H183.176C183.176 9.87512 182.782 8.47114 181.804 7.49289L180.389 8.90711ZM181.176 11.5V20.14H183.176V11.5H181.176ZM181.176 20.14C181.176 20.6937 181.313 21.244 181.671 21.7053C182.028 22.1659 182.527 22.4363 183.062 22.5771L183.571 20.6429C183.346 20.5837 183.274 20.5091 183.252 20.4797C183.229 20.451 183.176 20.3663 183.176 20.14H181.176ZM183 22.5587L183.27 22.6487L183.903 20.7513L183.633 20.6613L183 22.5587ZM182.586 21.7V22H184.586V21.7H182.586ZM183.586 21H176.506V23H183.586V21ZM177.506 22V21.7H175.506V22H177.506ZM176.8 22.6558L177.19 22.5358L176.602 20.6242L176.212 20.7442L176.8 22.6558ZM177.196 22.534C177.707 22.3734 178.171 22.0864 178.498 21.6287C178.822 21.1743 178.946 20.6435 178.946 20.11H176.946C176.946 20.3365 176.896 20.4307 176.87 20.4663C176.847 20.4986 176.786 20.5666 176.597 20.626L177.196 22.534ZM178.946 20.11V10.54H176.946V20.11H178.946ZM178.946 10.54C178.946 9.74586 178.747 8.96657 178.174 8.39289C177.6 7.81921 176.821 7.62 176.026 7.62V9.62C176.512 9.62 176.693 9.74079 176.759 9.80711C176.826 9.87343 176.946 10.0541 176.946 10.54H178.946ZM176.026 7.62C174.81 7.62 173.627 8.22362 172.5 9.17661L173.792 10.7034C174.746 9.89638 175.482 9.62 176.026 9.62V7.62ZM172.146 9.94V20.14H174.146V9.94H172.146ZM172.146 20.14C172.146 20.677 172.268 21.2152 172.595 21.6737C172.927 22.139 173.401 22.4228 173.922 22.5715L174.471 20.6485C174.292 20.5972 174.24 20.536 174.223 20.5113C174.2 20.4798 174.146 20.383 174.146 20.14H172.146ZM173.88 22.5587L174.15 22.6487L174.783 20.7513L174.513 20.6613L173.88 22.5587ZM173.466 21.7V22H175.466V21.7H173.466ZM174.466 21H167.416V23H174.466V21Z" fill="black" fill-opacity="0.1"/>
  </svg>
</svg>