<svg width="22" height="22" viewBox="0 0 22 22" fill="none" xmlns="http://www.w3.org/2000/svg">
<path d="M1 7.71287C1 7.34411 1 7.15973 1.01462 7.00443C1.1556 5.5066 2.28127 4.32169 3.70421 4.17328C3.85174 4.15789 4.03636 4.15789 4.40558 4.15789C4.54785 4.15789 4.61899 4.15789 4.67939 4.15404C5.45061 4.10488 6.12595 3.5925 6.41414 2.83789C6.43671 2.7788 6.45781 2.71218 6.5 2.57895C6.54219 2.44571 6.56329 2.3791 6.58586 2.32C6.87405 1.56539 7.54939 1.05302 8.32061 1.00385C8.38101 1 8.44772 1 8.58114 1H13.4189C13.5523 1 13.619 1 13.6794 1.00385C14.4506 1.05302 15.126 1.56539 15.4141 2.32C15.4367 2.3791 15.4578 2.44571 15.5 2.57895C15.5422 2.71218 15.5633 2.7788 15.5859 2.83789C15.874 3.5925 16.5494 4.10488 17.3206 4.15404C17.381 4.15789 17.4521 4.15789 17.5944 4.15789C17.9636 4.15789 18.1483 4.15789 18.2958 4.17328C19.7187 4.32169 20.8444 5.5066 20.9854 7.00443C21 7.15973 21 7.34411 21 7.71287V15.9474C21 17.716 21 18.6002 20.673 19.2758C20.3854 19.87 19.9265 20.3531 19.362 20.6558C18.7202 21 17.8802 21 16.2 21H5.8C4.11984 21 3.27976 21 2.63803 20.6558C2.07354 20.3531 1.6146 19.87 1.32698 19.2758C1 18.6002 1 17.716 1 15.9474V7.71287Z" stroke="black" stroke-width="2" stroke-linecap="round" stroke-linejoin="round"/>
<path d="M11 16.2632C13.2091 16.2632 15 14.378 15 12.0526C15 9.72722 13.2091 7.84211 11 7.84211C8.79086 7.84211 7 9.72722 7 12.0526C7 14.378 8.79086 16.2632 11 16.2632Z" stroke="black" stroke-width="2" stroke-linecap="round" stroke-linejoin="round"/>
</svg>
