<svg width="176" height="167" viewBox="0 0 176 167" fill="none" xmlns="http://www.w3.org/2000/svg">
    <svg width="100%" height="100%" viewBox="0 0 176 167" fill="none" xmlns="http://www.w3.org/2000/svg">
        <rect x="4" width="168" height="159" rx="10" fill="#90CAED"/>
    </svg>
    <svg x="74" y="50" width="28" height="28" viewBox="0 0 28 28" fill="none" xmlns="http://www.w3.org/2000/svg">
        <rect width="28" height="28" fill="#90CAED"/>
        <path d="M12.8333 4.66677H7.93333C5.97314 4.66677 4.99305 4.66677 4.24436 5.04825C3.58579 5.3838 3.05036 5.91924 2.71481 6.5778C2.33333 7.32649 2.33333 8.30659 2.33333 10.2668V20.0668C2.33333 22.027 2.33333 23.007 2.71481 23.7557C3.05036 24.4143 3.58579 24.9497 4.24436 25.2853C4.99305 25.6668 5.97314 25.6668 7.93333 25.6668H17.7333C19.6935 25.6668 20.6736 25.6668 21.4223 25.2853C22.0809 24.9497 22.6163 24.4143 22.9519 23.7557C23.3333 23.007 23.3333 22.027 23.3333 20.0668V15.1668M9.3333 18.6668H11.2869C11.8576 18.6668 12.143 18.6668 12.4115 18.6023C12.6496 18.5451 12.8772 18.4509 13.086 18.3229C13.3215 18.1786 13.5232 17.9769 13.9268 17.5733L25.0833 6.41677C26.0498 5.45027 26.0498 3.88327 25.0833 2.91677C24.1168 1.95027 22.5498 1.95027 21.5833 2.91677L10.4268 14.0733C10.0232 14.4769 9.82144 14.6786 9.67714 14.9141C9.5492 15.1229 9.45493 15.3505 9.39777 15.5886C9.3333 15.8571 9.3333 16.1425 9.3333 16.7132V18.6668Z" stroke="black" stroke-width="2" stroke-linecap="round" stroke-linejoin="round"/>
    </svg>
    <svg x="26" y="78" width="116" height="40" viewBox="0 0 116 40" fill="none" xmlns="http://www.w3.org/2000/svg">
        <path d="M5.45141 2.98C6.17141 2.98 6.79807 3.09333 7.33141 3.32C7.86474 3.53333 8.39141 3.87333 8.91141 4.34L7.95141 5.46C7.56474 5.12667 7.17807 4.88 6.79141 4.72C6.41807 4.56 6.00474 4.48 5.55141 4.48C4.51141 4.48 3.68474 4.92667 3.07141 5.82C2.45807 6.7 2.15141 8.12667 2.15141 10.1C2.15141 12.02 2.45807 13.44 3.07141 14.36C3.68474 15.2667 4.51141 15.72 5.55141 15.72C6.07141 15.72 6.51807 15.6267 6.89141 15.44C7.26474 15.2533 7.67141 14.98 8.11141 14.62L9.05141 15.72C8.05141 16.7467 6.85141 17.26 5.45141 17.26C4.42474 17.26 3.51141 16.9933 2.71141 16.46C1.92474 15.9267 1.30474 15.1267 0.851406 14.06C0.411406 12.98 0.191406 11.66 0.191406 10.1C0.191406 8.55333 0.418073 7.24667 0.871406 6.18C1.33807 5.11333 1.96474 4.31333 2.75141 3.78C3.55141 3.24667 4.45141 2.98 5.45141 2.98ZM14.9947 6.24C15.3414 6.24 15.6414 6.28 15.8947 6.36L15.5947 8.1C15.3414 8.02 15.068 7.98 14.7747 7.98C14.188 7.98 13.708 8.21333 13.3347 8.68C12.9747 9.14667 12.688 9.86 12.4747 10.82V17H10.6747V6.48H12.2347L12.3747 8.56C12.8947 7.01333 13.768 6.24 14.9947 6.24ZM24.4609 11.42C24.4609 11.7 24.4476 12.0133 24.4209 12.36H18.3009C18.3543 13.5867 18.6009 14.4733 19.0409 15.02C19.4809 15.5533 20.0809 15.82 20.8409 15.82C21.3209 15.82 21.7476 15.7467 22.1209 15.6C22.5076 15.4533 22.9076 15.2133 23.3209 14.88L24.1209 15.94C23.1343 16.82 22.0143 17.26 20.7609 17.26C19.3876 17.26 18.3209 16.7867 17.5609 15.84C16.8143 14.88 16.4409 13.54 16.4409 11.82C16.4409 10.1 16.8009 8.74 17.5209 7.74C18.2409 6.72667 19.2409 6.22 20.5209 6.22C21.7876 6.22 22.7609 6.67333 23.4409 7.58C24.1209 8.47333 24.4609 9.75333 24.4609 11.42ZM22.7209 10.88C22.7209 8.68 21.9943 7.58 20.5409 7.58C19.8743 7.58 19.3476 7.86 18.9609 8.42C18.5743 8.96667 18.3543 9.86 18.3009 11.1H22.7209V10.88ZM33.348 14.6C33.348 15.0267 33.408 15.3467 33.528 15.56C33.648 15.76 33.8346 15.9133 34.088 16.02L33.708 17.24C33.188 17.16 32.7813 17 32.488 16.76C32.1946 16.52 31.988 16.1533 31.868 15.66C31.188 16.7267 30.2346 17.26 29.008 17.26C28.0746 17.26 27.3346 16.9733 26.788 16.4C26.2413 15.8133 25.968 15.0333 25.968 14.06C25.968 12.94 26.3346 12.0867 27.068 11.5C27.8013 10.9133 28.848 10.62 30.208 10.62H31.568V9.72C31.568 8.98667 31.4146 8.46 31.108 8.14C30.8146 7.80667 30.328 7.64 29.648 7.64C28.9146 7.64 28.0613 7.82667 27.088 8.2L26.648 6.94C27.8213 6.46 28.9146 6.22 29.928 6.22C32.208 6.22 33.348 7.36 33.348 9.64V14.6ZM29.428 15.9C30.3613 15.9 31.0746 15.3533 31.568 14.26V11.78H30.408C28.6746 11.78 27.808 12.5067 27.808 13.96C27.808 14.5867 27.948 15.0667 28.228 15.4C28.508 15.7333 28.908 15.9 29.428 15.9ZM41.5727 16.54C40.906 17.02 40.166 17.26 39.3527 17.26C38.4993 17.26 37.8393 17.0133 37.3727 16.52C36.9193 16.0267 36.6927 15.3333 36.6927 14.44V7.84H35.1927V6.48H36.6927V4.06L38.4927 3.84V6.48H40.8127L40.6127 7.84H38.4927V14.42C38.4927 15.3267 38.8727 15.78 39.6327 15.78C39.8593 15.78 40.066 15.7467 40.2527 15.68C40.4527 15.6133 40.6727 15.5133 40.9127 15.38L41.5727 16.54ZM50.2227 11.42C50.2227 11.7 50.2093 12.0133 50.1827 12.36H44.0627C44.116 13.5867 44.3627 14.4733 44.8027 15.02C45.2427 15.5533 45.8427 15.82 46.6027 15.82C47.0827 15.82 47.5093 15.7467 47.8827 15.6C48.2693 15.4533 48.6693 15.2133 49.0827 14.88L49.8827 15.94C48.896 16.82 47.776 17.26 46.5227 17.26C45.1493 17.26 44.0827 16.7867 43.3227 15.84C42.576 14.88 42.2027 13.54 42.2027 11.82C42.2027 10.1 42.5627 8.74 43.2827 7.74C44.0027 6.72667 45.0027 6.22 46.2827 6.22C47.5493 6.22 48.5227 6.67333 49.2027 7.58C49.8827 8.47333 50.2227 9.75333 50.2227 11.42ZM48.4827 10.88C48.4827 8.68 47.756 7.58 46.3027 7.58C45.636 7.58 45.1093 7.86 44.7227 8.42C44.336 8.96667 44.116 9.86 44.0627 11.1H48.4827V10.88ZM57.1455 0.859999L58.6655 1.2L54.4255 19.06L52.9055 18.72L57.1455 0.859999ZM69.0009 3.24L68.7809 4.68H64.0209V9.22H68.1609V10.66H64.0209V15.54H69.0609V17H62.1609V3.24H69.0009ZM78.5453 2.22V17H76.9453L76.8253 15.62C76.1453 16.7133 75.232 17.26 74.0853 17.26C72.9386 17.26 72.0453 16.7733 71.4053 15.8C70.7786 14.8267 70.4653 13.4867 70.4653 11.78C70.4653 10.6733 70.6186 9.7 70.9253 8.86C71.2453 8.02 71.692 7.37333 72.2653 6.92C72.8386 6.45333 73.4986 6.22 74.2453 6.22C75.2453 6.22 76.0786 6.64 76.7453 7.48V2.02L78.5453 2.22ZM74.5053 15.84C74.9853 15.84 75.3986 15.7067 75.7453 15.44C76.1053 15.1733 76.4386 14.78 76.7453 14.26V8.98C76.1453 8.08667 75.4453 7.64 74.6453 7.64C73.9386 7.64 73.3786 7.98 72.9653 8.66C72.552 9.34 72.352 10.3667 72.3653 11.74C72.3653 13.14 72.552 14.1733 72.9253 14.84C73.2986 15.5067 73.8253 15.84 74.5053 15.84ZM83.588 6.48V17H81.788V6.48H83.588ZM82.688 1.52C83.0346 1.52 83.3146 1.63333 83.528 1.86C83.7546 2.08667 83.868 2.36667 83.868 2.7C83.868 3.03333 83.7613 3.31333 83.548 3.54C83.3346 3.75333 83.048 3.86 82.688 3.86C82.3413 3.86 82.0546 3.75333 81.828 3.54C81.6146 3.31333 81.508 3.03333 81.508 2.7C81.508 2.36667 81.6146 2.08667 81.828 1.86C82.0546 1.63333 82.3413 1.52 82.688 1.52ZM91.807 16.54C91.1404 17.02 90.4004 17.26 89.587 17.26C88.7337 17.26 88.0737 17.0133 87.607 16.52C87.1537 16.0267 86.927 15.3333 86.927 14.44V7.84H85.427V6.48H86.927V4.06L88.727 3.84V6.48H91.047L90.847 7.84H88.727V14.42C88.727 15.3267 89.107 15.78 89.867 15.78C90.0937 15.78 90.3004 15.7467 90.487 15.68C90.687 15.6133 90.907 15.5133 91.147 15.38L91.807 16.54ZM104.637 14.6C104.637 15.0267 104.697 15.3467 104.817 15.56C104.937 15.76 105.124 15.9133 105.377 16.02L104.997 17.24C104.477 17.16 104.07 17 103.777 16.76C103.484 16.52 103.277 16.1533 103.157 15.66C102.477 16.7267 101.524 17.26 100.297 17.26C99.3637 17.26 98.6237 16.9733 98.077 16.4C97.5304 15.8133 97.257 15.0333 97.257 14.06C97.257 12.94 97.6237 12.0867 98.357 11.5C99.0904 10.9133 100.137 10.62 101.497 10.62H102.857V9.72C102.857 8.98667 102.704 8.46 102.397 8.14C102.104 7.80667 101.617 7.64 100.937 7.64C100.204 7.64 99.3504 7.82667 98.377 8.2L97.937 6.94C99.1104 6.46 100.204 6.22 101.217 6.22C103.497 6.22 104.637 7.36 104.637 9.64V14.6ZM100.717 15.9C101.65 15.9 102.364 15.3533 102.857 14.26V11.78H101.697C99.9637 11.78 99.097 12.5067 99.097 13.96C99.097 14.5867 99.237 15.0667 99.517 15.4C99.797 15.7333 100.197 15.9 100.717 15.9ZM112.582 6.22C113.422 6.22 114.075 6.5 114.542 7.06C115.022 7.60667 115.262 8.36667 115.262 9.34V17H113.462V9.56C113.462 8.88 113.348 8.39333 113.122 8.1C112.895 7.79333 112.548 7.64 112.082 7.64C111.202 7.64 110.402 8.26667 109.682 9.52V17H107.882V6.48H109.442L109.582 8.04C110.395 6.82667 111.395 6.22 112.582 6.22ZM44.1474 25.24L43.9274 26.68H39.1674V31.22H43.3074V32.66H39.1674V37.54H44.2074V39H37.3074V25.24H44.1474ZM53.3118 28.48L50.1718 39H48.0118L44.7718 28.48H46.6518L49.0918 37.48L51.5118 28.48H53.3118ZM62.4199 33.42C62.4199 33.7 62.4066 34.0133 62.3799 34.36H56.2599C56.3133 35.5867 56.5599 36.4733 56.9999 37.02C57.4399 37.5533 58.0399 37.82 58.7999 37.82C59.2799 37.82 59.7066 37.7467 60.0799 37.6C60.4666 37.4533 60.8666 37.2133 61.2799 36.88L62.0799 37.94C61.0933 38.82 59.9733 39.26 58.7199 39.26C57.3466 39.26 56.2799 38.7867 55.5199 37.84C54.7733 36.88 54.3999 35.54 54.3999 33.82C54.3999 32.1 54.7599 30.74 55.4799 29.74C56.1999 28.7267 57.1999 28.22 58.4799 28.22C59.7466 28.22 60.7199 28.6733 61.3999 29.58C62.0799 30.4733 62.4199 31.7533 62.4199 33.42ZM60.6799 32.88C60.6799 30.68 59.9533 29.58 58.4999 29.58C57.8333 29.58 57.3066 29.86 56.9199 30.42C56.5333 30.9667 56.3133 31.86 56.2599 33.1H60.6799V32.88ZM69.6227 28.22C70.4627 28.22 71.1161 28.5 71.5827 29.06C72.0627 29.6067 72.3027 30.3667 72.3027 31.34V39H70.5027V31.56C70.5027 30.88 70.3894 30.3933 70.1627 30.1C69.9361 29.7933 69.5894 29.64 69.1227 29.64C68.2427 29.64 67.4427 30.2667 66.7227 31.52V39H64.9227V28.48H66.4827L66.6227 30.04C67.4361 28.8267 68.4361 28.22 69.6227 28.22ZM80.4496 38.54C79.7829 39.02 79.0429 39.26 78.2296 39.26C77.3763 39.26 76.7163 39.0133 76.2496 38.52C75.7963 38.0267 75.5696 37.3333 75.5696 36.44V29.84H74.0696V28.48H75.5696V26.06L77.3696 25.84V28.48H79.6896L79.4896 29.84H77.3696V36.42C77.3696 37.3267 77.7496 37.78 78.5096 37.78C78.7363 37.78 78.9429 37.7467 79.1296 37.68C79.3296 37.6133 79.5496 37.5133 79.7896 37.38L80.4496 38.54Z" fill="black"/>
    </svg>
</svg>
