<svg width="175" height="159" viewBox="0 0 175 159" fill="none" xmlns="http://www.w3.org/2000/svg">
<rect width="175" height="159" fill="#D0D5DD"/>
<g clip-path="url(#clip0_0_1)">
<rect width="390" height="844" transform="translate(-200 -342)" fill="#143959"/>
<rect width="175" height="159" rx="10" fill="#3C8F7D"/>
<path d="M47.1511 82.88C47.9111 82.88 48.5778 83 49.1511 83.24C49.7378 83.48 50.3111 83.84 50.8711 84.32L49.5911 85.82C48.8444 85.1933 48.0778 84.88 47.2911 84.88C46.3844 84.88 45.6711 85.2867 45.1511 86.1C44.6311 86.9133 44.3711 88.2333 44.3711 90.06C44.3711 91.8467 44.6311 93.1533 45.1511 93.98C45.6711 94.8067 46.3911 95.22 47.3111 95.22C47.7911 95.22 48.2111 95.1333 48.5711 94.96C48.9311 94.7733 49.3311 94.5067 49.7711 94.16L51.0111 95.64C50.5444 96.12 49.9911 96.52 49.3511 96.84C48.7111 97.1467 47.9911 97.3 47.1911 97.3C46.0844 97.3 45.1111 97.0333 44.2711 96.5C43.4444 95.9533 42.7978 95.14 42.3311 94.06C41.8778 92.9667 41.6511 91.6333 41.6511 90.06C41.6511 88.5133 41.8911 87.2 42.3711 86.12C42.8511 85.04 43.5044 84.2333 44.3311 83.7C45.1578 83.1533 46.0978 82.88 47.1511 82.88ZM57.1692 86.14C57.4492 86.14 57.7626 86.1867 58.1092 86.28L57.6892 88.7C57.4092 88.62 57.1292 88.58 56.8492 88.58C56.2892 88.58 55.8426 88.8 55.5092 89.24C55.1892 89.68 54.9426 90.3467 54.7692 91.24V97H52.2692V86.42H54.4492L54.6492 88.38C54.9026 87.6467 55.2426 87.0933 55.6692 86.72C56.0959 86.3333 56.5959 86.14 57.1692 86.14ZM66.9303 91.46C66.9303 91.58 66.9103 91.92 66.8703 92.48H60.8903C60.9703 93.5467 61.197 94.3 61.5703 94.74C61.9436 95.18 62.4636 95.4 63.1303 95.4C63.557 95.4 63.957 95.3267 64.3303 95.18C64.7036 95.0333 65.1036 94.8067 65.5303 94.5L66.5703 95.92C65.517 96.84 64.3103 97.3 62.9503 97.3C61.4703 97.3 60.3303 96.8133 59.5303 95.84C58.7303 94.8667 58.3303 93.5133 58.3303 91.78C58.3303 90.0733 58.7103 88.7067 59.4703 87.68C60.2436 86.64 61.317 86.12 62.6903 86.12C64.0236 86.12 65.0636 86.58 65.8103 87.5C66.557 88.42 66.9303 89.74 66.9303 91.46ZM64.4703 90.74C64.4703 89.78 64.3303 89.0667 64.0503 88.6C63.7703 88.12 63.3236 87.88 62.7103 87.88C62.1503 87.88 61.717 88.1133 61.4103 88.58C61.117 89.0333 60.9436 89.7933 60.8903 90.86H64.4703V90.74ZM75.9741 94.34C75.9741 94.7133 76.0274 94.9933 76.1341 95.18C76.2407 95.3533 76.4141 95.4933 76.6541 95.6L76.1341 97.26C75.5607 97.1933 75.0941 97.0467 74.7341 96.82C74.3874 96.5933 74.1274 96.24 73.9541 95.76C73.3007 96.7867 72.3541 97.3 71.1141 97.3C70.1674 97.3 69.4141 97 68.8541 96.4C68.2941 95.8 68.0141 95.0133 68.0141 94.04C68.0141 92.8933 68.3941 92.02 69.1541 91.42C69.9141 90.8067 71.0141 90.5 72.4541 90.5H73.5141V89.84C73.5141 89.1733 73.3807 88.7 73.1141 88.42C72.8474 88.14 72.4141 88 71.8141 88C71.1207 88 70.2674 88.18 69.2541 88.54L68.6741 86.88C69.8874 86.3733 71.0674 86.12 72.2141 86.12C74.7207 86.12 75.9741 87.3133 75.9741 89.7V94.34ZM71.7941 95.48C72.5274 95.48 73.1007 95.0467 73.5141 94.18V91.98H72.7141C71.2474 91.98 70.5141 92.6067 70.5141 93.86C70.5141 94.3933 70.6274 94.8 70.8541 95.08C71.0807 95.3467 71.3941 95.48 71.7941 95.48ZM84.2764 96.5C83.9297 96.7667 83.5431 96.9667 83.1164 97.1C82.7031 97.2333 82.2764 97.3 81.8364 97.3C80.8631 97.3 80.1164 97.02 79.5964 96.46C79.0897 95.9 78.8364 95.12 78.8364 94.12V88.22H77.4164V86.42H78.8364V84.08L81.3364 83.78V86.42H83.5564L83.2964 88.22H81.3364V94.1C81.3364 94.5 81.4097 94.8 81.5564 95C81.7164 95.1867 81.9631 95.28 82.2964 95.28C82.6564 95.28 83.0231 95.1667 83.3964 94.94L84.2764 96.5ZM93.1803 91.46C93.1803 91.58 93.1603 91.92 93.1203 92.48H87.1403C87.2203 93.5467 87.447 94.3 87.8203 94.74C88.1936 95.18 88.7136 95.4 89.3803 95.4C89.807 95.4 90.207 95.3267 90.5803 95.18C90.9536 95.0333 91.3536 94.8067 91.7803 94.5L92.8203 95.92C91.767 96.84 90.5603 97.3 89.2003 97.3C87.7203 97.3 86.5803 96.8133 85.7803 95.84C84.9803 94.8667 84.5803 93.5133 84.5803 91.78C84.5803 90.0733 84.9603 88.7067 85.7203 87.68C86.4936 86.64 87.567 86.12 88.9403 86.12C90.2736 86.12 91.3136 86.58 92.0603 87.5C92.807 88.42 93.1803 89.74 93.1803 91.46ZM90.7203 90.74C90.7203 89.78 90.5803 89.0667 90.3003 88.6C90.0203 88.12 89.5736 87.88 88.9603 87.88C88.4003 87.88 87.967 88.1133 87.6603 88.58C87.367 89.0333 87.1936 89.7933 87.1403 90.86H90.7203V90.74ZM99.5998 80.76L101.72 81.24L97.4598 99.16L95.3198 98.68L99.5998 80.76ZM111.955 83.18L111.675 85.1H107.175V89.02H111.115V90.92H107.175V95.06H111.995V97H104.575V83.18H111.955ZM121.836 82.18V97H119.616L119.476 95.72C118.783 96.7733 117.883 97.3 116.776 97.3C115.603 97.3 114.703 96.8067 114.076 95.82C113.45 94.8333 113.136 93.4667 113.136 91.72C113.136 90.6133 113.296 89.64 113.616 88.8C113.936 87.9467 114.383 87.2867 114.956 86.82C115.543 86.3533 116.216 86.12 116.976 86.12C117.91 86.12 118.696 86.4933 119.336 87.24V81.92L121.836 82.18ZM117.476 95.42C117.863 95.42 118.203 95.3133 118.496 95.1C118.79 94.8733 119.07 94.54 119.336 94.1V89.12C119.083 88.7467 118.816 88.4667 118.536 88.28C118.27 88.0933 117.963 88 117.616 88C117.03 88 116.57 88.3 116.236 88.9C115.903 89.4867 115.736 90.42 115.736 91.7C115.736 93.02 115.883 93.9733 116.176 94.56C116.483 95.1333 116.916 95.42 117.476 95.42ZM126.976 86.42V97H124.476V86.42H126.976ZM125.736 81.1C126.19 81.1 126.556 81.2467 126.836 81.54C127.13 81.82 127.276 82.18 127.276 82.62C127.276 83.06 127.13 83.4267 126.836 83.72C126.556 84 126.19 84.14 125.736 84.14C125.283 84.14 124.91 84 124.616 83.72C124.336 83.4267 124.196 83.06 124.196 82.62C124.196 82.18 124.336 81.82 124.616 81.54C124.91 81.2467 125.283 81.1 125.736 81.1ZM135.253 96.5C134.906 96.7667 134.52 96.9667 134.093 97.1C133.68 97.2333 133.253 97.3 132.813 97.3C131.84 97.3 131.093 97.02 130.573 96.46C130.066 95.9 129.813 95.12 129.813 94.12V88.22H128.393V86.42H129.813V84.08L132.313 83.78V86.42H134.533L134.273 88.22H132.313V94.1C132.313 94.5 132.386 94.8 132.533 95C132.693 95.1867 132.94 95.28 133.273 95.28C133.633 95.28 134 95.1667 134.373 94.94L135.253 96.5ZM67.636 117.2C67.636 117.52 67.681 117.76 67.771 117.92C67.861 118.07 68.001 118.185 68.191 118.265L67.906 119.18C67.516 119.12 67.211 119 66.991 118.82C66.771 118.64 66.616 118.365 66.526 117.995C66.016 118.795 65.301 119.195 64.381 119.195C63.681 119.195 63.126 118.98 62.716 118.55C62.306 118.11 62.101 117.525 62.101 116.795C62.101 115.955 62.376 115.315 62.926 114.875C63.476 114.435 64.261 114.215 65.281 114.215H66.301V113.54C66.301 112.99 66.186 112.595 65.956 112.355C65.736 112.105 65.371 111.98 64.861 111.98C64.311 111.98 63.671 112.12 62.941 112.4L62.611 111.455C63.491 111.095 64.311 110.915 65.071 110.915C66.781 110.915 67.636 111.77 67.636 113.48V117.2ZM64.696 118.175C65.396 118.175 65.931 117.765 66.301 116.945V115.085H65.431C64.131 115.085 63.481 115.63 63.481 116.72C63.481 117.19 63.586 117.55 63.796 117.8C64.006 118.05 64.306 118.175 64.696 118.175ZM73.5945 110.915C74.2245 110.915 74.7145 111.125 75.0645 111.545C75.4245 111.955 75.6045 112.525 75.6045 113.255V119H74.2545V113.42C74.2545 112.91 74.1695 112.545 73.9995 112.325C73.8295 112.095 73.5695 111.98 73.2195 111.98C72.5595 111.98 71.9595 112.45 71.4195 113.39V119H70.0695V111.11H71.2395L71.3445 112.28C71.9545 111.37 72.7045 110.915 73.5945 110.915ZM87.0449 114.815C87.0449 115.025 87.0349 115.26 87.0149 115.52H82.4249C82.4649 116.44 82.6499 117.105 82.9799 117.515C83.3099 117.915 83.7599 118.115 84.3299 118.115C84.6899 118.115 85.0099 118.06 85.2899 117.95C85.5799 117.84 85.8799 117.66 86.1899 117.41L86.7899 118.205C86.0499 118.865 85.2099 119.195 84.2699 119.195C83.2399 119.195 82.4399 118.84 81.8699 118.13C81.3099 117.41 81.0299 116.405 81.0299 115.115C81.0299 113.825 81.2999 112.805 81.8399 112.055C82.3799 111.295 83.1299 110.915 84.0899 110.915C85.0399 110.915 85.7699 111.255 86.2799 111.935C86.7899 112.605 87.0449 113.565 87.0449 114.815ZM85.7399 114.41C85.7399 112.76 85.1949 111.935 84.1049 111.935C83.6049 111.935 83.2099 112.145 82.9199 112.565C82.6299 112.975 82.4649 113.645 82.4249 114.575H85.7399V114.41ZM94.1884 111.11L91.8334 119H90.2134L87.7834 111.11H89.1934L91.0234 117.86L92.8384 111.11H94.1884ZM101.02 114.815C101.02 115.025 101.01 115.26 100.99 115.52H96.3995C96.4395 116.44 96.6245 117.105 96.9545 117.515C97.2845 117.915 97.7345 118.115 98.3045 118.115C98.6645 118.115 98.9845 118.06 99.2645 117.95C99.5545 117.84 99.8545 117.66 100.165 117.41L100.765 118.205C100.025 118.865 99.1845 119.195 98.2445 119.195C97.2145 119.195 96.4145 118.84 95.8445 118.13C95.2845 117.41 95.0045 116.405 95.0045 115.115C95.0045 113.825 95.2745 112.805 95.8145 112.055C96.3545 111.295 97.1045 110.915 98.0645 110.915C99.0145 110.915 99.7445 111.255 100.255 111.935C100.765 112.605 101.02 113.565 101.02 114.815ZM99.7145 114.41C99.7145 112.76 99.1695 111.935 98.0795 111.935C97.5795 111.935 97.1845 112.145 96.8945 112.565C96.6045 112.975 96.4395 113.645 96.3995 114.575H99.7145V114.41ZM106.422 110.915C107.052 110.915 107.542 111.125 107.892 111.545C108.252 111.955 108.432 112.525 108.432 113.255V119H107.082V113.42C107.082 112.91 106.997 112.545 106.827 112.325C106.657 112.095 106.397 111.98 106.047 111.98C105.387 111.98 104.787 112.45 104.247 113.39V119H102.897V111.11H104.067L104.172 112.28C104.782 111.37 105.532 110.915 106.422 110.915ZM114.542 118.655C114.042 119.015 113.487 119.195 112.877 119.195C112.237 119.195 111.742 119.01 111.392 118.64C111.052 118.27 110.882 117.75 110.882 117.08V112.13H109.757V111.11H110.882V109.295L112.232 109.13V111.11H113.972L113.822 112.13H112.232V117.065C112.232 117.745 112.517 118.085 113.087 118.085C113.257 118.085 113.412 118.06 113.552 118.01C113.702 117.96 113.867 117.885 114.047 117.785L114.542 118.655Z" fill="black"/>
<path d="M91.0037 45.9571L75.9453 61.0155L75.9453 61.0155L75.9346 61.0262L75.9346 61.0262C75.9215 61.0393 75.908 61.0527 75.8942 61.0664C75.7421 61.2176 75.5494 61.4091 75.4126 61.6509C75.2757 61.8926 75.2106 62.1563 75.1592 62.3646C75.1545 62.3835 75.15 62.402 75.1455 62.4199L73.607 68.574C73.6042 68.5852 73.6012 68.5969 73.5982 68.6089C73.5614 68.7553 73.5104 68.9583 73.4928 69.1379C73.4726 69.3446 73.4659 69.7965 73.8347 70.1653L74.5418 69.4582L73.8347 70.1653C74.2035 70.5341 74.6554 70.5274 74.8621 70.5072C75.0418 70.4896 75.2447 70.4386 75.3912 70.4018C75.4032 70.3988 75.4148 70.3958 75.426 70.393L81.5801 68.8545C81.598 68.85 81.6165 68.8455 81.6354 68.8408C81.8437 68.7894 82.1074 68.7243 82.3492 68.5874C82.5909 68.4505 82.7824 68.2579 82.9336 68.1057C82.9474 68.0919 82.9607 68.0785 82.9738 68.0654L98.0429 52.9963L98.0814 52.9579C98.3813 52.6581 98.6728 52.3667 98.8808 52.094C99.1153 51.7866 99.3358 51.3887 99.3358 50.875C99.3358 50.3613 99.1153 49.9634 98.8808 49.656C98.6728 49.3833 98.3813 49.0919 98.0814 48.7921L98.0429 48.7537L95.2463 45.9571L95.2079 45.9186C94.9081 45.6187 94.6167 45.3272 94.344 45.1192C94.0366 44.8847 93.6387 44.6642 93.125 44.6642C92.6113 44.6642 92.2134 44.8847 91.906 45.1192C91.6333 45.3272 91.342 45.6187 91.0422 45.9186L91.0037 45.9571Z" stroke="#33363F" stroke-width="2"/>
<path d="M88.4375 48.0625L94.0625 44.3125L99.6875 49.9375L95.9375 55.5625L88.4375 48.0625Z" fill="#33363F"/>
</g>
<defs>
<clipPath id="clip0_0_1">
<rect width="390" height="844" fill="white" transform="translate(-200 -342)"/>
</clipPath>
</defs>
</svg>
