<?xml version="1.0" encoding="UTF-8"?>
<!DOCTYPE svg PUBLIC "-//W3C//DTD SVG 1.1//EN" "http://www.w3.org/Graphics/SVG/1.1/DTD/svg11.dtd">
<svg xmlns="http://www.w3.org/2000/svg" version="1.1" width="52px" height="48px" style="shape-rendering:geometricPrecision; text-rendering:geometricPrecision; image-rendering:optimizeQuality; fill-rule:evenodd; clip-rule:evenodd" xmlns:xlink="http://www.w3.org/1999/xlink">
<g><path style="opacity:0.079" fill="#000000" d="M 4.5,-0.5 C 5.83333,-0.5 7.16667,-0.5 8.5,-0.5C 6.86569,0.971672 5.36569,2.63834 4,4.5C 3.33333,14.5 3.33333,24.5 4,34.5C 5.16667,36.3333 6.66667,37.8333 8.5,39C 19.8333,39.6667 31.1667,39.6667 42.5,39C 44.3333,37.8333 45.8333,36.3333 47,34.5C 47.6667,24.5 47.6667,14.5 47,4.5C 45.6343,2.63834 44.1343,0.971672 42.5,-0.5C 43.8333,-0.5 45.1667,-0.5 46.5,-0.5C 48.5,0.833333 50.1667,2.5 51.5,4.5C 51.5,17.1667 51.5,29.8333 51.5,42.5C 50.1667,44.5 48.5,46.1667 46.5,47.5C 32.5,47.5 18.5,47.5 4.5,47.5C 2.5,46.1667 0.833333,44.5 -0.5,42.5C -0.5,29.8333 -0.5,17.1667 -0.5,4.5C 0.833333,2.5 2.5,0.833333 4.5,-0.5 Z"/></g>
<g><path style="opacity:0.996" fill="#f6f7f8" d="M 8.5,-0.5 C 19.8333,-0.5 31.1667,-0.5 42.5,-0.5C 44.1343,0.971672 45.6343,2.63834 47,4.5C 47.6667,14.5 47.6667,24.5 47,34.5C 45.8333,36.3333 44.3333,37.8333 42.5,39C 31.1667,39.6667 19.8333,39.6667 8.5,39C 6.66667,37.8333 5.16667,36.3333 4,34.5C 3.33333,24.5 3.33333,14.5 4,4.5C 5.36569,2.63834 6.86569,0.971672 8.5,-0.5 Z"/></g>
<g><path style="opacity:1" fill="#080808" d="M 20.5,13.5 C 23.5047,14.7237 26.5047,14.7237 29.5,13.5C 35.3531,15.0823 37.0197,18.7489 34.5,24.5C 29.0617,22.6124 23.3951,21.9458 17.5,22.5C 17.3354,25.5184 17.502,28.5184 18,31.5C 20.4728,32.1197 22.9728,32.7864 25.5,33.5C 22.059,35.0063 18.8924,34.6729 16,32.5C 15.3333,27.1667 15.3333,21.8333 16,16.5C 17.4087,15.2189 18.9087,14.2189 20.5,13.5 Z"/></g>
<g><path style="opacity:1" fill="#ecedee" d="M 18.5,16.5 C 22.8379,16.6096 27.1712,16.6096 31.5,16.5C 33.1112,17.3202 33.7778,18.6536 33.5,20.5C 28.1667,20.5 22.8333,20.5 17.5,20.5C 17.4326,19.0413 17.7659,17.7079 18.5,16.5 Z"/></g>
<g><path style="opacity:1" fill="#0a0b0b" d="M 33.5,27.5 C 34.2389,27.369 34.9056,27.5357 35.5,28C 33.6667,29.8333 31.8333,31.6667 30,33.5C 26.4511,30.0999 26.9511,28.9332 31.5,30C 32.3805,29.2917 33.0472,28.4584 33.5,27.5 Z"/></g>
</svg>
