<svg width="49" height="48" viewBox="0 0 49 48" fill="none" xmlns="http://www.w3.org/2000/svg">
<g filter="url(#filter0_d_149_5944)">
<rect x="4" width="41" height="40" rx="10" fill="#F9FAFB"/>
</g>
<path d="M30.9998 23.8369C32.4557 24.5683 33.704 25.742 34.6151 27.2096C34.7955 27.5003 34.8857 27.6456 34.9169 27.8468C34.9803 28.2558 34.7006 28.7585 34.3198 28.9204C34.1323 29 33.9215 29 33.4998 29M28.9998 19.5322C30.4816 18.7959 31.4998 17.2669 31.4998 15.5C31.4998 13.7331 30.4816 12.2041 28.9998 11.4678M26.9998 15.5C26.9998 17.9853 24.9851 20 22.4998 20C20.0146 20 17.9998 17.9853 17.9998 15.5C17.9998 13.0147 20.0146 11 22.4998 11C24.9851 11 26.9998 13.0147 26.9998 15.5ZM15.5591 26.9383C17.1534 24.5446 19.6692 23 22.4998 23C25.3305 23 27.8463 24.5446 29.4406 26.9383C29.7899 27.4628 29.9645 27.725 29.9444 28.0599C29.9287 28.3207 29.7578 28.64 29.5494 28.7976C29.2818 29 28.9137 29 28.1775 29H16.8222C16.086 29 15.7179 29 15.4503 28.7976C15.2419 28.64 15.0709 28.3207 15.0553 28.0599C15.0352 27.725 15.2098 27.4628 15.5591 26.9383Z" stroke="black" stroke-width="2" stroke-linecap="round" stroke-linejoin="round"/>
<defs>
<filter id="filter0_d_149_5944" x="0" y="0" width="49" height="48" filterUnits="userSpaceOnUse" color-interpolation-filters="sRGB">
<feFlood flood-opacity="0" result="BackgroundImageFix"/>
<feColorMatrix in="SourceAlpha" type="matrix" values="0 0 0 0 0 0 0 0 0 0 0 0 0 0 0 0 0 0 127 0" result="hardAlpha"/>
<feOffset dy="4"/>
<feGaussianBlur stdDeviation="2"/>
<feComposite in2="hardAlpha" operator="out"/>
<feColorMatrix type="matrix" values="0 0 0 0 0 0 0 0 0 0 0 0 0 0 0 0 0 0 0.25 0"/>
<feBlend mode="normal" in2="BackgroundImageFix" result="effect1_dropShadow_149_5944"/>
<feBlend mode="normal" in="SourceGraphic" in2="effect1_dropShadow_149_5944" result="shape"/>
</filter>
</defs>
</svg>
