<svg width="176" height="167" viewBox="0 0 176 167" fill="none" xmlns="http://www.w3.org/2000/svg">
    <svg width="100%" height="100%" viewBox="0 0 176 167" fill="none" xmlns="http://www.w3.org/2000/svg">
        <rect x="4" width="168" height="159" rx="10" fill="#F2F2F2"/>
    </svg>
    <svg x="74" y="50" width="28" height="28" viewBox="0 0 28 28" fill="none" xmlns="http://www.w3.org/2000/svg">
        <path d="M14 18.0833H8.75001C7.12184 18.0833 6.30776 18.0833 5.64534 18.2843C4.15386 18.7367 2.98671 19.9039 2.53428 21.3953C2.33333 22.0578 2.33333 22.8718 2.33333 24.5M18.6667 21L21 23.3333L25.6667 18.6667M16.9167 8.75C16.9167 11.6495 14.5662 14 11.6667 14C8.76717 14 6.41667 11.6495 6.41667 8.75C6.41667 5.8505 8.76717 3.5 11.6667 3.5C14.5662 3.5 16.9167 5.8505 16.9167 8.75Z" stroke="black" stroke-width="2" stroke-linecap="round" stroke-linejoin="round"/>
    </svg>
    <svg x="29" y="78" width="118" height="39" viewBox="0 0 118 39" fill="none" xmlns="http://www.w3.org/2000/svg">
        <path d="M7.58695 16L4.62695 10.14H4.50695H2.68695V16H0.826953V2.24H4.04695C7.32695 2.24 8.96695 3.53333 8.96695 6.12C8.96695 7.02667 8.74695 7.79333 8.30695 8.42C7.86695 9.04667 7.22029 9.50667 6.36695 9.8L9.64695 16H7.58695ZM4.18695 8.72C5.14695 8.72 5.86029 8.51333 6.32695 8.1C6.79362 7.67333 7.02695 7.01333 7.02695 6.12C7.02695 5.28 6.78695 4.66 6.30695 4.26C5.84029 3.86 5.07362 3.66 4.00695 3.66H2.68695V8.72H4.18695ZM18.7324 10.42C18.7324 10.7 18.7191 11.0133 18.6924 11.36H12.5724C12.6258 12.5867 12.8724 13.4733 13.3124 14.02C13.7524 14.5533 14.3524 14.82 15.1124 14.82C15.5924 14.82 16.0191 14.7467 16.3924 14.6C16.7791 14.4533 17.1791 14.2133 17.5924 13.88L18.3924 14.94C17.4058 15.82 16.2858 16.26 15.0324 16.26C13.6591 16.26 12.5924 15.7867 11.8324 14.84C11.0858 13.88 10.7124 12.54 10.7124 10.82C10.7124 9.1 11.0724 7.74 11.7924 6.74C12.5124 5.72667 13.5124 5.22 14.7924 5.22C16.0591 5.22 17.0324 5.67333 17.7124 6.58C18.3924 7.47333 18.7324 8.75333 18.7324 10.42ZM16.9924 9.88C16.9924 7.68 16.2658 6.58 14.8124 6.58C14.1458 6.58 13.6191 6.86 13.2324 7.42C12.8458 7.96667 12.6258 8.86 12.5724 10.1H16.9924V9.88ZM28.9552 5.86C28.3819 6.08667 27.4952 6.2 26.2952 6.2C27.4152 6.76 27.9752 7.68 27.9752 8.96C27.9752 10.0133 27.6419 10.8667 26.9752 11.52C26.3219 12.16 25.4286 12.48 24.2952 12.48C23.8686 12.48 23.4819 12.4133 23.1352 12.28C22.7619 12.5467 22.5752 12.8867 22.5752 13.3C22.5752 13.9267 23.0152 14.24 23.8952 14.24H25.2752C26.3152 14.24 27.1419 14.5067 27.7552 15.04C28.3686 15.56 28.6752 16.2267 28.6752 17.04C28.6752 18.0267 28.2952 18.8 27.5352 19.36C26.7752 19.9333 25.6619 20.22 24.1952 20.22C22.6752 20.22 21.5952 19.96 20.9552 19.44C20.3286 18.92 20.0152 18.1267 20.0152 17.06H21.6352C21.6352 17.5 21.7086 17.8467 21.8552 18.1C22.0152 18.3667 22.2752 18.56 22.6352 18.68C23.0086 18.8133 23.5352 18.88 24.2152 18.88C25.1619 18.88 25.8419 18.7333 26.2552 18.44C26.6686 18.1467 26.8752 17.7267 26.8752 17.18C26.8752 16.6733 26.7019 16.2867 26.3552 16.02C26.0219 15.7533 25.5419 15.62 24.9152 15.62H23.7352C22.8152 15.62 22.1286 15.4467 21.6752 15.1C21.2219 14.74 20.9952 14.2667 20.9952 13.68C20.9952 13 21.3619 12.3933 22.0952 11.86C21.5352 11.54 21.1152 11.14 20.8352 10.66C20.5686 10.1667 20.4352 9.57333 20.4352 8.88C20.4352 7.78667 20.7819 6.90667 21.4752 6.24C22.1686 5.57333 23.0819 5.24 24.2152 5.24C25.2686 5.24 26.0819 5.16667 26.6552 5.02C27.2419 4.87333 27.8419 4.64667 28.4552 4.34L28.9552 5.86ZM24.2352 6.5C23.5819 6.5 23.0819 6.70667 22.7352 7.12C22.4019 7.52 22.2352 8.10667 22.2352 8.88C22.2352 9.62667 22.4086 10.2133 22.7552 10.64C23.1152 11.0533 23.6086 11.26 24.2352 11.26C25.5552 11.26 26.2152 10.46 26.2152 8.86C26.2152 8.08667 26.0486 7.5 25.7152 7.1C25.3819 6.7 24.8886 6.5 24.2352 6.5ZM32.4298 5.48V16H30.6298V5.48H32.4298ZM31.5298 0.519999C31.8764 0.519999 32.1564 0.633332 32.3698 0.859999C32.5964 1.08667 32.7098 1.36667 32.7098 1.7C32.7098 2.03333 32.6031 2.31333 32.3898 2.54C32.1764 2.75333 31.8898 2.86 31.5298 2.86C31.1831 2.86 30.8964 2.75333 30.6698 2.54C30.4564 2.31333 30.3498 2.03333 30.3498 1.7C30.3498 1.36667 30.4564 1.08667 30.6698 0.859999C30.8964 0.633332 31.1831 0.519999 31.5298 0.519999ZM38.3888 5.22C39.6022 5.22 40.6822 5.62 41.6288 6.42L40.8688 7.48C40.4422 7.18667 40.0422 6.96667 39.6688 6.82C39.2955 6.67333 38.9022 6.6 38.4888 6.6C37.9422 6.6 37.5088 6.73333 37.1888 7C36.8822 7.25333 36.7288 7.60667 36.7288 8.06C36.7288 8.5 36.8755 8.84667 37.1688 9.1C37.4755 9.35333 38.0488 9.61333 38.8888 9.88C39.9422 10.2133 40.7088 10.62 41.1888 11.1C41.6688 11.58 41.9088 12.24 41.9088 13.08C41.9088 14.0667 41.5488 14.8467 40.8288 15.42C40.1088 15.98 39.2088 16.26 38.1288 16.26C36.7022 16.26 35.4955 15.7867 34.5088 14.84L35.4288 13.84C36.2688 14.52 37.1555 14.86 38.0888 14.86C38.6755 14.86 39.1488 14.7133 39.5088 14.42C39.8688 14.1267 40.0488 13.72 40.0488 13.2C40.0488 12.8267 39.9822 12.5267 39.8488 12.3C39.7288 12.0733 39.5022 11.8733 39.1688 11.7C38.8488 11.5133 38.3755 11.32 37.7488 11.12C36.7488 10.7867 36.0288 10.3867 35.5888 9.92C35.1488 9.45333 34.9288 8.86 34.9288 8.14C34.9288 7.58 35.0755 7.08 35.3688 6.64C35.6622 6.2 36.0688 5.85333 36.5888 5.6C37.1088 5.34667 37.7088 5.22 38.3888 5.22ZM49.184 15.54C48.5173 16.02 47.7773 16.26 46.964 16.26C46.1107 16.26 45.4507 16.0133 44.984 15.52C44.5307 15.0267 44.304 14.3333 44.304 13.44V6.84H42.804V5.48H44.304V3.06L46.104 2.84V5.48H48.424L48.224 6.84H46.104V13.42C46.104 14.3267 46.484 14.78 47.244 14.78C47.4707 14.78 47.6773 14.7467 47.864 14.68C48.064 14.6133 48.284 14.5133 48.524 14.38L49.184 15.54ZM57.834 10.42C57.834 10.7 57.8207 11.0133 57.794 11.36H51.674C51.7273 12.5867 51.974 13.4733 52.414 14.02C52.854 14.5533 53.454 14.82 54.214 14.82C54.694 14.82 55.1207 14.7467 55.494 14.6C55.8807 14.4533 56.2807 14.2133 56.694 13.88L57.494 14.94C56.5073 15.82 55.3873 16.26 54.134 16.26C52.7607 16.26 51.694 15.7867 50.934 14.84C50.1873 13.88 49.814 12.54 49.814 10.82C49.814 9.1 50.174 7.74 50.894 6.74C51.614 5.72667 52.614 5.22 53.894 5.22C55.1607 5.22 56.134 5.67333 56.814 6.58C57.494 7.47333 57.834 8.75333 57.834 10.42ZM56.094 9.88C56.094 7.68 55.3673 6.58 53.914 6.58C53.2473 6.58 52.7207 6.86 52.334 7.42C51.9473 7.96667 51.7273 8.86 51.674 10.1H56.094V9.88ZM64.6568 5.24C65.0035 5.24 65.3035 5.28 65.5568 5.36L65.2568 7.1C65.0035 7.02 64.7301 6.98 64.4368 6.98C63.8501 6.98 63.3701 7.21333 62.9968 7.68C62.6368 8.14667 62.3501 8.86 62.1368 9.82V16H60.3368V5.48H61.8968L62.0368 7.56C62.5568 6.01333 63.4301 5.24 64.6568 5.24ZM75.4565 2.44C74.9632 2.44 74.5965 2.56 74.3565 2.8C74.1298 3.04 74.0165 3.41333 74.0165 3.92V5.48H76.3765L76.1765 6.84H74.0165V16H72.2165V6.84H70.6565V5.48H72.2165V3.94C72.2165 3.06 72.4832 2.35333 73.0165 1.82C73.5632 1.28667 74.3165 1.02 75.2765 1.02C76.0765 1.02 76.8632 1.21333 77.6365 1.6L77.0965 2.84C76.5498 2.57333 76.0032 2.44 75.4565 2.44ZM81.5945 5.22C82.9411 5.22 83.9878 5.69333 84.7345 6.64C85.4811 7.58667 85.8545 8.94667 85.8545 10.72C85.8545 12.4267 85.4745 13.78 84.7145 14.78C83.9545 15.7667 82.9078 16.26 81.5745 16.26C80.2278 16.26 79.1745 15.7733 78.4145 14.8C77.6678 13.8267 77.2945 12.4733 77.2945 10.74C77.2945 8.99333 77.6745 7.64 78.4345 6.68C79.1945 5.70667 80.2478 5.22 81.5945 5.22ZM81.5945 6.66C80.8078 6.66 80.2078 6.99333 79.7945 7.66C79.3811 8.31333 79.1745 9.34 79.1745 10.74C79.1745 13.4733 79.9745 14.84 81.5745 14.84C83.1745 14.84 83.9745 13.4667 83.9745 10.72C83.9745 9.32 83.7745 8.29333 83.3745 7.64C82.9745 6.98667 82.3811 6.66 81.5945 6.66ZM92.7818 5.24C93.1285 5.24 93.4285 5.28 93.6818 5.36L93.3818 7.1C93.1285 7.02 92.8551 6.98 92.5618 6.98C91.9751 6.98 91.4951 7.21333 91.1218 7.68C90.7618 8.14667 90.4751 8.86 90.2618 9.82V16H88.4618V5.48H90.0218L90.1618 7.56C90.6818 6.01333 91.5551 5.24 92.7818 5.24ZM106.701 13.6C106.701 14.0267 106.761 14.3467 106.881 14.56C107.001 14.76 107.188 14.9133 107.441 15.02L107.061 16.24C106.541 16.16 106.135 16 105.841 15.76C105.548 15.52 105.341 15.1533 105.221 14.66C104.541 15.7267 103.588 16.26 102.361 16.26C101.428 16.26 100.688 15.9733 100.141 15.4C99.5948 14.8133 99.3215 14.0333 99.3215 13.06C99.3215 11.94 99.6882 11.0867 100.421 10.5C101.155 9.91333 102.201 9.62 103.561 9.62H104.921V8.72C104.921 7.98667 104.768 7.46 104.461 7.14C104.168 6.80667 103.681 6.64 103.001 6.64C102.268 6.64 101.415 6.82667 100.441 7.2L100.001 5.94C101.175 5.46 102.268 5.22 103.281 5.22C105.561 5.22 106.701 6.36 106.701 8.64V13.6ZM102.781 14.9C103.715 14.9 104.428 14.3533 104.921 13.26V10.78H103.761C102.028 10.78 101.161 11.5067 101.161 12.96C101.161 13.5867 101.301 14.0667 101.581 14.4C101.861 14.7333 102.261 14.9 102.781 14.9ZM114.646 5.22C115.486 5.22 116.14 5.5 116.606 6.06C117.086 6.60667 117.326 7.36667 117.326 8.34V16H115.526V8.56C115.526 7.88 115.413 7.39333 115.186 7.1C114.96 6.79333 114.613 6.64 114.146 6.64C113.266 6.64 112.466 7.26667 111.746 8.52V16H109.946V5.48H111.506L111.646 7.04C112.46 5.82667 113.46 5.22 114.646 5.22ZM45.1973 32.42C45.1973 32.7 45.1839 33.0133 45.1573 33.36H39.0373C39.0906 34.5867 39.3373 35.4733 39.7773 36.02C40.2173 36.5533 40.8173 36.82 41.5773 36.82C42.0573 36.82 42.4839 36.7467 42.8573 36.6C43.2439 36.4533 43.6439 36.2133 44.0573 35.88L44.8573 36.94C43.8706 37.82 42.7506 38.26 41.4973 38.26C40.1239 38.26 39.0573 37.7867 38.2973 36.84C37.5506 35.88 37.1773 34.54 37.1773 32.82C37.1773 31.1 37.5373 29.74 38.2573 28.74C38.9773 27.7267 39.9773 27.22 41.2573 27.22C42.5239 27.22 43.4973 27.6733 44.1773 28.58C44.8573 29.4733 45.1973 30.7533 45.1973 32.42ZM43.4573 31.88C43.4573 29.68 42.7306 28.58 41.2773 28.58C40.6106 28.58 40.0839 28.86 39.6973 29.42C39.3106 29.9667 39.0906 30.86 39.0373 32.1H43.4573V31.88ZM54.722 27.48L51.582 38H49.422L46.182 27.48H48.062L50.502 36.48L52.922 27.48H54.722ZM63.8301 32.42C63.8301 32.7 63.8167 33.0133 63.7901 33.36H57.6701C57.7234 34.5867 57.9701 35.4733 58.4101 36.02C58.8501 36.5533 59.4501 36.82 60.2101 36.82C60.6901 36.82 61.1167 36.7467 61.4901 36.6C61.8767 36.4533 62.2767 36.2133 62.6901 35.88L63.4901 36.94C62.5034 37.82 61.3834 38.26 60.1301 38.26C58.7567 38.26 57.6901 37.7867 56.9301 36.84C56.1834 35.88 55.8101 34.54 55.8101 32.82C55.8101 31.1 56.1701 29.74 56.8901 28.74C57.6101 27.7267 58.6101 27.22 59.8901 27.22C61.1567 27.22 62.1301 27.6733 62.8101 28.58C63.4901 29.4733 63.8301 30.7533 63.8301 32.42ZM62.0901 31.88C62.0901 29.68 61.3634 28.58 59.9101 28.58C59.2434 28.58 58.7167 28.86 58.3301 29.42C57.9434 29.9667 57.7234 30.86 57.6701 32.1H62.0901V31.88ZM71.0329 27.22C71.8729 27.22 72.5262 27.5 72.9929 28.06C73.4729 28.6067 73.7129 29.3667 73.7129 30.34V38H71.9129V30.56C71.9129 29.88 71.7996 29.3933 71.5729 29.1C71.3462 28.7933 70.9996 28.64 70.5329 28.64C69.6529 28.64 68.8529 29.2667 68.1329 30.52V38H66.3329V27.48H67.8929L68.0329 29.04C68.8462 27.8267 69.8462 27.22 71.0329 27.22ZM81.8598 37.54C81.1931 38.02 80.4531 38.26 79.6398 38.26C78.7864 38.26 78.1264 38.0133 77.6598 37.52C77.2064 37.0267 76.9798 36.3333 76.9798 35.44V28.84H75.4798V27.48H76.9798V25.06L78.7798 24.84V27.48H81.0998L80.8998 28.84H78.7798V35.42C78.7798 36.3267 79.1598 36.78 79.9198 36.78C80.1464 36.78 80.3531 36.7467 80.5398 36.68C80.7398 36.6133 80.9598 36.5133 81.1998 36.38L81.8598 37.54Z" fill="black"/>
    </svg>
</svg>
