<svg width="175" height="159" viewBox="0 0 175 159" fill="none" xmlns="http://www.w3.org/2000/svg">
<rect width="175" height="159" rx="10" fill="#90CAED"/>
<path d="M35.8113 73.88C36.5713 73.88 37.2379 74 37.8113 74.24C38.3979 74.48 38.9713 74.84 39.5312 75.32L38.2513 76.82C37.5046 76.1933 36.7379 75.88 35.9513 75.88C35.0446 75.88 34.3313 76.2867 33.8113 77.1C33.2913 77.9133 33.0313 79.2333 33.0313 81.06C33.0313 82.8467 33.2913 84.1533 33.8113 84.98C34.3313 85.8067 35.0513 86.22 35.9713 86.22C36.4513 86.22 36.8713 86.1333 37.2313 85.96C37.5913 85.7733 37.9913 85.5067 38.4313 85.16L39.6713 86.64C39.2046 87.12 38.6513 87.52 38.0113 87.84C37.3713 88.1467 36.6513 88.3 35.8513 88.3C34.7446 88.3 33.7713 88.0333 32.9313 87.5C32.1046 86.9533 31.4579 86.14 30.9913 85.06C30.5379 83.9667 30.3113 82.6333 30.3113 81.06C30.3113 79.5133 30.5513 78.2 31.0313 77.12C31.5113 76.04 32.1646 75.2333 32.9913 74.7C33.8179 74.1533 34.7579 73.88 35.8113 73.88ZM48.6508 88H46.4908L46.3508 86.6C45.9908 87.1733 45.5774 87.6 45.1108 87.88C44.6574 88.16 44.1174 88.3 43.4908 88.3C42.6374 88.3 41.9708 88.02 41.4908 87.46C41.0241 86.9 40.7908 86.1467 40.7908 85.2V77.42H43.2908V84.98C43.2908 85.4733 43.3708 85.8333 43.5308 86.06C43.7041 86.2867 43.9708 86.4 44.3308 86.4C45.0241 86.4 45.6308 85.92 46.1508 84.96V77.42H48.6508V88ZM56.2005 77.14C56.4805 77.14 56.7938 77.1867 57.1405 77.28L56.7205 79.7C56.4405 79.62 56.1605 79.58 55.8805 79.58C55.3205 79.58 54.8738 79.8 54.5405 80.24C54.2205 80.68 53.9738 81.3467 53.8005 82.24V88H51.3005V77.42H53.4805L53.6805 79.38C53.9338 78.6467 54.2738 78.0933 54.7005 77.72C55.1271 77.3333 55.6271 77.14 56.2005 77.14ZM63.388 77.14C63.668 77.14 63.9813 77.1867 64.328 77.28L63.908 79.7C63.628 79.62 63.348 79.58 63.068 79.58C62.508 79.58 62.0613 79.8 61.728 80.24C61.408 80.68 61.1613 81.3467 60.988 82.24V88H58.488V77.42H60.668L60.868 79.38C61.1213 78.6467 61.4613 78.0933 61.888 77.72C62.3146 77.3333 62.8146 77.14 63.388 77.14ZM73.1491 82.46C73.1491 82.58 73.1291 82.92 73.0891 83.48H67.1091C67.1891 84.5467 67.4157 85.3 67.7891 85.74C68.1624 86.18 68.6824 86.4 69.3491 86.4C69.7757 86.4 70.1757 86.3267 70.5491 86.18C70.9224 86.0333 71.3224 85.8067 71.7491 85.5L72.7891 86.92C71.7357 87.84 70.5291 88.3 69.1691 88.3C67.6891 88.3 66.5491 87.8133 65.7491 86.84C64.9491 85.8667 64.5491 84.5133 64.5491 82.78C64.5491 81.0733 64.9291 79.7067 65.6891 78.68C66.4624 77.64 67.5357 77.12 68.9091 77.12C70.2424 77.12 71.2824 77.58 72.0291 78.5C72.7757 79.42 73.1491 80.74 73.1491 82.46ZM70.6891 81.74C70.6891 80.78 70.5491 80.0667 70.2691 79.6C69.9891 79.12 69.5424 78.88 68.9291 78.88C68.3691 78.88 67.9357 79.1133 67.6291 79.58C67.3357 80.0333 67.1624 80.7933 67.1091 81.86H70.6891V81.74ZM80.3886 77.12C81.2286 77.12 81.8886 77.4 82.3686 77.96C82.8486 78.52 83.0886 79.28 83.0886 80.24V88H80.5886V80.58C80.5886 80.02 80.4953 79.6267 80.3086 79.4C80.1353 79.16 79.8753 79.04 79.5286 79.04C79.1686 79.04 78.8353 79.1733 78.5286 79.44C78.2219 79.7067 77.9219 80.1 77.6286 80.62V88H75.1286V77.42H77.3086L77.4886 78.8C77.8753 78.2533 78.3019 77.84 78.7686 77.56C79.2486 77.2667 79.7886 77.12 80.3886 77.12ZM91.2764 87.5C90.9297 87.7667 90.5431 87.9667 90.1164 88.1C89.7031 88.2333 89.2764 88.3 88.8364 88.3C87.8631 88.3 87.1164 88.02 86.5964 87.46C86.0897 86.9 85.8364 86.12 85.8364 85.12V79.22H84.4164V77.42H85.8364V75.08L88.3364 74.78V77.42H90.5564L90.2964 79.22H88.3364V85.1C88.3364 85.5 88.4097 85.8 88.5564 86C88.7164 86.1867 88.9631 86.28 89.2964 86.28C89.6564 86.28 90.0231 86.1667 90.3964 85.94L91.2764 87.5ZM100.966 82.44H99.5464V88H96.9464V74.18H100.586C104.066 74.18 105.806 75.5333 105.806 78.24C105.806 79.12 105.6 79.88 105.186 80.52C104.773 81.1467 104.153 81.6267 103.326 81.96L106.546 88H103.686L100.966 82.44ZM100.726 80.58C101.553 80.58 102.16 80.3933 102.546 80.02C102.933 79.6467 103.126 79.0533 103.126 78.24C103.126 77.4933 102.92 76.9467 102.506 76.6C102.106 76.2533 101.46 76.08 100.566 76.08H99.5464V80.58H100.726ZM111.604 73.88C112.484 73.88 113.251 74.02 113.904 74.3C114.571 74.58 115.184 75.0067 115.744 75.58L114.504 77C114.064 76.6133 113.624 76.3267 113.184 76.14C112.744 75.9533 112.271 75.86 111.764 75.86C111.204 75.86 110.751 76.0067 110.404 76.3C110.071 76.5933 109.904 77 109.904 77.52C109.904 77.8667 109.971 78.16 110.104 78.4C110.251 78.64 110.504 78.8667 110.864 79.08C111.224 79.28 111.744 79.5 112.424 79.74C113.664 80.1933 114.584 80.7333 115.184 81.36C115.797 81.9867 116.104 82.8867 116.104 84.06C116.104 84.8733 115.911 85.6 115.524 86.24C115.137 86.88 114.577 87.3867 113.844 87.76C113.124 88.12 112.277 88.3 111.304 88.3C109.477 88.3 107.951 87.6733 106.724 86.42L108.044 84.96C108.551 85.4 109.051 85.7333 109.544 85.96C110.051 86.1867 110.604 86.3 111.204 86.3C111.884 86.3 112.417 86.1133 112.804 85.74C113.204 85.3667 113.404 84.8533 113.404 84.2C113.404 83.6133 113.237 83.1533 112.904 82.82C112.571 82.4733 111.937 82.14 111.004 81.82C109.671 81.3533 108.711 80.8 108.124 80.16C107.537 79.52 107.244 78.7 107.244 77.7C107.244 76.9667 107.431 76.3133 107.804 75.74C108.177 75.1533 108.697 74.7 109.364 74.38C110.031 74.0467 110.777 73.88 111.604 73.88ZM126.67 74.18L123.05 88H119.91L116.19 74.18H118.87L121.53 85.72L124.07 74.18H126.67ZM131.562 74.18C133.282 74.18 134.595 74.5533 135.502 75.3C136.422 76.0333 136.882 77.1267 136.882 78.58C136.882 80.1 136.422 81.2467 135.502 82.02C134.595 82.78 133.342 83.16 131.742 83.16H130.582V88H127.982V74.18H131.562ZM131.582 81.22C132.475 81.22 133.135 81.0267 133.562 80.64C133.988 80.24 134.202 79.5533 134.202 78.58C134.202 77.7133 133.988 77.08 133.562 76.68C133.135 76.28 132.475 76.08 131.582 76.08H130.582V81.22H131.582ZM141.256 77.12C142.576 77.12 143.723 77.54 144.696 78.38L143.716 79.8C142.93 79.24 142.15 78.96 141.376 78.96C140.936 78.96 140.596 79.06 140.356 79.26C140.116 79.46 139.996 79.7333 139.996 80.08C139.996 80.3333 140.05 80.54 140.156 80.7C140.276 80.86 140.476 81.02 140.756 81.18C141.036 81.3267 141.456 81.4933 142.016 81.68C143.03 82.0133 143.783 82.4267 144.276 82.92C144.77 83.4133 145.016 84.0933 145.016 84.96C145.016 86 144.623 86.82 143.836 87.42C143.063 88.0067 142.083 88.3 140.896 88.3C140.11 88.3 139.39 88.1733 138.736 87.92C138.083 87.6533 137.516 87.2867 137.036 86.82L138.276 85.44C139.103 86.1067 139.95 86.44 140.816 86.44C141.323 86.44 141.716 86.3267 141.996 86.1C142.29 85.8733 142.436 85.5533 142.436 85.14C142.436 84.8333 142.376 84.5867 142.256 84.4C142.15 84.2133 141.95 84.04 141.656 83.88C141.363 83.72 140.916 83.5467 140.316 83.36C139.33 83.0267 138.61 82.6067 138.156 82.1C137.716 81.5933 137.496 80.9667 137.496 80.22C137.496 79.6333 137.65 79.1067 137.956 78.64C138.263 78.16 138.703 77.7867 139.276 77.52C139.85 77.2533 140.51 77.12 141.256 77.12ZM54.2491 99.83C53.8791 99.83 53.6041 99.92 53.4241 100.1C53.2541 100.28 53.1691 100.56 53.1691 100.94V102.11H54.9391L54.7891 103.13H53.1691V110H51.8191V103.13H50.6491V102.11H51.8191V100.955C51.8191 100.295 52.0191 99.765 52.4191 99.365C52.8291 98.965 53.3941 98.765 54.1141 98.765C54.7141 98.765 55.3041 98.91 55.8841 99.2L55.4791 100.13C55.0691 99.93 54.6591 99.83 54.2491 99.83ZM58.8526 101.915C59.8626 101.915 60.6476 102.27 61.2076 102.98C61.7676 103.69 62.0476 104.71 62.0476 106.04C62.0476 107.32 61.7626 108.335 61.1926 109.085C60.6226 109.825 59.8376 110.195 58.8376 110.195C57.8276 110.195 57.0376 109.83 56.4676 109.1C55.9076 108.37 55.6276 107.355 55.6276 106.055C55.6276 104.745 55.9126 103.73 56.4826 103.01C57.0526 102.28 57.8426 101.915 58.8526 101.915ZM58.8526 102.995C58.2626 102.995 57.8126 103.245 57.5026 103.745C57.1926 104.235 57.0376 105.005 57.0376 106.055C57.0376 108.105 57.6376 109.13 58.8376 109.13C60.0376 109.13 60.6376 108.1 60.6376 106.04C60.6376 104.99 60.4876 104.22 60.1876 103.73C59.8876 103.24 59.4426 102.995 58.8526 102.995ZM67.2431 101.93C67.5031 101.93 67.7281 101.96 67.9181 102.02L67.6931 103.325C67.5031 103.265 67.2981 103.235 67.0781 103.235C66.6381 103.235 66.2781 103.41 65.9981 103.76C65.7281 104.11 65.5131 104.645 65.3531 105.365V110H64.0031V102.11H65.1731L65.2781 103.67C65.6681 102.51 66.3231 101.93 67.2431 101.93ZM77.6829 108.2C77.6829 108.52 77.7279 108.76 77.8179 108.92C77.9079 109.07 78.0479 109.185 78.2379 109.265L77.9529 110.18C77.5629 110.12 77.2579 110 77.0379 109.82C76.8179 109.64 76.6629 109.365 76.5729 108.995C76.0629 109.795 75.3479 110.195 74.4279 110.195C73.7279 110.195 73.1729 109.98 72.7629 109.55C72.3529 109.11 72.1479 108.525 72.1479 107.795C72.1479 106.955 72.4229 106.315 72.9729 105.875C73.5229 105.435 74.3079 105.215 75.3279 105.215H76.3479V104.54C76.3479 103.99 76.2329 103.595 76.0029 103.355C75.7829 103.105 75.4179 102.98 74.9079 102.98C74.3579 102.98 73.7179 103.12 72.9879 103.4L72.6579 102.455C73.5379 102.095 74.3579 101.915 75.1179 101.915C76.8279 101.915 77.6829 102.77 77.6829 104.48V108.2ZM74.7429 109.175C75.4429 109.175 75.9779 108.765 76.3479 107.945V106.085H75.4779C74.1779 106.085 73.5279 106.63 73.5279 107.72C73.5279 108.19 73.6329 108.55 73.8429 108.8C74.0529 109.05 74.3529 109.175 74.7429 109.175ZM83.6414 101.915C84.2714 101.915 84.7614 102.125 85.1114 102.545C85.4714 102.955 85.6514 103.525 85.6514 104.255V110H84.3014V104.42C84.3014 103.91 84.2164 103.545 84.0464 103.325C83.8764 103.095 83.6164 102.98 83.2664 102.98C82.6064 102.98 82.0064 103.45 81.4664 104.39V110H80.1164V102.11H81.2864L81.3914 103.28C82.0014 102.37 82.7514 101.915 83.6414 101.915ZM97.0918 105.815C97.0918 106.025 97.0818 106.26 97.0618 106.52H92.4718C92.5118 107.44 92.6968 108.105 93.0268 108.515C93.3568 108.915 93.8068 109.115 94.3768 109.115C94.7368 109.115 95.0568 109.06 95.3368 108.95C95.6268 108.84 95.9268 108.66 96.2368 108.41L96.8368 109.205C96.0968 109.865 95.2568 110.195 94.3168 110.195C93.2868 110.195 92.4868 109.84 91.9168 109.13C91.3568 108.41 91.0768 107.405 91.0768 106.115C91.0768 104.825 91.3468 103.805 91.8868 103.055C92.4268 102.295 93.1768 101.915 94.1368 101.915C95.0868 101.915 95.8168 102.255 96.3268 102.935C96.8368 103.605 97.0918 104.565 97.0918 105.815ZM95.7868 105.41C95.7868 103.76 95.2418 102.935 94.1518 102.935C93.6518 102.935 93.2568 103.145 92.9668 103.565C92.6768 103.975 92.5118 104.645 92.4718 105.575H95.7868V105.41ZM104.235 102.11L101.88 110H100.26L97.8303 102.11H99.2403L101.07 108.86L102.885 102.11H104.235ZM111.066 105.815C111.066 106.025 111.056 106.26 111.036 106.52H106.446C106.486 107.44 106.671 108.105 107.001 108.515C107.331 108.915 107.781 109.115 108.351 109.115C108.711 109.115 109.031 109.06 109.311 108.95C109.601 108.84 109.901 108.66 110.211 108.41L110.811 109.205C110.071 109.865 109.231 110.195 108.291 110.195C107.261 110.195 106.461 109.84 105.891 109.13C105.331 108.41 105.051 107.405 105.051 106.115C105.051 104.825 105.321 103.805 105.861 103.055C106.401 102.295 107.151 101.915 108.111 101.915C109.061 101.915 109.791 102.255 110.301 102.935C110.811 103.605 111.066 104.565 111.066 105.815ZM109.761 105.41C109.761 103.76 109.216 102.935 108.126 102.935C107.626 102.935 107.231 103.145 106.941 103.565C106.651 103.975 106.486 104.645 106.446 105.575H109.761V105.41ZM116.469 101.915C117.099 101.915 117.589 102.125 117.939 102.545C118.299 102.955 118.479 103.525 118.479 104.255V110H117.129V104.42C117.129 103.91 117.044 103.545 116.874 103.325C116.704 103.095 116.444 102.98 116.094 102.98C115.434 102.98 114.834 103.45 114.294 104.39V110H112.944V102.11H114.114L114.219 103.28C114.829 102.37 115.579 101.915 116.469 101.915ZM124.589 109.655C124.089 110.015 123.534 110.195 122.924 110.195C122.284 110.195 121.789 110.01 121.439 109.64C121.099 109.27 120.929 108.75 120.929 108.08V103.13H119.804V102.11H120.929V100.295L122.279 100.13V102.11H124.019L123.869 103.13H122.279V108.065C122.279 108.745 122.564 109.085 123.134 109.085C123.304 109.085 123.459 109.06 123.599 109.01C123.749 108.96 123.914 108.885 124.094 108.785L124.589 109.655Z" fill="black"/>
<circle cx="87.5" cy="38" r="7.5" stroke="#33363F" stroke-width="2" stroke-linecap="round"/>
<path fill-rule="evenodd" clip-rule="evenodd" d="M95.75 53.7468C93.2604 52.6035 90.407 52 87.5 52C84.0396 52 80.655 52.8552 77.8698 54.4581C75.0852 56.0606 73.0186 58.3451 72.0694 61.0018C71.8836 61.5219 72.1546 62.0942 72.6747 62.28C73.1948 62.4658 73.767 62.1948 73.9528 61.6747C74.7129 59.5472 76.4127 57.6042 78.8674 56.1915C81.3215 54.7792 84.3564 54 87.5 54C88.2671 54 89.0277 54.0464 89.775 54.1371C90.2105 53.8906 90.7138 53.75 91.25 53.75L95.75 53.75V53.7468ZM101.75 62.3094C101.934 62.3549 102.133 62.3486 102.325 62.28C102.845 62.0942 103.116 61.5219 102.931 61.0018C102.778 60.5745 102.596 60.1568 102.387 59.75H101.75V62.3094Z" fill="#33363F"/>
<path d="M98.75 49.25L98.75 64.25" stroke="#33363F" stroke-width="2.5" stroke-linecap="round"/>
<path d="M106.25 56.75L91.25 56.75" stroke="#33363F" stroke-width="2.5" stroke-linecap="round"/>
</svg>
