<svg width="176" height="167" viewBox="0 0 176 167" fill="none" xmlns="http://www.w3.org/2000/svg">
    <svg width="100%" height="100%" viewBox="0 0 176 167" fill="none" xmlns="http://www.w3.org/2000/svg">
        <rect x="4" width="168" height="159" rx="10" fill="#3B8C75"/>
    </svg>
    <svg x="74" y="61" width="28" height="28" viewBox="0 0 28 28" fill="none" xmlns="http://www.w3.org/2000/svg">
        <path d="M24.5 24.5L19.425 19.425M12.8333 7C16.055 7 18.6667 9.61167 18.6667 12.8333M22.1667 12.8333C22.1667 17.988 17.988 22.1667 12.8333 22.1667C7.67868 22.1667 3.5 17.988 3.5 12.8333C3.5 7.67868 7.67868 3.5 12.8333 3.5C17.988 3.5 22.1667 7.67868 22.1667 12.8333Z" stroke="white" stroke-width="2" stroke-linecap="round" stroke-linejoin="round"/>
    </svg>
    <svg x="33.5" y="89" width="109" height="17" viewBox="0 0 109 17" fill="none" xmlns="http://www.w3.org/2000/svg">
        <path d="M0.797656 16V2.24H7.47766L7.27766 3.68H2.65766V8.48H6.65766V9.92H2.65766V16H0.797656ZM10.6427 5.48V16H8.84266V5.48H10.6427ZM9.74266 0.519999C10.0893 0.519999 10.3693 0.633332 10.5827 0.859999C10.8093 1.08667 10.9227 1.36667 10.9227 1.7C10.9227 2.03333 10.816 2.31333 10.6027 2.54C10.3893 2.75333 10.1027 2.86 9.74266 2.86C9.39599 2.86 9.10932 2.75333 8.88266 2.54C8.66932 2.31333 8.56266 2.03333 8.56266 1.7C8.56266 1.36667 8.66932 1.08667 8.88266 0.859999C9.10932 0.633332 9.39599 0.519999 9.74266 0.519999ZM18.5817 5.22C19.4217 5.22 20.0751 5.5 20.5417 6.06C21.0217 6.60667 21.2617 7.36667 21.2617 8.34V16H19.4617V8.56C19.4617 7.88 19.3484 7.39333 19.1217 7.1C18.8951 6.79333 18.5484 6.64 18.0817 6.64C17.2017 6.64 16.4017 7.26667 15.6817 8.52V16H13.8817V5.48H15.4417L15.5817 7.04C16.3951 5.82667 17.3951 5.22 18.5817 5.22ZM31.9086 1.22V16H30.3086L30.1886 14.62C29.5086 15.7133 28.5953 16.26 27.4486 16.26C26.3019 16.26 25.4086 15.7733 24.7686 14.8C24.1419 13.8267 23.8286 12.4867 23.8286 10.78C23.8286 9.67333 23.9819 8.7 24.2886 7.86C24.6086 7.02 25.0553 6.37333 25.6286 5.92C26.2019 5.45333 26.8619 5.22 27.6086 5.22C28.6086 5.22 29.4419 5.64 30.1086 6.48V1.02L31.9086 1.22ZM27.8686 14.84C28.3486 14.84 28.7619 14.7067 29.1086 14.44C29.4686 14.1733 29.8019 13.78 30.1086 13.26V7.98C29.5086 7.08667 28.8086 6.64 28.0086 6.64C27.3019 6.64 26.7419 6.98 26.3286 7.66C25.9153 8.34 25.7153 9.36667 25.7286 10.74C25.7286 12.14 25.9153 13.1733 26.2886 13.84C26.6619 14.5067 27.1886 14.84 27.8686 14.84ZM46.4183 13.6C46.4183 14.0267 46.4783 14.3467 46.5983 14.56C46.7183 14.76 46.9049 14.9133 47.1583 15.02L46.7783 16.24C46.2583 16.16 45.8516 16 45.5583 15.76C45.2649 15.52 45.0583 15.1533 44.9383 14.66C44.2583 15.7267 43.3049 16.26 42.0783 16.26C41.1449 16.26 40.4049 15.9733 39.8583 15.4C39.3116 14.8133 39.0383 14.0333 39.0383 13.06C39.0383 11.94 39.4049 11.0867 40.1383 10.5C40.8716 9.91333 41.9183 9.62 43.2783 9.62H44.6383V8.72C44.6383 7.98667 44.4849 7.46 44.1783 7.14C43.8849 6.80667 43.3983 6.64 42.7183 6.64C41.9849 6.64 41.1316 6.82667 40.1583 7.2L39.7183 5.94C40.8916 5.46 41.9849 5.22 42.9983 5.22C45.2783 5.22 46.4183 6.36 46.4183 8.64V13.6ZM42.4983 14.9C43.4316 14.9 44.1449 14.3533 44.6383 13.26V10.78H43.4783C41.7449 10.78 40.8783 11.5067 40.8783 12.96C40.8783 13.5867 41.0183 14.0667 41.2983 14.4C41.5783 14.7333 41.9783 14.9 42.4983 14.9ZM54.363 5.22C55.203 5.22 55.8563 5.5 56.323 6.06C56.803 6.60667 57.043 7.36667 57.043 8.34V16H55.243V8.56C55.243 7.88 55.1296 7.39333 54.903 7.1C54.6763 6.79333 54.3296 6.64 53.863 6.64C52.983 6.64 52.183 7.26667 51.463 8.52V16H49.663V5.48H51.223L51.363 7.04C52.1763 5.82667 53.1763 5.22 54.363 5.22ZM72.2969 10.42C72.2969 10.7 72.2835 11.0133 72.2569 11.36H66.1369C66.1902 12.5867 66.4369 13.4733 66.8769 14.02C67.3169 14.5533 67.9169 14.82 68.6769 14.82C69.1569 14.82 69.5835 14.7467 69.9569 14.6C70.3435 14.4533 70.7435 14.2133 71.1569 13.88L71.9569 14.94C70.9702 15.82 69.8502 16.26 68.5969 16.26C67.2235 16.26 66.1569 15.7867 65.3969 14.84C64.6502 13.88 64.2769 12.54 64.2769 10.82C64.2769 9.1 64.6369 7.74 65.3569 6.74C66.0769 5.72667 67.0769 5.22 68.3569 5.22C69.6235 5.22 70.5969 5.67333 71.2769 6.58C71.9569 7.47333 72.2969 8.75333 72.2969 10.42ZM70.5569 9.88C70.5569 7.68 69.8302 6.58 68.3769 6.58C67.7102 6.58 67.1835 6.86 66.7969 7.42C66.4102 7.96667 66.1902 8.86 66.1369 10.1H70.5569V9.88ZM81.8216 5.48L78.6816 16H76.5216L73.2816 5.48H75.1616L77.6016 14.48L80.0216 5.48H81.8216ZM90.9297 10.42C90.9297 10.7 90.9164 11.0133 90.8897 11.36H84.7697C84.823 12.5867 85.0697 13.4733 85.5097 14.02C85.9497 14.5533 86.5497 14.82 87.3097 14.82C87.7897 14.82 88.2164 14.7467 88.5897 14.6C88.9764 14.4533 89.3764 14.2133 89.7897 13.88L90.5897 14.94C89.603 15.82 88.483 16.26 87.2297 16.26C85.8564 16.26 84.7897 15.7867 84.0297 14.84C83.283 13.88 82.9097 12.54 82.9097 10.82C82.9097 9.1 83.2697 7.74 83.9897 6.74C84.7097 5.72667 85.7097 5.22 86.9897 5.22C88.2564 5.22 89.2297 5.67333 89.9097 6.58C90.5897 7.47333 90.9297 8.75333 90.9297 10.42ZM89.1897 9.88C89.1897 7.68 88.463 6.58 87.0097 6.58C86.343 6.58 85.8164 6.86 85.4297 7.42C85.043 7.96667 84.823 8.86 84.7697 10.1H89.1897V9.88ZM98.1325 5.22C98.9725 5.22 99.6258 5.5 100.093 6.06C100.573 6.60667 100.813 7.36667 100.813 8.34V16H99.0125V8.56C99.0125 7.88 98.8992 7.39333 98.6725 7.1C98.4458 6.79333 98.0992 6.64 97.6325 6.64C96.7525 6.64 95.9525 7.26667 95.2325 8.52V16H93.4325V5.48H94.9925L95.1325 7.04C95.9458 5.82667 96.9458 5.22 98.1325 5.22ZM108.959 15.54C108.293 16.02 107.553 16.26 106.739 16.26C105.886 16.26 105.226 16.0133 104.759 15.52C104.306 15.0267 104.079 14.3333 104.079 13.44V6.84H102.579V5.48H104.079V3.06L105.879 2.84V5.48H108.199L107.999 6.84H105.879V13.42C105.879 14.3267 106.259 14.78 107.019 14.78C107.246 14.78 107.453 14.7467 107.639 14.68C107.839 14.6133 108.059 14.5133 108.299 14.38L108.959 15.54Z" fill="white"/>
    </svg>
</svg>
