<svg width="175" height="159" viewBox="0 0 175 159" fill="none" xmlns="http://www.w3.org/2000/svg">
<!-- <rect width="175" height="159" fill="#D0D5DD"/> -->
<g clip-path="url(#clip0_0_1)">
<!-- <rect width="390" height="844" transform="translate(-13 -165)" fill="#143959"/> -->
<rect width="175" height="159" rx="10" fill="#F26457"/>

<text x="50%" y="53%" dominant-baseline="middle" text-anchor="middle" fill="black" font-family="'Fira Sans', sans-serif" font-size="18" font-weight="bold">Find & Register</text>
<text x="50%" y="66%" dominant-baseline="middle" text-anchor="middle" fill="black" font-family="'Fira Sans', sans-serif" font-size="14" font-weight="normal">for an event</text>

<!-- <path d="M28.3019 88V74.18H35.4819L35.2219 76.1H30.9019V80.3H34.6619V82.22H30.9019V88H28.3019ZM38.9841 77.42V88H36.4841V77.42H38.9841ZM37.7441 72.1C38.1974 72.1 38.5641 72.2467 38.8441 72.54C39.1374 72.82 39.2841 73.18 39.2841 73.62C39.2841 74.06 39.1374 74.4267 38.8441 74.72C38.5641 75 38.1974 75.14 37.7441 75.14C37.2907 75.14 36.9174 75 36.6241 74.72C36.3441 74.4267 36.2041 74.06 36.2041 73.62C36.2041 73.18 36.3441 72.82 36.6241 72.54C36.9174 72.2467 37.2907 72.1 37.7441 72.1ZM46.8808 77.12C47.7208 77.12 48.3808 77.4 48.8608 77.96C49.3408 78.52 49.5808 79.28 49.5808 80.24V88H47.0808V80.58C47.0808 80.02 46.9874 79.6267 46.8008 79.4C46.6274 79.16 46.3674 79.04 46.0208 79.04C45.6608 79.04 45.3274 79.1733 45.0208 79.44C44.7141 79.7067 44.4141 80.1 44.1208 80.62V88H41.6208V77.42H43.8008L43.9808 78.8C44.3674 78.2533 44.7941 77.84 45.2608 77.56C45.7408 77.2667 46.2808 77.12 46.8808 77.12ZM60.3286 73.18V88H58.1086L57.9686 86.72C57.2753 87.7733 56.3753 88.3 55.2686 88.3C54.0953 88.3 53.1953 87.8067 52.5686 86.82C51.9419 85.8333 51.6286 84.4667 51.6286 82.72C51.6286 81.6133 51.7886 80.64 52.1086 79.8C52.4286 78.9467 52.8753 78.2867 53.4486 77.82C54.0353 77.3533 54.7086 77.12 55.4686 77.12C56.4019 77.12 57.1886 77.4933 57.8286 78.24V72.92L60.3286 73.18ZM55.9686 86.42C56.3553 86.42 56.6953 86.3133 56.9886 86.1C57.2819 85.8733 57.5619 85.54 57.8286 85.1V80.12C57.5753 79.7467 57.3086 79.4667 57.0286 79.28C56.7619 79.0933 56.4553 79 56.1086 79C55.5219 79 55.0619 79.3 54.7286 79.9C54.3953 80.4867 54.2286 81.42 54.2286 82.7C54.2286 84.02 54.3753 84.9733 54.6686 85.56C54.9753 86.1333 55.4086 86.42 55.9686 86.42ZM71.6825 73.88C72.8158 73.88 73.7158 74.1733 74.3825 74.76C75.0625 75.3467 75.4025 76.1067 75.4025 77.04C75.4025 77.8133 75.1892 78.4933 74.7625 79.08C74.3358 79.6533 73.7225 80.2067 72.9225 80.74L75.6425 83.68C76.0425 82.6933 76.3558 81.6667 76.5825 80.6L78.6625 81.18C78.2225 82.66 77.6758 83.94 77.0225 85.02L79.1625 87.14L77.1625 88.3L75.5825 86.58C74.4758 87.7267 73.1492 88.3 71.6025 88.3C70.7625 88.3 70.0158 88.14 69.3625 87.82C68.7092 87.5 68.2025 87.0533 67.8425 86.48C67.4825 85.8933 67.3025 85.2267 67.3025 84.48C67.3025 83.6667 67.5025 82.96 67.9025 82.36C68.3158 81.76 68.9492 81.1533 69.8025 80.54C69.1492 79.8733 68.6892 79.2933 68.4225 78.8C68.1558 78.3067 68.0225 77.74 68.0225 77.1C68.0225 76.18 68.3358 75.4133 68.9625 74.8C69.6025 74.1867 70.5092 73.88 71.6825 73.88ZM71.7225 75.58C71.3092 75.58 70.9892 75.7133 70.7625 75.98C70.5358 76.2333 70.4225 76.6067 70.4225 77.1C70.4225 77.5267 70.5092 77.9133 70.6825 78.26C70.8558 78.5933 71.1558 79 71.5825 79.48C72.0758 79.08 72.4358 78.7067 72.6625 78.36C72.8892 78 73.0025 77.58 73.0025 77.1C73.0025 76.5933 72.8892 76.2133 72.6625 75.96C72.4492 75.7067 72.1358 75.58 71.7225 75.58ZM71.1825 81.9C70.7425 82.26 70.4158 82.64 70.2025 83.04C70.0025 83.4267 69.9025 83.8733 69.9025 84.38C69.9025 85.0333 70.0892 85.54 70.4625 85.9C70.8358 86.26 71.3425 86.44 71.9825 86.44C72.8758 86.44 73.6558 86.0667 74.3225 85.32L71.1825 81.9ZM89.4313 82.44H88.0113V88H85.4113V74.18H89.0513C92.5313 74.18 94.2713 75.5333 94.2713 78.24C94.2713 79.12 94.0646 79.88 93.6513 80.52C93.2379 81.1467 92.6179 81.6267 91.7913 81.96L95.0113 88H92.1513L89.4313 82.44ZM89.1913 80.58C90.0179 80.58 90.6246 80.3933 91.0113 80.02C91.3979 79.6467 91.5913 79.0533 91.5913 78.24C91.5913 77.4933 91.3846 76.9467 90.9713 76.6C90.5713 76.2533 89.9246 76.08 89.0312 76.08H88.0113V80.58H89.1913ZM104.192 82.46C104.192 82.58 104.172 82.92 104.132 83.48H98.152C98.232 84.5467 98.4587 85.3 98.832 85.74C99.2054 86.18 99.7254 86.4 100.392 86.4C100.819 86.4 101.219 86.3267 101.592 86.18C101.965 86.0333 102.365 85.8067 102.792 85.5L103.832 86.92C102.779 87.84 101.572 88.3 100.212 88.3C98.732 88.3 97.592 87.8133 96.792 86.84C95.992 85.8667 95.592 84.5133 95.592 82.78C95.592 81.0733 95.972 79.7067 96.732 78.68C97.5054 77.64 98.5787 77.12 99.952 77.12C101.285 77.12 102.325 77.58 103.072 78.5C103.819 79.42 104.192 80.74 104.192 82.46ZM101.732 81.74C101.732 80.78 101.592 80.0667 101.312 79.6C101.032 79.12 100.585 78.88 99.972 78.88C99.412 78.88 98.9787 79.1133 98.672 79.58C98.3787 80.0333 98.2054 80.7933 98.152 81.86H101.732V81.74ZM114.592 77.96C113.978 78.2133 113.065 78.34 111.852 78.34C112.452 78.6067 112.898 78.9667 113.192 79.42C113.485 79.86 113.632 80.4 113.632 81.04C113.632 82.1067 113.278 82.9667 112.572 83.62C111.865 84.2733 110.912 84.6 109.712 84.6C109.272 84.6 108.898 84.5467 108.592 84.44C108.472 84.5333 108.372 84.6533 108.292 84.8C108.225 84.9333 108.192 85.08 108.192 85.24C108.192 85.48 108.272 85.6733 108.432 85.82C108.605 85.9533 108.905 86.02 109.332 86.02H110.672C111.792 86.02 112.678 86.3 113.332 86.86C113.985 87.42 114.312 88.1333 114.312 89C114.312 90.0267 113.898 90.84 113.072 91.44C112.245 92.04 111.052 92.34 109.492 92.34C107.852 92.34 106.698 92.06 106.032 91.5C105.378 90.9533 105.052 90.1333 105.052 89.04H107.292C107.292 89.6 107.445 90 107.752 90.24C108.058 90.48 108.645 90.6 109.512 90.6C110.352 90.6 110.945 90.4733 111.292 90.22C111.638 89.98 111.812 89.6267 111.812 89.16C111.812 88.2933 111.258 87.86 110.152 87.86H109.032C108.018 87.86 107.272 87.6733 106.792 87.3C106.312 86.9267 106.072 86.44 106.072 85.84C106.072 85.4667 106.172 85.1133 106.372 84.78C106.572 84.4467 106.852 84.16 107.212 83.92C106.625 83.5733 106.192 83.16 105.912 82.68C105.645 82.2 105.512 81.6133 105.512 80.92C105.512 79.7733 105.878 78.86 106.612 78.18C107.358 77.4867 108.338 77.14 109.552 77.14C110.552 77.14 111.358 77.0467 111.972 76.86C112.598 76.6733 113.258 76.3867 113.952 76L114.592 77.96ZM109.592 78.82C109.072 78.82 108.672 78.9933 108.392 79.34C108.125 79.6867 107.992 80.2 107.992 80.88C107.992 81.5467 108.132 82.0667 108.412 82.44C108.692 82.8 109.085 82.98 109.592 82.98C110.138 82.98 110.545 82.8133 110.812 82.48C111.078 82.1333 111.212 81.5933 111.212 80.86C111.212 79.5 110.672 78.82 109.592 78.82ZM118.398 77.42V88H115.898V77.42H118.398ZM117.158 72.1C117.611 72.1 117.978 72.2467 118.258 72.54C118.551 72.82 118.698 73.18 118.698 73.62C118.698 74.06 118.551 74.4267 118.258 74.72C117.978 75 117.611 75.14 117.158 75.14C116.705 75.14 116.331 75 116.038 74.72C115.758 74.4267 115.618 74.06 115.618 73.62C115.618 73.18 115.758 72.82 116.038 72.54C116.331 72.2467 116.705 72.1 117.158 72.1ZM124.155 77.12C125.475 77.12 126.622 77.54 127.595 78.38L126.615 79.8C125.828 79.24 125.048 78.96 124.275 78.96C123.835 78.96 123.495 79.06 123.255 79.26C123.015 79.46 122.895 79.7333 122.895 80.08C122.895 80.3333 122.948 80.54 123.055 80.7C123.175 80.86 123.375 81.02 123.655 81.18C123.935 81.3267 124.355 81.4933 124.915 81.68C125.928 82.0133 126.682 82.4267 127.175 82.92C127.668 83.4133 127.915 84.0933 127.915 84.96C127.915 86 127.522 86.82 126.735 87.42C125.962 88.0067 124.982 88.3 123.795 88.3C123.008 88.3 122.288 88.1733 121.635 87.92C120.982 87.6533 120.415 87.2867 119.935 86.82L121.175 85.44C122.002 86.1067 122.848 86.44 123.715 86.44C124.222 86.44 124.615 86.3267 124.895 86.1C125.188 85.8733 125.335 85.5533 125.335 85.14C125.335 84.8333 125.275 84.5867 125.155 84.4C125.048 84.2133 124.848 84.04 124.555 83.88C124.262 83.72 123.815 83.5467 123.215 83.36C122.228 83.0267 121.508 82.6067 121.055 82.1C120.615 81.5933 120.395 80.9667 120.395 80.22C120.395 79.6333 120.548 79.1067 120.855 78.64C121.162 78.16 121.602 77.7867 122.175 77.52C122.748 77.2533 123.408 77.12 124.155 77.12ZM135.327 87.5C134.981 87.7667 134.594 87.9667 134.167 88.1C133.754 88.2333 133.327 88.3 132.887 88.3C131.914 88.3 131.167 88.02 130.647 87.46C130.141 86.9 129.887 86.12 129.887 85.12V79.22H128.467V77.42H129.887V75.08L132.387 74.78V77.42H134.607L134.347 79.22H132.387V85.1C132.387 85.5 132.461 85.8 132.607 86C132.767 86.1867 133.014 86.28 133.347 86.28C133.707 86.28 134.074 86.1667 134.447 85.94L135.327 87.5ZM144.231 82.46C144.231 82.58 144.211 82.92 144.171 83.48H138.191C138.271 84.5467 138.498 85.3 138.871 85.74C139.244 86.18 139.764 86.4 140.431 86.4C140.858 86.4 141.258 86.3267 141.631 86.18C142.004 86.0333 142.404 85.8067 142.831 85.5L143.871 86.92C142.818 87.84 141.611 88.3 140.251 88.3C138.771 88.3 137.631 87.8133 136.831 86.84C136.031 85.8667 135.631 84.5133 135.631 82.78C135.631 81.0733 136.011 79.7067 136.771 78.68C137.544 77.64 138.618 77.12 139.991 77.12C141.324 77.12 142.364 77.58 143.111 78.5C143.858 79.42 144.231 80.74 144.231 82.46ZM141.771 81.74C141.771 80.78 141.631 80.0667 141.351 79.6C141.071 79.12 140.624 78.88 140.011 78.88C139.451 78.88 139.018 79.1133 138.711 79.58C138.418 80.0333 138.244 80.7933 138.191 81.86H141.771V81.74ZM151.111 77.14C151.391 77.14 151.704 77.1867 152.051 77.28L151.631 79.7C151.351 79.62 151.071 79.58 150.791 79.58C150.231 79.58 149.784 79.8 149.451 80.24C149.131 80.68 148.884 81.3467 148.711 82.24V88H146.211V77.42H148.391L148.591 79.38C148.844 78.6467 149.184 78.0933 149.611 77.72C150.037 77.3333 150.537 77.14 151.111 77.14ZM69.136 108.2C69.136 108.52 69.181 108.76 69.271 108.92C69.361 109.07 69.501 109.185 69.691 109.265L69.406 110.18C69.016 110.12 68.711 110 68.491 109.82C68.271 109.64 68.116 109.365 68.026 108.995C67.516 109.795 66.801 110.195 65.881 110.195C65.181 110.195 64.626 109.98 64.216 109.55C63.806 109.11 63.601 108.525 63.601 107.795C63.601 106.955 63.876 106.315 64.426 105.875C64.976 105.435 65.761 105.215 66.781 105.215H67.801V104.54C67.801 103.99 67.686 103.595 67.456 103.355C67.236 103.105 66.871 102.98 66.361 102.98C65.811 102.98 65.171 103.12 64.441 103.4L64.111 102.455C64.991 102.095 65.811 101.915 66.571 101.915C68.281 101.915 69.136 102.77 69.136 104.48V108.2ZM66.196 109.175C66.896 109.175 67.431 108.765 67.801 107.945V106.085H66.931C65.631 106.085 64.981 106.63 64.981 107.72C64.981 108.19 65.086 108.55 65.296 108.8C65.506 109.05 65.806 109.175 66.196 109.175ZM75.0945 101.915C75.7245 101.915 76.2145 102.125 76.5645 102.545C76.9245 102.955 77.1045 103.525 77.1045 104.255V110H75.7545V104.42C75.7545 103.91 75.6695 103.545 75.4995 103.325C75.3295 103.095 75.0695 102.98 74.7195 102.98C74.0595 102.98 73.4595 103.45 72.9195 104.39V110H71.5695V102.11H72.7395L72.8445 103.28C73.4545 102.37 74.2045 101.915 75.0945 101.915ZM88.5449 105.815C88.5449 106.025 88.5349 106.26 88.5149 106.52H83.9249C83.9649 107.44 84.1499 108.105 84.4799 108.515C84.8099 108.915 85.2599 109.115 85.8299 109.115C86.1899 109.115 86.5099 109.06 86.7899 108.95C87.0799 108.84 87.3799 108.66 87.6899 108.41L88.2899 109.205C87.5499 109.865 86.7099 110.195 85.7699 110.195C84.7399 110.195 83.9399 109.84 83.3699 109.13C82.8099 108.41 82.5299 107.405 82.5299 106.115C82.5299 104.825 82.7999 103.805 83.3399 103.055C83.8799 102.295 84.6299 101.915 85.5899 101.915C86.5399 101.915 87.2699 102.255 87.7799 102.935C88.2899 103.605 88.5449 104.565 88.5449 105.815ZM87.2399 105.41C87.2399 103.76 86.6949 102.935 85.6049 102.935C85.1049 102.935 84.7099 103.145 84.4199 103.565C84.1299 103.975 83.9649 104.645 83.9249 105.575H87.2399V105.41ZM95.6884 102.11L93.3334 110H91.7134L89.2834 102.11H90.6934L92.5234 108.86L94.3384 102.11H95.6884ZM102.52 105.815C102.52 106.025 102.51 106.26 102.49 106.52H97.8995C97.9395 107.44 98.1245 108.105 98.4545 108.515C98.7845 108.915 99.2345 109.115 99.8045 109.115C100.165 109.115 100.485 109.06 100.765 108.95C101.055 108.84 101.355 108.66 101.665 108.41L102.265 109.205C101.525 109.865 100.685 110.195 99.7445 110.195C98.7145 110.195 97.9145 109.84 97.3445 109.13C96.7845 108.41 96.5045 107.405 96.5045 106.115C96.5045 104.825 96.7745 103.805 97.3145 103.055C97.8545 102.295 98.6045 101.915 99.5645 101.915C100.515 101.915 101.245 102.255 101.755 102.935C102.265 103.605 102.52 104.565 102.52 105.815ZM101.215 105.41C101.215 103.76 100.67 102.935 99.5795 102.935C99.0795 102.935 98.6845 103.145 98.3945 103.565C98.1045 103.975 97.9395 104.645 97.8995 105.575H101.215V105.41ZM107.922 101.915C108.552 101.915 109.042 102.125 109.392 102.545C109.752 102.955 109.932 103.525 109.932 104.255V110H108.582V104.42C108.582 103.91 108.497 103.545 108.327 103.325C108.157 103.095 107.897 102.98 107.547 102.98C106.887 102.98 106.287 103.45 105.747 104.39V110H104.397V102.11H105.567L105.672 103.28C106.282 102.37 107.032 101.915 107.922 101.915ZM116.042 109.655C115.542 110.015 114.987 110.195 114.377 110.195C113.737 110.195 113.242 110.01 112.892 109.64C112.552 109.27 112.382 108.75 112.382 108.08V103.13H111.257V102.11H112.382V100.295L113.732 100.13V102.11H115.472L115.322 103.13H113.732V108.065C113.732 108.745 114.017 109.085 114.587 109.085C114.757 109.085 114.912 109.06 115.052 109.01C115.202 108.96 115.367 108.885 115.547 108.785L116.042 109.655Z" fill="black"/> -->
<circle cx="85.625" cy="45.625" r="13.125" stroke="#33363F" stroke-width="2"/>
<path d="M85.625 40C84.8863 40 84.1549 40.1455 83.4724 40.4282C82.7899 40.7109 82.1699 41.1252 81.6475 41.6475C81.1252 42.1699 80.7109 42.7899 80.4282 43.4724C80.1455 44.1549 80 44.8863 80 45.625" stroke="#33363F" stroke-width="2" stroke-linecap="round"/>
<path d="M102.5 62.5L96.875 56.875" stroke="#33363F" stroke-width="2" stroke-linecap="round"/>
</g>
<defs>
<clipPath id="clip0_0_1">
<rect width="390" height="844" fill="white" transform="translate(-13 -165)"/>
</clipPath>
</defs>
</svg>
