<svg width="52" height="48" viewBox="0 0 52 48" fill="none" xmlns="http://www.w3.org/2000/svg">
<g filter="url(#filter0_d_149_5952)">
<rect x="4" width="44" height="40" rx="10" fill="#F9FAFB"/>
</g>
<path d="M22 15H30M26 15V25M21.8 29H30.2C31.8802 29 32.7202 29 33.362 28.673C33.9265 28.3854 34.3854 27.9265 34.673 27.362C35 26.7202 35 25.8802 35 24.2V15.8C35 14.1198 35 13.2798 34.673 12.638C34.3854 12.0735 33.9265 11.6146 33.362 11.327C32.7202 11 31.8802 11 30.2 11H21.8C20.1198 11 19.2798 11 18.638 11.327C18.0735 11.6146 17.6146 12.0735 17.327 12.638C17 13.2798 17 14.1198 17 15.8V24.2C17 25.8802 17 26.7202 17.327 27.362C17.6146 27.9265 18.0735 28.3854 18.638 28.673C19.2798 29 20.1198 29 21.8 29Z" stroke="black" stroke-width="2" stroke-linecap="round" stroke-linejoin="round"/>
<defs>
<filter id="filter0_d_149_5952" x="0" y="0" width="52" height="48" filterUnits="userSpaceOnUse" color-interpolation-filters="sRGB">
<feFlood flood-opacity="0" result="BackgroundImageFix"/>
<feColorMatrix in="SourceAlpha" type="matrix" values="0 0 0 0 0 0 0 0 0 0 0 0 0 0 0 0 0 0 127 0" result="hardAlpha"/>
<feOffset dy="4"/>
<feGaussianBlur stdDeviation="2"/>
<feComposite in2="hardAlpha" operator="out"/>
<feColorMatrix type="matrix" values="0 0 0 0 0 0 0 0 0 0 0 0 0 0 0 0 0 0 0.25 0"/>
<feBlend mode="normal" in2="BackgroundImageFix" result="effect1_dropShadow_149_5952"/>
<feBlend mode="normal" in="SourceGraphic" in2="effect1_dropShadow_149_5952" result="shape"/>
</filter>
</defs>
</svg>
