<svg id="svg" xmlns="http://www.w3.org/2000/svg" xmlns:xlink="http://www.w3.org/1999/xlink" width="400" height="400" viewBox="0, 0, 400,400"><g id="svgg"><path id="path0" d="M50.595 26.517 C 39.275 30.136,29.571 40.093,26.239 51.509 C 24.148 58.671,24.376 292.387,26.480 299.148 C 30.063 310.661,39.956 320.389,51.509 323.761 C 58.861 325.907,215.789 325.609,219.343 323.442 C 226.821 318.882,227.081 306.573,219.799 301.800 C 217.772 300.472,213.102 300.368,138.707 300.000 C 50.067 299.561,56.754 300.038,52.593 293.864 C 49.917 289.893,49.909 289.465,50.156 171.484 C 50.418 46.828,49.951 57.117,55.529 52.959 C 59.337 50.122,62.784 50.037,175.000 50.037 C 287.216 50.037,290.663 50.122,294.471 52.959 C 299.963 57.053,299.565 50.893,300.000 138.707 C 300.368 213.102,300.472 217.772,301.800 219.799 C 306.573 227.081,318.882 226.821,323.442 219.343 C 325.812 215.455,325.885 58.451,323.520 50.852 C 319.937 39.339,310.044 29.611,298.491 26.239 C 291.471 24.189,57.053 24.453,50.595 26.517 M127.542 76.099 C 105.695 83.202,98.861 112.226,115.189 128.564 C 127.245 140.628,147.746 140.627,159.811 128.561 C 182.830 105.542,158.523 66.025,127.542 76.099 M208.246 137.885 C 205.855 138.737,197.580 146.566,171.343 172.797 L 137.522 206.611 122.082 191.266 C 100.493 169.810,99.702 169.679,84.180 184.998 L 75.000 194.058 75.000 234.529 L 75.000 275.000 175.000 275.000 L 275.000 275.000 275.000 234.556 L 275.000 194.111 247.070 166.264 C 215.605 134.891,215.948 135.142,208.246 137.885 M305.657 251.558 C 300.189 254.892,300.006 255.783,300.003 279.102 L 300.000 300.000 279.102 300.003 C 252.937 300.007,250.006 301.266,250.006 312.500 C 250.006 323.734,252.937 324.993,279.102 324.997 L 300.000 325.000 300.003 345.898 C 300.007 372.063,301.266 374.994,312.500 374.994 C 323.734 374.994,324.993 372.063,324.997 345.898 L 325.000 325.000 345.898 324.997 C 372.063 324.993,374.994 323.734,374.994 312.500 C 374.994 301.266,372.063 300.007,345.898 300.003 L 325.000 300.000 324.997 279.102 C 324.993 252.937,323.734 250.006,312.500 250.006 C 309.587 250.006,307.383 250.506,305.657 251.558 " stroke="none" fill="#ffffff" fill-rule="evenodd"></path></g></svg>